{
copyright = "Copyright (c) 2021 Saurabh Sharma";
designer = "Saurabh Sharma";
designerURL = "https://intothedesign.com";
familyName = Cause;
customParameters = (
{
name = glyphOrder;
value = (
.notdef,
NULL,
uni000D,
space,
K,
i,
D,
d,
s,
n,
u,
m,
E,
o,
p,
P,
R,
S,
q,
r,
t,
e,
a,
b,
c,
F,
G,
O,
H,
N,
M,
Q,
T,
A,
B,
C,
I,
L,
J,
l,
U,
V,
W,
X,
Y,
Z,
f,
g,
h,
j,
k,
v,
w,
x,
y,
z,
bracketleft,
bracketright,
parenleft,
parenright,
backslash,
zero,
slash,
one,
two,
three,
four,
five,
six,
seven,
eight,
ampersand,
nine,
period,
colon,
semicolon,
comma,
at,
braceleft,
braceright,
bar,
exclam,
quotesingle,
percent,
asterisk,
plus,
hyphen,
quotedbl,
equal,
dollar,
numbersign,
question,
less,
greater,
underscore,
asciicircum,
guillemotleft,
guillemotright,
guilsinglleft,
guilsinglright,
ellipsis,
quotedblleft,
quotedblright,
quotedblbase,
quotesinglbase,
quoteleft,
quoteright,
minus,
endash,
emdash,
asciitilde,
exclamdown,
sterling,
currency,
brokenbar,
section,
dieresis,
circumflex,
acute,
tilde,
caron,
ring,
breve,
macron,
questiondown,
degree,
copyright,
onehalf,
threequarters,
onesuperior,
twosuperior,
threesuperior,
ordfeminine,
Euro,
registered,
multiply,
germandbls,
ogonek,
cedilla,
dotaccent,
uni0326,
fraction,
periodcentered,
ae,
Thorn,
eth,
thorn,
dcroat,
hbar,
bullet,
uni03BC,
uni20B9,
trademark,
florin,
paragraph,
uni2113,
longs,
cent,
yen,
ordmasculine,
hungarumlaut,
AE,
dotlessi,
Oslash,
oslash,
divide,
Hbar,
OE,
oe,
grave,
uni00A0,
perthousand,
franc,
uni0394,
uni03A9,
estimated,
pi,
dagger,
daggerdbl,
partialdiff,
product,
summation,
uni2215,
radical,
infinity,
integral,
approxequal,
notequal,
lessequal,
greaterequal,
lozenge,
plusminus,
logicalnot,
f_f,
fi,
fl,
f_f_i,
f_f_l,
longs_t,
Lslash,
lslash,
Tbar,
tbar,
four.superior,
five.superior,
six.superior,
seven.superior,
eight.superior,
nine.superior,
zero.superior,
two.subs,
three.subs,
four.subs,
five.subs,
six.subs,
seven.subs,
eight.subs,
nine.subs,
zero.subs,
one.subs,
onequarter,
Eth,
Dcroat,
dotlessj,

glyphs = (
{
glyphname = .notdef;
layers = (
{
layerId = "9B6556BE-0D60-403F-880A-9E0B7B019CCB";
paths = (
{
closed = 1;
nodes = (
"520.37 0 LINE",
"520.37 700.05 LINE",
"90.006 700.05 LINE",
"90.006 0 LINE"
);
},
{
closed = 1;
nodes = (
"490 27 LINE",
"120 27 LINE",
"120 673 LINE",
"490 673 LINE"
);
}
);
width = 611;
},
{
layerId = "53D8B3CD-CAC4-43E9-8418-D21F673F49BB";
paths = (
{
closed = 1;
nodes = (
"465.37 0 LINE",
"465.37 700.05 LINE",
"35.006 700.05 LINE",
"35.006 0 LINE"
);
},
{
closed = 1;
nodes = (
"435 27 LINE",
"65 27 LINE",
"65 673 LINE",
"435 673 LINE"
);
}
);
width = 501;
},
{
layerId = "F9A96203-4E56-41C0-BC85-563659FEF099";
paths = (
{
closed = 1;
nodes = (
"500.37 0 LINE",
"500.37 700.05 LINE",
"70.006 700.05 LINE",
"70.006 0 LINE"
);
},
{
closed = 1;
nodes = (
"470 27 LINE",
"100 27 LINE",
"100 673 LINE",
"470 673 LINE"
);
}
);
width = 571;
},
{
layerId = "9B6556BE-0D60-403F-880A-9E0B7B019CCB";
paths = (
{
closed = 1;
nodes = (
"520.4 0 LINE",
"520.4 700 LINE",
"90 700 LINE",
"90 0 LINE"
);
},
{
closed = 1;
nodes = (
"490 27 LINE",
"120 27 LINE",
"120 673 LINE",
"490 673 LINE"
);
}
);
width = 611;
},
{
layerId = "53D8B3CD-CAC4-43E9-8418-D21F673F49BB";
paths = (
{
closed = 1;
nodes = (
"465.4 0 LINE",
"465.4 700 LINE",
"35 700 LINE",
"35 0 LINE"
);
},
{
closed = 1;
nodes = (
"435 27 LINE",
"65 27 LINE",
"65 673 LINE",
"435 673 LINE"
);
}
);
width = 501;
},
{
layerId = "F9A96203-4E56-41C0-BC85-563659FEF099";
paths = (
{
closed = 1;
nodes = (
"500.4 0 LINE",
"500.4 700 LINE",
"70 700 LINE",
"70 0 LINE"
);
},
{
closed = 1;
nodes = (
"470 27 LINE",
"100 27 LINE",
"100 673 LINE",
"470 673 LINE"
);
}
);
width = 571;
}
);
},
{
glyphname = K;
layers = (
{
anchors = (
{
name = bottom;
position = "{282, 0}";
}
);
layerId = "9B6556BE-0D60-403F-880A-9E0B7B019CCB";
paths = (
{
closed = 1;
nodes = (
"389.546 127.432 OFFCURVE",
"308.736 229.484 OFFCURVE",
"215.584 361.787 CURVE",
"300.121 469.028 OFFCURVE",
"363.088 561.546 OFFCURVE",
"439.8 687.75 CURVE SMOOTH",
"443.423 693.711 OFFCURVE",
"439.586 700.617 OFFCURVE",
"432.65 700.617 CURVE SMOOTH",
"429.252 700.617 OFFCURVE",
"426.192 698.686 OFFCURVE",
"424.15 695.25 CURVE SMOOTH",
"333.849 543.295 OFFCURVE",
"258.882 438.739 OFFCURVE",
"120.79 272.159 CURVE",
"121.189 406.307 OFFCURVE",
"117.015 545.423 OFFCURVE",
"108.55 692.95 CURVE SMOOTH",
"108.27 697.839 OFFCURVE",
"105.02 701.029 OFFCURVE",
"100.322 701.029 CURVE SMOOTH",
"94.727 701.029 OFFCURVE",
"90.53 696.728 OFFCURVE",
"90.85 691.35 CURVE SMOOTH",
"105.195 450.031 OFFCURVE",
"106.193 227.234 OFFCURVE",
"94.55 9.35 CURVE SMOOTH",
"94.237 3.486 OFFCURVE",
"98.151 -0.795 OFFCURVE",
"103.826 -0.795 CURVE SMOOTH",
"109.15 -0.795 OFFCURVE",
"113.067 3.033 OFFCURVE",
"113.35 8.5 CURVE SMOOTH",
"117.392 86.426 OFFCURVE",
"119.753 165.067 OFFCURVE",
"120.456 245.238 CURVE",
"152.046 282.965 OFFCURVE",
"179.447 316.427 OFFCURVE",
"204.218 347.527 CURVE",
"303.148 209.277 OFFCURVE",
"383.599 107.655 OFFCURVE",
"477.85 2.15 CURVE SMOOTH",
"479.361 0.459 OFFCURVE",
"481.331 -0.443 OFFCURVE",
"483.517 -0.443 CURVE SMOOTH",
"491.154 -0.443 OFFCURVE",
"495.21 8.046 OFFCURVE",
"490.25 13.65 CURVE SMOOTH"
);
}
);
width = 533;
},
{
anchors = (
{
name = bottom;
position = "{310, 0}";
}
);
layerId = "53D8B3CD-CAC4-43E9-8418-D21F673F49BB";
paths = (
{
closed = 1;
nodes = (
"491.931 204.566 OFFCURVE",
"424.857 283.097 OFFCURVE",
"366.835 359.073 CURVE",
"432.943 441.376 OFFCURVE",
"490.915 520.926 OFFCURVE",
"530.05 582.95 CURVE SMOOTH",
"565.413 638.997 OFFCURVE",
"530.853 702.008 OFFCURVE",
"464.749 702.008 CURVE SMOOTH",
"437.854 702.008 OFFCURVE",
"415.08 688.921 OFFCURVE",
"401.8 665.85 CURVE SMOOTH",
"360.859 594.721 OFFCURVE",
"308.27 522.042 OFFCURVE",
"230.457 429.048 CURVE",
"228.892 521.377 OFFCURVE",
"225.308 596.984 OFFCURVE",
"220.4 640.55 CURVE SMOOTH",
"215.905 680.451 OFFCURVE",
"184.444 707.163 OFFCURVE",
"141.943 707.163 CURVE SMOOTH",
"91.837 707.163 OFFCURVE",
"56.919 671.543 OFFCURVE",
"61.35 624.95 CURVE SMOOTH",
"76.119 469.654 OFFCURVE",
"76.958 287.602 OFFCURVE",
"63.9 71.7 CURVE SMOOTH",
"61.241 27.741 OFFCURVE",
"96.313 -5.467 OFFCURVE",
"145.398 -5.467 CURVE SMOOTH",
"188.535 -5.467 OFFCURVE",
"219.881 21.047 OFFCURVE",
"223.25 60.35 CURVE SMOOTH",
"226.158 94.279 OFFCURVE",
"228.37 141.057 OFFCURVE",
"229.753 197.828 CURVE",
"241.128 210.366 OFFCURVE",
"252.149 222.708 OFFCURVE",
"262.823 234.861 CURVE",
"329.808 146.34 OFFCURVE",
"391.221 75.147 OFFCURVE",
"446.4 21.95 CURVE SMOOTH",
"463.655 5.315 OFFCURVE",
"484.168 -3.495 OFFCURVE",
"505.645 -3.495 CURVE SMOOTH",
"577.881 -3.495 OFFCURVE",
"612.396 77.373 OFFCURVE",
"562.6 129.95 CURVE SMOOTH"
);
}
);
width = 597;
},
{
anchors = (
{
name = bottom;
position = "{298, 0}";
}
);
layerId = "F9A96203-4E56-41C0-BC85-563659FEF099";
paths = (
{
closed = 1;
nodes = (
"403.263 163.237 OFFCURVE",
"347.958 233.605 OFFCURVE",
"258.027 361.374 CURVE",
"329.583 453.042 OFFCURVE",
"383.044 531.651 OFFCURVE",
"454.971 650.958 CURVE SMOOTH",
"469.113 674.416 OFFCURVE",
"453.309 701.987 OFFCURVE",
"425.721 701.987 CURVE SMOOTH",
"413.621 701.987 OFFCURVE",
"403.021 695.634 OFFCURVE",
"396.15 684.25 CURVE SMOOTH",
"315.153 550.043 OFFCURVE",
"256.558 466.949 OFFCURVE",
"162.221 352.514 CURVE",
"161.159 452.05 OFFCURVE",
"157.435 556.122 OFFCURVE",
"150.857 670.034 CURVE SMOOTH",
"149.773 688.811 OFFCURVE",
"136.268 701.397 OFFCURVE",
"117.205 701.397 CURVE SMOOTH",
"95.412 701.397 OFFCURVE",
"79.655 685.555 OFFCURVE",
"81 665 CURVE SMOOTH",
"94.958 451.67 OFFCURVE",
"95.966 243.755 OFFCURVE",
"84 31 CURVE SMOOTH",
"82.854 10.623 OFFCURVE",
"97.979 -5.135 OFFCURVE",
"118.685 -5.135 CURVE SMOOTH",
"138.629 -5.135 OFFCURVE",
"152.884 9.797 OFFCURVE",
"154.3 32.2 CURVE SMOOTH",
"158.58 99.914 OFFCURVE",
"161.16 170.478 OFFCURVE",
"162.034 243.787 CURVE",
"180.385 265.652 OFFCURVE",
"197.074 285.806 OFFCURVE",
"212.522 304.755 CURVE",
"306.433 171.586 OFFCURVE",
"358.126 106.217 OFFCURVE",
"445.762 9.815 CURVE SMOOTH",
"453.072 1.774 OFFCURVE",
"462.47 -2.55 OFFCURVE",
"472.64 -2.55 CURVE SMOOTH",
"504.367 -2.55 OFFCURVE",
"519.727 30.82 OFFCURVE",
"498.9 54.5 CURVE SMOOTH"
);
}
);
width = 539;
},
{
anchors = (
{
name = bottom;
position = "{282, 0}";
}
);
layerId = "9B6556BE-0D60-403F-880A-9E0B7B019CCB";
paths = (
{
closed = 1;
nodes = (
"389.5 127.4 OFFCURVE",
"308.7 229.5 OFFCURVE",
"215.6 361.8 CURVE",
"300.1 469 OFFCURVE",
"363.1 561.5 OFFCURVE",
"439.8 687.7 CURVE SMOOTH",
"443.4 693.7 OFFCURVE",
"439.6 700.6 OFFCURVE",
"432.7 700.6 CURVE SMOOTH",
"429.3 700.6 OFFCURVE",
"426.2 698.7 OFFCURVE",
"424.2 695.2 CURVE",
"333.8 543.3 OFFCURVE",
"258.9 438.7 OFFCURVE",
"120.8 272.2 CURVE",
"121.2 406.3 OFFCURVE",
"117 545.4 OFFCURVE",
"108.6 692.9 CURVE SMOOTH",
"108.3 697.8 OFFCURVE",
"105 701 OFFCURVE",
"100.3 701 CURVE SMOOTH",
"94.7 701 OFFCURVE",
"90.5 696.7 OFFCURVE",
"90.9 691.3 CURVE SMOOTH",
"98.7 559.69 OFFCURVE",
"102.543 433.583 OFFCURVE",
"102.543 310.772 CURVE SMOOTH",
"102.543 208.417 OFFCURVE",
"99.873 108.352 OFFCURVE",
"94.6 9.3 CURVE SMOOTH",
"94.2 3.5 OFFCURVE",
"98.2 -0.8 OFFCURVE",
"103.8 -0.8 CURVE SMOOTH",
"109.2 -0.8 OFFCURVE",
"113.1 3 OFFCURVE",
"113.4 8.5 CURVE SMOOTH",
"117.4 86.4 OFFCURVE",
"119.8 165.1 OFFCURVE",
"120.5 245.2 CURVE",
"152 283 OFFCURVE",
"179.4 316.4 OFFCURVE",
"204.2 347.5 CURVE",
"303.1 209.3 OFFCURVE",
"383.6 107.7 OFFCURVE",
"477.9 2.1 CURVE",
"479.4 0.5 OFFCURVE",
"481.3 -0.4 OFFCURVE",
"483.5 -0.4 CURVE SMOOTH",
"491.2 -0.4 OFFCURVE",
"495.2 8 OFFCURVE",
"490.3 13.6 CURVE SMOOTH"
);
}
);
width = 533;
},
{
anchors = (
{
name = bottom;
position = "{310, 0}";
}
);
layerId = "53D8B3CD-CAC4-43E9-8418-D21F673F49BB";
paths = (
{
closed = 1;
nodes = (
"491.9 204.6 OFFCURVE",
"424.9 283.1 OFFCURVE",
"366.8 359.1 CURVE",
"432.9 441.4 OFFCURVE",
"490.9 520.9 OFFCURVE",
"530 583 CURVE SMOOTH",
"539.688 598.326 OFFCURVE",
"544.141 614.177 OFFCURVE",
"544.141 629.117 CURVE SMOOTH",
"544.141 668.766 OFFCURVE",
"512.782 702 OFFCURVE",
"464.7 702 CURVE SMOOTH",
"437.9 702 OFFCURVE",
"415.1 688.9 OFFCURVE",
"401.8 665.8 CURVE SMOOTH",
"360.9 594.7 OFFCURVE",
"308.3 522 OFFCURVE",
"230.5 429 CURVE",
"228.9 521.4 OFFCURVE",
"225.3 597 OFFCURVE",
"220.4 640.5 CURVE SMOOTH",
"215.9 680.5 OFFCURVE",
"184.4 707.2 OFFCURVE",
"141.9 707.2 CURVE SMOOTH",
"91.8 707.2 OFFCURVE",
"56.9 671.5 OFFCURVE",
"61.3 625 CURVE SMOOTH",
"69.164 542.48 OFFCURVE",
"73.104 452.393 OFFCURVE",
"73.104 353.69 CURVE SMOOTH",
"73.104 266.636 OFFCURVE",
"70.039 172.88 OFFCURVE",
"63.9 71.7 CURVE SMOOTH",
"61.2 27.7 OFFCURVE",
"96.3 -5.5 OFFCURVE",
"145.4 -5.5 CURVE SMOOTH",
"188.5 -5.5 OFFCURVE",
"219.9 21 OFFCURVE",
"223.2 60.3 CURVE SMOOTH",
"226.2 94.3 OFFCURVE",
"228.4 141.1 OFFCURVE",
"229.8 197.8 CURVE",
"241.1 210.4 OFFCURVE",
"252.1 222.7 OFFCURVE",
"262.8 234.9 CURVE",
"329.8 146.3 OFFCURVE",
"391.2 75.1 OFFCURVE",
"446.4 22 CURVE SMOOTH",
"463.7 5.3 OFFCURVE",
"484.2 -3.5 OFFCURVE",
"505.6 -3.5 CURVE SMOOTH",
"554.446 -3.5 OFFCURVE",
"586.039 33.426 OFFCURVE",
"586.039 73.573 CURVE SMOOTH",
"586.039 92.85 OFFCURVE",
"578.755 112.869 OFFCURVE",
"562.6 129.9 CURVE SMOOTH"
);
}
);
width = 597;
},
{
anchors = (
{
name = bottom;
position = "{298, 0}";
}
);
layerId = "F9A96203-4E56-41C0-BC85-563659FEF099";
paths = (
{
closed = 1;
nodes = (
"403.3 163.2 OFFCURVE",
"348 233.6 OFFCURVE",
"258 361.4 CURVE",
"329.6 453 OFFCURVE",
"383 531.7 OFFCURVE",
"455 651 CURVE SMOOTH",
"458.603 656.98 OFFCURVE",
"460.254 663.234 OFFCURVE",
"460.254 669.232 CURVE SMOOTH",
"460.254 686.704 OFFCURVE",
"446.247 702 OFFCURVE",
"425.7 702 CURVE SMOOTH",
"413.6 702 OFFCURVE",
"403 695.6 OFFCURVE",
"396.1 684.3 CURVE SMOOTH",
"315.2 550 OFFCURVE",
"256.6 466.9 OFFCURVE",
"162.2 352.5 CURVE",
"161.2 452 OFFCURVE",
"157.4 556.1 OFFCURVE",
"150.9 670 CURVE SMOOTH",
"149.8 688.8 OFFCURVE",
"136.3 701.4 OFFCURVE",
"117.2 701.4 CURVE SMOOTH",
"95.4 701.4 OFFCURVE",
"79.7 685.6 OFFCURVE",
"81 665 CURVE SMOOTH",
"88.538 550.146 OFFCURVE",
"92.308 436.858 OFFCURVE",
"92.308 323.527 CURVE SMOOTH",
"92.308 226.387 OFFCURVE",
"89.538 129.215 OFFCURVE",
"84 31 CURVE SMOOTH",
"82.9 10.6 OFFCURVE",
"98 -5.1 OFFCURVE",
"118.7 -5.1 CURVE SMOOTH",
"138.6 -5.1 OFFCURVE",
"152.9 9.8 OFFCURVE",
"154.3 32.2 CURVE SMOOTH",
"158.6 99.9 OFFCURVE",
"161.2 170.5 OFFCURVE",
"162 243.8 CURVE",
"180.4 265.7 OFFCURVE",
"197.1 285.8 OFFCURVE",
"212.5 304.8 CURVE",
"306.4 171.6 OFFCURVE",
"358.1 106.2 OFFCURVE",
"445.8 9.8 CURVE SMOOTH",
"453.1 1.8 OFFCURVE",
"462.5 -2.5 OFFCURVE",
"472.6 -2.5 CURVE SMOOTH",
"494.382 -2.5 OFFCURVE",
"508.423 13.124 OFFCURVE",
"508.423 30.584 CURVE SMOOTH",
"508.423 38.615 OFFCURVE",
"505.453 47.034 OFFCURVE",
"498.9 54.5 CURVE SMOOTH"
);
}
);
width = 539;
}
);
leftKerningGroup = B;
rightKerningGroup = K;
unicode = 004B;
},
{
glyphname = i;
layers = (
{
anchors = (
{
name = bottom;
position = "{103, 0}";
}
);
guideLines = (
{
position = "{0, 506}";
}
);
layerId = "9B6556BE-0D60-403F-880A-9E0B7B019CCB";
paths = (
{
closed = 1;
nodes = (
"128.5 658.4 OFFCURVE",
"138 667.4 OFFCURVE",
"138 683.2 CURVE SMOOTH",
"138 700.2 OFFCURVE",
"128.3 710.1 OFFCURVE",
"112 710.1 CURVE SMOOTH",
"96.7 710.1 OFFCURVE",
"88 700.4 OFFCURVE",
"88 683.2 CURVE SMOOTH",
"88 668.3 OFFCURVE",
"97.6 658.4 OFFCURVE",
"112 658.4 CURVE SMOOTH"
);
},
{
closed = 1;
nodes = (
"102.937 73.616 OFFCURVE",
"98.485 162.6 OFFCURVE",
"98.485 252.164 CURVE SMOOTH",
"98.485 339.436 OFFCURVE",
"102.712 427.258 OFFCURVE",
"111.2 496.4 CURVE SMOOTH",
"111.8 501.7 OFFCURVE",
"107.6 506.2 OFFCURVE",
"101.9 506.2 CURVE SMOOTH",
"96.9 506.2 OFFCURVE",
"93.4 502.7 OFFCURVE",
"92.7 497.4 CURVE SMOOTH",
"84.622 433.901 OFFCURVE",
"80.595 348.063 OFFCURVE",
"80.595 260.515 CURVE SMOOTH",
"80.595 169.242 OFFCURVE",
"84.972 76.111 OFFCURVE",
"93.7 4.5 CURVE SMOOTH",
"94.4 -1.5 OFFCURVE",
"98.3 -5.5 OFFCURVE",
"103.4 -5.5 CURVE SMOOTH",
"109 -5.5 OFFCURVE",
"112.6 -0.6 OFFCURVE",
"111.8 6 CURVE SMOOTH"
);
}
);
width = 230;
},
{
anchors = (
{
name = bottom;
position = "{143, 0}";
}
);
guideLines = (
{
position = "{0, 506}";
},
{
position = "{0, -6}";
}
);
layerId = "53D8B3CD-CAC4-43E9-8418-D21F673F49BB";
paths = (
{
closed = 1;
nodes = (
"212 560.2 OFFCURVE",
"248.8 588.5 OFFCURVE",
"248.8 634.1 CURVE SMOOTH",
"248.8 680.4 OFFCURVE",
"211.5 709.7 OFFCURVE",
"152.5 709.7 CURVE SMOOTH",
"95.1 709.7 OFFCURVE",
"58.1 680.1 OFFCURVE",
"58.1 634.1 CURVE SMOOTH",
"58.1 588.7 OFFCURVE",
"94.5 560.2 OFFCURVE",
"152.5 560.2 CURVE SMOOTH"
);
},
{
closed = 1;
nodes = (
"215.291 141.081 OFFCURVE",
"211.062 206.941 OFFCURVE",
"211.062 272.482 CURVE SMOOTH",
"211.062 326.333 OFFCURVE",
"213.917 379.969 OFFCURVE",
"219.6 434.5 CURVE SMOOTH",
"223.8 475 OFFCURVE",
"188.9 506.5 OFFCURVE",
"139.8 506.5 CURVE SMOOTH",
"97.2 506.5 OFFCURVE",
"65.8 481.8 OFFCURVE",
"60.7 444.2 CURVE SMOOTH",
"54.169 396.541 OFFCURVE",
"50.968 338.268 OFFCURVE",
"50.968 277.675 CURVE SMOOTH",
"50.968 200.96 OFFCURVE",
"56.099 120.525 OFFCURVE",
"66.1 53.2 CURVE SMOOTH",
"71.5 17.1 OFFCURVE",
"101.4 -6.4 OFFCURVE",
"142.1 -6.4 CURVE SMOOTH",
"193.2 -6.4 OFFCURVE",
"229.3 28.7 OFFCURVE",
"223.8 72.9 CURVE SMOOTH"
);
}
);
width = 284;
},
{
anchors = (
{
name = bottom;
position = "{117, 0}";
}
);
layerId = "F9A96203-4E56-41C0-BC85-563659FEF099";
paths = (
{
closed = 1;
nodes = (
"154.6 610 OFFCURVE",
"175 629.6 OFFCURVE",
"175 659 CURVE SMOOTH",
"175 690 OFFCURVE",
"155 710 OFFCURVE",
"124 710 CURVE SMOOTH",
"94.1 710 OFFCURVE",
"75 690.1 OFFCURVE",
"75 659 CURVE SMOOTH",
"75 629 OFFCURVE",
"94 610 OFFCURVE",
"124 610 CURVE SMOOTH"
);
},
{
closed = 1;
nodes = (
"143.276 98.147 OFFCURVE",
"140.202 168.079 OFFCURVE",
"140.202 238.973 CURVE SMOOTH",
"140.202 314.625 OFFCURVE",
"143.702 391.372 OFFCURVE",
"150 467 CURVE SMOOTH",
"151.9 489.3 OFFCURVE",
"136.8 506.4 OFFCURVE",
"115.4 506.4 CURVE SMOOTH",
"96.2 506.4 OFFCURVE",
"82.1 492.2 OFFCURVE",
"80 471 CURVE SMOOTH",
"73.533 404.517 OFFCURVE",
"70.258 334.77 OFFCURVE",
"70.258 262.688 CURVE SMOOTH",
"70.258 187.641 OFFCURVE",
"73.808 110.062 OFFCURVE",
"81 31 CURVE SMOOTH",
"83 8.8 OFFCURVE",
"97.3 -6 OFFCURVE",
"116.8 -6 CURVE SMOOTH",
"137.5 -6 OFFCURVE",
"152.1 10.2 OFFCURVE",
"150 31 CURVE SMOOTH"
);
}
);
width = 230;
}
);
leftKerningGroup = i;
rightKerningGroup = i1;
unicode = 0069;
},
{
glyphname = D;
layers = (
{
anchors = (
{
name = left;
position = "{112, 350}";
},
{
name = top;
position = "{280, 730}";
}
);
layerId = "9B6556BE-0D60-403F-880A-9E0B7B019CCB";
paths = (
{
closed = 1;
nodes = (
"355.741 -10.8 OFFCURVE",
"527.313 147.4 OFFCURVE",
"527.313 359.72 CURVE SMOOTH",
"527.313 567.67 OFFCURVE",
"356.713 710.8 OFFCURVE",
"108.851 710.8 CURVE SMOOTH",
"97.052 710.8 OFFCURVE",
"90.945 704.646 OFFCURVE",
"91.532 693.347 CURVE SMOOTH",
"105.581 422.796 OFFCURVE",
"105.572 185.645 OFFCURVE",
"91.506 23.552 CURVE SMOOTH",
"89.037 -4.898 OFFCURVE",
"94.873 -10.8 OFFCURVE",
"125.477 -10.8 CURVE SMOOTH"
);
},
{
closed = 1;
nodes = (
"124.377 202.088 OFFCURVE",
"124.441 424.016 OFFCURVE",
"109.637 693.672 CURVE",
"355.613 684.569 OFFCURVE",
"508.56 556.759 OFFCURVE",
"508.56 360.314 CURVE SMOOTH",
"508.56 153.359 OFFCURVE",
"342.933 5.82 OFFCURVE",
"109.438 4.78 CURVE"
);
}
);
width = 588;
},
{
anchors = (
{
name = left;
position = "{145, 350}";
},
{
name = top;
position = "{280, 730}";
}
);
layerId = "53D8B3CD-CAC4-43E9-8418-D21F673F49BB";
paths = (
{
closed = 1;
nodes = (
"402.722 -6.069 OFFCURVE",
"581.383 150.16 OFFCURVE",
"581.383 357.865 CURVE SMOOTH",
"581.383 561.931 OFFCURVE",
"407.373 705.724 OFFCURVE",
"160.425 705.724 CURVE SMOOTH",
"93.94 705.724 OFFCURVE",
"56.582 669.315 OFFCURVE",
"60.362 608.203 CURVE SMOOTH",
"71.341 430.682 OFFCURVE",
"71.342 246.489 OFFCURVE",
"60.367 82.32 CURVE SMOOTH",
"57.081 33.166 OFFCURVE",
"103.612 -6.069 OFFCURVE",
"165.192 -6.069 CURVE SMOOTH"
);
},
{
closed = 1;
nodes = (
"230.633 271.384 OFFCURVE",
"230.576 418.64 OFFCURVE",
"223.552 570.869 CURVE",
"343.584 549.378 OFFCURVE",
"419.297 466.672 OFFCURVE",
"419.297 357.046 CURVE SMOOTH",
"419.297 246.15 OFFCURVE",
"340.484 153.724 OFFCURVE",
"223.725 127.693 CURVE"
);
}
);
width = 612;
},
{
anchors = (
{
name = left;
position = "{126, 350}";
},
{
name = top;
position = "{280, 730}";
}
);
layerId = "F9A96203-4E56-41C0-BC85-563659FEF099";
paths = (
{
closed = 1;
nodes = (
"370 -10 OFFCURVE",
"539 147 OFFCURVE",
"539 359 CURVE SMOOTH",
"539 567 OFFCURVE",
"375 710 OFFCURVE",
"137 710 CURVE SMOOTH",
"99.963 710 OFFCURVE",
"78.884 688.853 OFFCURVE",
"81.069 653.891 CURVE SMOOTH",
"94 447 OFFCURVE",
"90 143 OFFCURVE",
"82 49 CURVE SMOOTH",
"78.838 11.843 OFFCURVE",
"101.186 -10 OFFCURVE",
"142 -10 CURVE SMOOTH"
);
},
{
closed = 1;
nodes = (
"159 195 OFFCURVE",
"162 443 OFFCURVE",
"151 644 CURVE",
"340 637 OFFCURVE",
"469 522 OFFCURVE",
"469 360 CURVE SMOOTH",
"469 195 OFFCURVE",
"335 67 OFFCURVE",
"151 56 CURVE"
);
}
);
width = 589;
},
{
anchors = (
{
name = left;
position = "{112, 350}";
},
{
name = top;
position = "{280, 730}";
}
);
layerId = "9B6556BE-0D60-403F-880A-9E0B7B019CCB";
paths = (
{
closed = 1;
nodes = (
"355.7 -10.8 OFFCURVE",
"527.3 147.4 OFFCURVE",
"527.3 359.7 CURVE SMOOTH",
"527.3 567.7 OFFCURVE",
"356.7 710.8 OFFCURVE",
"108.9 710.8 CURVE SMOOTH",
"97.1 710.8 OFFCURVE",
"90.9 704.6 OFFCURVE",
"91.5 693.3 CURVE SMOOTH",
"98.55 558.05 OFFCURVE",
"102.075 431.125 OFFCURVE",
"102.075 317.762 CURVE SMOOTH",
"102.075 204.4 OFFCURVE",
"98.55 104.6 OFFCURVE",
"91.5 23.6 CURVE SMOOTH",
"89 -4.9 OFFCURVE",
"94.9 -10.8 OFFCURVE",
"125.5 -10.8 CURVE SMOOTH"
);
},
{
closed = 1;
nodes = (
"116.925 103.781 OFFCURVE",
"120.675 208.953 OFFCURVE",
"120.675 323.246 CURVE SMOOTH",
"120.675 436.775 OFFCURVE",
"116.975 559.303 OFFCURVE",
"109.6 693.7 CURVE",
"355.6 684.6 OFFCURVE",
"508.6 556.8 OFFCURVE",
"508.6 360.3 CURVE SMOOTH",
"508.6 153.4 OFFCURVE",
"342.9 5.8 OFFCURVE",
"109.4 4.8 CURVE"
);
}
);
width = 588;
},
{
anchors = (
{
name = left;
position = "{145, 350}";
},
{
name = top;
position = "{280, 730}";
}
);
layerId = "53D8B3CD-CAC4-43E9-8418-D21F673F49BB";
paths = (
{
closed = 1;
nodes = (
"402.7 -6.1 OFFCURVE",
"581.4 150.2 OFFCURVE",
"581.4 357.9 CURVE SMOOTH",
"581.4 561.9 OFFCURVE",
"407.4 705.7 OFFCURVE",
"160.4 705.7 CURVE SMOOTH",
"93.9 705.7 OFFCURVE",
"56.6 669.3 OFFCURVE",
"60.4 608.2 CURVE SMOOTH",
"65.85 519.45 OFFCURVE",
"68.575 429.025 OFFCURVE",
"68.575 340.263 CURVE SMOOTH",
"68.575 251.5 OFFCURVE",
"65.85 164.4 OFFCURVE",
"60.4 82.3 CURVE SMOOTH",
"57.1 33.2 OFFCURVE",
"103.6 -6.1 OFFCURVE",
"165.2 -6.1 CURVE SMOOTH"
);
},
{
closed = 1;
nodes = (
"227.138 199.292 OFFCURVE",
"228.863 271.752 OFFCURVE",
"228.863 345.279 CURVE SMOOTH",
"228.863 419.336 OFFCURVE",
"227.113 494.476 OFFCURVE",
"223.6 570.9 CURVE",
"343.6 549.4 OFFCURVE",
"419.3 466.7 OFFCURVE",
"419.3 357 CURVE SMOOTH",
"419.3 246.1 OFFCURVE",
"340.5 153.7 OFFCURVE",
"223.7 127.7 CURVE"
);
}
);
width = 612;
},
{
anchors = (
{
name = left;
position = "{126, 350}";
},
{
name = top;
position = "{280, 730}";
}
);
layerId = "F9A96203-4E56-41C0-BC85-563659FEF099";
paths = (
{
closed = 1;
nodes = (
"370 -10 OFFCURVE",
"539 147 OFFCURVE",
"539 359 CURVE SMOOTH",
"539 567 OFFCURVE",
"375 710 OFFCURVE",
"137 710 CURVE SMOOTH",
"100 710 OFFCURVE",
"78.9 688.9 OFFCURVE",
"81.1 653.9 CURVE SMOOTH",
"87.082 557.954 OFFCURVE",
"89.43 441.127 OFFCURVE",
"89.43 334.045 CURVE SMOOTH",
"89.43 210.211 OFFCURVE",
"86.29 99.409 OFFCURVE",
"82 49 CURVE SMOOTH",
"78.8 11.8 OFFCURVE",
"101.2 -10 OFFCURVE",
"142 -10 CURVE SMOOTH"
);
},
{
closed = 1;
nodes = (
"155.31 130.888 OFFCURVE",
"158.169 237.415 OFFCURVE",
"158.169 351.184 CURVE SMOOTH",
"158.169 448.584 OFFCURVE",
"156.074 551.291 OFFCURVE",
"151 644 CURVE",
"340 637 OFFCURVE",
"469 522 OFFCURVE",
"469 360 CURVE SMOOTH",
"469 195 OFFCURVE",
"335 67 OFFCURVE",
"151 56 CURVE"
);
}
);
width = 589;
}
);
leftKerningGroup = D;
rightKerningGroup = D1;
unicode = 0044;
},
{
glyphname = d;
layers = (
{
anchors = (
{
name = right;
position = "{570, 700}";
}
);
layerId = "9B6556BE-0D60-403F-880A-9E0B7B019CCB";
paths = (
{
closed = 1;
nodes = (
"371.2 -9.6 OFFCURVE",
"435.8 43.9 OFFCURVE",
"463.3 140.9 CURVE",
"464.6 99.6 OFFCURVE",
"466.1 54.4 OFFCURVE",
"468.3 3.3 CURVE SMOOTH",
"468.6 -2.5 OFFCURVE",
"472.6 -6.6 OFFCURVE",
"478.1 -6.6 CURVE SMOOTH",
"483.5 -6.6 OFFCURVE",
"487.2 -2.5 OFFCURVE",
"486.9 3.5 CURVE SMOOTH",
"480.964 137.163 OFFCURVE",
"478.087 241.975 OFFCURVE",
"478.087 346.48 CURVE SMOOTH",
"478.087 453.232 OFFCURVE",
"481.089 559.663 OFFCURVE",
"486.9 696.2 CURVE SMOOTH",
"487.2 702.2 OFFCURVE",
"483.5 706.4 OFFCURVE",
"478.2 706.4 CURVE SMOOTH",
"472.7 706.4 OFFCURVE",
"468.6 702 OFFCURVE",
"468.3 695.7 CURVE SMOOTH",
"462.5 566.3 OFFCURVE",
"460 468.6 OFFCURVE",
"459.7 372.3 CURVE",
"428.9 459.6 OFFCURVE",
"362.3 510 OFFCURVE",
"277.8 510 CURVE SMOOTH",
"153.6 510 OFFCURVE",
"65.7 403.5 OFFCURVE",
"65.7 253.2 CURVE SMOOTH",
"65.7 99.5 OFFCURVE",
"155.4 -9.7 OFFCURVE",
"281.9 -9.6 CURVE SMOOTH"
);
},
{
closed = 1;
nodes = (
"167.1 7 OFFCURVE",
"85 109.2 OFFCURVE",
"85 252.2 CURVE SMOOTH",
"85 389.8 OFFCURVE",
"168.1 492.8 OFFCURVE",
"279.1 492.8 CURVE SMOOTH",
"386.5 492.8 OFFCURVE",
"460 395 OFFCURVE",
"460 252 CURVE SMOOTH",
"460 101.9 OFFCURVE",
"391 7 OFFCURVE",
"281.9 7 CURVE SMOOTH"
);
}
);
width = 570;
},
{
anchors = (
{
name = right;
position = "{640, 700}";
}
);
guideLines = (
{
position = "{0, 706}";
},
{
position = "{0, -6}";
}
);
layerId = "53D8B3CD-CAC4-43E9-8418-D21F673F49BB";
paths = (
{
closed = 1;
nodes = (
"336.3 -10.6 OFFCURVE",
"393.4 18.3 OFFCURVE",
"431.6 72.1 CURVE",
"432.2 66.9 OFFCURVE",
"432.8 61.7 OFFCURVE",
"433.4 56.6 CURVE SMOOTH",
"437.6 19.8 OFFCURVE",
"470.2 -5.6 OFFCURVE",
"513.1 -5.6 CURVE SMOOTH",
"563.1 -5.6 OFFCURVE",
"597 27.9 OFFCURVE",
"593.1 73.7 CURVE SMOOTH",
"586.646 149.232 OFFCURVE",
"583.441 230.232 OFFCURVE",
"583.441 312.856 CURVE SMOOTH",
"583.441 415.864 OFFCURVE",
"588.423 521.395 OFFCURVE",
"598.3 622 CURVE SMOOTH",
"602.9 669.6 OFFCURVE",
"568.1 705.9 OFFCURVE",
"518 705.9 CURVE SMOOTH",
"473.7 705.9 OFFCURVE",
"441.6 676.5 OFFCURVE",
"438.5 633 CURVE SMOOTH",
"433 554.9 OFFCURVE",
"429.2 492 OFFCURVE",
"426.6 435.4 CURVE",
"387.8 483.5 OFFCURVE",
"331.8 509.4 OFFCURVE",
"266.2 509.4 CURVE SMOOTH",
"132.7 509.4 OFFCURVE",
"35.4 400.6 OFFCURVE",
"35.4 251.4 CURVE SMOOTH",
"35.4 101.1 OFFCURVE",
"134.8 -10.6 OFFCURVE",
"268.4 -10.6 CURVE SMOOTH"
);
},
{
closed = 1;
nodes = (
"251.3 119.4 OFFCURVE",
"195.4 180.9 OFFCURVE",
"195.4 254.8 CURVE SMOOTH",
"195.4 325.7 OFFCURVE",
"246.4 379.4 OFFCURVE",
"313.9 379.4 CURVE SMOOTH",
"379.2 379.4 OFFCURVE",
"422.4 328.2 OFFCURVE",
"422.4 250.8 CURVE SMOOTH",
"422.4 172.3 OFFCURVE",
"380.5 119.4 OFFCURVE",
"318.5 119.4 CURVE SMOOTH"
);
}
);
width = 649;
},
{
anchors = (
{
name = right;
position = "{570, 700}";
}
);
layerId = "F9A96203-4E56-41C0-BC85-563659FEF099";
paths = (
{
closed = 1;
nodes = (
"336.1 -10 OFFCURVE",
"387.3 15.2 OFFCURVE",
"423.5 62.5 CURVE",
"424 50.6 OFFCURVE",
"424.5 38.8 OFFCURVE",
"425 27 CURVE SMOOTH",
"425.8 7.5 OFFCURVE",
"440 -6 OFFCURVE",
"459.7 -6 CURVE SMOOTH",
"481.2 -6 OFFCURVE",
"496.2 9.8 OFFCURVE",
"495 31 CURVE SMOOTH",
"488.662 143.497 OFFCURVE",
"485.837 244.988 OFFCURVE",
"485.837 338.029 CURVE SMOOTH",
"485.837 460.766 OFFCURVE",
"490.752 568.799 OFFCURVE",
"499 668 CURVE SMOOTH",
"500.8 690 OFFCURVE",
"486 706.4 OFFCURVE",
"464.2 706.4 CURVE SMOOTH",
"444.5 706.4 OFFCURVE",
"430 692.7 OFFCURVE",
"429 673 CURVE SMOOTH",
"425 595.2 OFFCURVE",
"422.2 518.5 OFFCURVE",
"420.6 442.8 CURVE",
"384.1 486.6 OFFCURVE",
"333.1 510 OFFCURVE",
"274 510 CURVE SMOOTH",
"147.3 510 OFFCURVE",
"55 401.2 OFFCURVE",
"55 252 CURVE SMOOTH",
"55 101.7 OFFCURVE",
"149.2 -10 OFFCURVE",
"276 -10 CURVE SMOOTH"
);
},
{
closed = 1;
nodes = (
"198.2 56 OFFCURVE",
"126 147.7 OFFCURVE",
"126 258 CURVE SMOOTH",
"126 363.9 OFFCURVE",
"191.9 444 OFFCURVE",
"279 444 CURVE SMOOTH",
"363.3 444 OFFCURVE",
"419 367.6 OFFCURVE",
"419 252 CURVE SMOOTH",
"419 135 OFFCURVE",
"365 56 OFFCURVE",
"285 56 CURVE SMOOTH"
);
}
);
width = 570;
}
);
unicode = 0064;
},
{
glyphname = s;
layers = (
{
anchors = (
{
name = bottom;
position = "{204, 0}";
},
{
name = top;
position = "{213, 530}";
}
);
layerId = "9B6556BE-0D60-403F-880A-9E0B7B019CCB";
paths = (
{
closed = 1;
nodes = (
"293.041 -10.343 OFFCURVE",
"358.146 48.044 OFFCURVE",
"358.146 129.295 CURVE SMOOTH",
"358.146 297.493 OFFCURVE",
"83.7 246.779 OFFCURVE",
"83.7 386.6 CURVE SMOOTH",
"83.7 448.77 OFFCURVE",
"136.16 491.177 OFFCURVE",
"213.069 491.177 CURVE SMOOTH",
"251.452 491.177 OFFCURVE",
"289.72 481.851 OFFCURVE",
"326.014 463.65 CURVE SMOOTH",
"332.664 460.315 OFFCURVE",
"340.349 464.664 OFFCURVE",
"340.349 471.76 CURVE SMOOTH",
"340.349 475.388 OFFCURVE",
"338.007 478.481 OFFCURVE",
"333.875 480.306 CURVE SMOOTH",
"293.237 498.265 OFFCURVE",
"251.758 507.657 OFFCURVE",
"213.079 507.657 CURVE SMOOTH",
"125.931 507.657 OFFCURVE",
"65.433 458.125 OFFCURVE",
"65.433 386.775 CURVE SMOOTH",
"65.433 230.551 OFFCURVE",
"338.783 280.852 OFFCURVE",
"338.783 130.622 CURVE SMOOTH",
"338.783 58.996 OFFCURVE",
"282.2 7.499 OFFCURVE",
"203.501 7.499 CURVE SMOOTH",
"158.381 7.499 OFFCURVE",
"112.968 25.731 OFFCURVE",
"72.115 60.245 CURVE SMOOTH",
"64.877 66.36 OFFCURVE",
"55.419 63.57 OFFCURVE",
"55.419 55.319 CURVE SMOOTH",
"55.419 52.429 OFFCURVE",
"56.847 49.548 OFFCURVE",
"59.482 47.12 CURVE SMOOTH",
"99.563 10.192 OFFCURVE",
"150.653 -10.343 OFFCURVE",
"202.443 -10.343 CURVE SMOOTH"
);
}
);
width = 414;
},
{
anchors = (
{
name = bottom;
position = "{220, 0}";
},
{
name = top;
position = "{229, 530}";
}
);
guideLines = (
{
position = "{0, 510}";
}
);
layerId = "53D8B3CD-CAC4-43E9-8418-D21F673F49BB";
paths = (
{
closed = 1;
nodes = (
"350.156 -9.565 OFFCURVE",
"430.607 50.953 OFFCURVE",
"430.607 147.444 CURVE SMOOTH",
"430.607 309.319 OFFCURVE",
"203.687 291.6 OFFCURVE",
"203.687 349.542 CURVE SMOOTH",
"203.687 367.896 OFFCURVE",
"221.617 379.577 OFFCURVE",
"249.789 379.577 CURVE SMOOTH",
"293.783 379.577 OFFCURVE",
"317.928 349.671 OFFCURVE",
"352.923 349.316 CURVE SMOOTH",
"390.708 348.932 OFFCURVE",
"420.416 377.359 OFFCURVE",
"420.416 413.898 CURVE SMOOTH",
"420.416 432.459 OFFCURVE",
"412.136 449.025 OFFCURVE",
"397.391 459.966 CURVE SMOOTH",
"353.168 492.782 OFFCURVE",
"297.572 510.688 OFFCURVE",
"239.908 510.688 CURVE SMOOTH",
"127.137 510.688 OFFCURVE",
"41.601 445.357 OFFCURVE",
"41.601 359.224 CURVE SMOOTH",
"41.601 202.641 OFFCURVE",
"268.521 218.612 OFFCURVE",
"268.521 150.368 CURVE SMOOTH",
"268.521 131.485 OFFCURVE",
"249.649 119.886 OFFCURVE",
"218.926 119.886 CURVE SMOOTH",
"158.772 119.886 OFFCURVE",
"146.907 163.826 OFFCURVE",
"91.325 163.826 CURVE SMOOTH",
"51.878 163.826 OFFCURVE",
"25.464 138.614 OFFCURVE",
"25.464 100.961 CURVE SMOOTH",
"25.464 82.931 OFFCURVE",
"32.068 65.854 OFFCURVE",
"44.927 50.634 CURVE SMOOTH",
"76.686 13.042 OFFCURVE",
"143.14 -9.565 OFFCURVE",
"221.884 -9.565 CURVE SMOOTH"
);
}
);
width = 456;
},
{
anchors = (
{
name = bottom;
position = "{207, 0}";
},
{
name = top;
position = "{215, 530}";
}
);
layerId = "F9A96203-4E56-41C0-BC85-563659FEF099";
paths = (
{
closed = 1;
nodes = (
"299.019 -10 OFFCURVE",
"369.019 57 OFFCURVE",
"369.019 147 CURVE SMOOTH",
"369.019 313 OFFCURVE",
"131.019 274 OFFCURVE",
"131.019 380 CURVE SMOOTH",
"131.019 419 OFFCURVE",
"163.019 444 OFFCURVE",
"216.019 444 CURVE SMOOTH",
"270.019 444 OFFCURVE",
"293.019 417 OFFCURVE",
"319.019 417 CURVE SMOOTH",
"339.562 417 OFFCURVE",
"352.694 433.195 OFFCURVE",
"352.694 449.856 CURVE SMOOTH",
"352.694 458.952 OFFCURVE",
"348.779 468.187 OFFCURVE",
"340.019 475 CURVE SMOOTH",
"313.019 496 OFFCURVE",
"261.019 510 OFFCURVE",
"215.019 510 CURVE SMOOTH",
"124.019 510 OFFCURVE",
"61.019 454 OFFCURVE",
"61.019 374 CURVE SMOOTH",
"61.019 215 OFFCURVE",
"299.019 259 OFFCURVE",
"299.019 143 CURVE SMOOTH",
"299.019 94 OFFCURVE",
"258.019 56 OFFCURVE",
"204.019 56 CURVE SMOOTH",
"172.019 56 OFFCURVE",
"143.019 69 OFFCURVE",
"107.019 101 CURVE SMOOTH",
"80.502 124.571 OFFCURVE",
"45.071 104.013 OFFCURVE",
"45.071 75.849 CURVE SMOOTH",
"45.071 66.299 OFFCURVE",
"49.144 55.875 OFFCURVE",
"59.019 46 CURVE SMOOTH",
"94.019 11 OFFCURVE",
"148.019 -10 OFFCURVE",
"202.019 -10 CURVE SMOOTH"
);
}
);
width = 415;
},
{
anchors = (
{
name = bottom;
position = "{204, 0}";
},
{
name = top;
position = "{213, 530}";
}
);
layerId = "9B6556BE-0D60-403F-880A-9E0B7B019CCB";
paths = (
{
closed = 1;
nodes = (
"293 -10.3 OFFCURVE",
"358.1 48 OFFCURVE",
"358.1 129.3 CURVE SMOOTH",
"358.1 297.5 OFFCURVE",
"83.7 246.8 OFFCURVE",
"83.7 386.6 CURVE SMOOTH",
"83.7 448.8 OFFCURVE",
"136.2 491.2 OFFCURVE",
"213.1 491.2 CURVE SMOOTH",
"251.5 491.2 OFFCURVE",
"289.7 481.9 OFFCURVE",
"326 463.6 CURVE SMOOTH",
"332.7 460.3 OFFCURVE",
"340.3 464.7 OFFCURVE",
"340.3 471.8 CURVE SMOOTH",
"340.3 475.4 OFFCURVE",
"338 478.5 OFFCURVE",
"333.9 480.3 CURVE SMOOTH",
"293.2 498.3 OFFCURVE",
"251.8 507.7 OFFCURVE",
"213.1 507.7 CURVE SMOOTH",
"125.9 507.7 OFFCURVE",
"65.4 458.1 OFFCURVE",
"65.4 386.8 CURVE SMOOTH",
"65.4 230.6 OFFCURVE",
"338.8 280.9 OFFCURVE",
"338.8 130.6 CURVE SMOOTH",
"338.8 59 OFFCURVE",
"282.2 7.5 OFFCURVE",
"203.5 7.5 CURVE SMOOTH",
"158.4 7.5 OFFCURVE",
"113 25.7 OFFCURVE",
"72.1 60.2 CURVE SMOOTH",
"64.9 66.4 OFFCURVE",
"55.4 63.6 OFFCURVE",
"55.4 55.3 CURVE SMOOTH",
"55.4 52.4 OFFCURVE",
"56.8 49.5 OFFCURVE",
"59.5 47.1 CURVE SMOOTH",
"99.6 10.2 OFFCURVE",
"150.7 -10.3 OFFCURVE",
"202.4 -10.3 CURVE SMOOTH"
);
}
);
width = 414;
},
{
anchors = (
{
name = bottom;
position = "{220, 0}";
},
{
name = top;
position = "{229, 530}";
}
);
guideLines = (
{
position = "{0, 510}";
}
);
layerId = "53D8B3CD-CAC4-43E9-8418-D21F673F49BB";
paths = (
{
closed = 1;
nodes = (
"350.2 -9.6 OFFCURVE",
"430.6 51 OFFCURVE",
"430.6 147.4 CURVE SMOOTH",
"430.6 309.3 OFFCURVE",
"203.7 291.6 OFFCURVE",
"203.7 349.5 CURVE SMOOTH",
"203.7 367.9 OFFCURVE",
"221.6 379.6 OFFCURVE",
"249.8 379.6 CURVE SMOOTH",
"293.8 379.6 OFFCURVE",
"317.9 349.7 OFFCURVE",
"352.9 349.3 CURVE SMOOTH",
"390.7 348.9 OFFCURVE",
"420.4 377.4 OFFCURVE",
"420.4 413.9 CURVE SMOOTH",
"420.4 432.5 OFFCURVE",
"412.1 449 OFFCURVE",
"397.4 460 CURVE SMOOTH",
"353.2 492.8 OFFCURVE",
"297.6 510.7 OFFCURVE",
"239.9 510.7 CURVE SMOOTH",
"127.1 510.7 OFFCURVE",
"41.6 445.4 OFFCURVE",
"41.6 359.2 CURVE SMOOTH",
"41.6 202.6 OFFCURVE",
"268.5 218.6 OFFCURVE",
"268.5 150.4 CURVE SMOOTH",
"268.5 131.5 OFFCURVE",
"249.6 119.9 OFFCURVE",
"218.9 119.9 CURVE SMOOTH",
"158.8 119.9 OFFCURVE",
"146.9 163.8 OFFCURVE",
"91.3 163.8 CURVE SMOOTH",
"51.9 163.8 OFFCURVE",
"25.5 138.6 OFFCURVE",
"25.5 101 CURVE SMOOTH",
"25.5 14.144 OFFCURVE",
"157.4 -9.6 OFFCURVE",
"221.9 -9.6 CURVE SMOOTH"
);
}
);
width = 456;
},
{
anchors = (
{
name = bottom;
position = "{207, 0}";
},
{
name = top;
position = "{215, 530}";
}
);
layerId = "F9A96203-4E56-41C0-BC85-563659FEF099";
paths = (
{
closed = 1;
nodes = (
"299 -10 OFFCURVE",
"369 57 OFFCURVE",
"369 147 CURVE SMOOTH",
"369 313 OFFCURVE",
"131 274 OFFCURVE",
"131 380 CURVE SMOOTH",
"131 419 OFFCURVE",
"163 444 OFFCURVE",
"216 444 CURVE SMOOTH",
"270 444 OFFCURVE",
"293 417 OFFCURVE",
"319 417 CURVE SMOOTH",
"339.6 417 OFFCURVE",
"352.7 433.2 OFFCURVE",
"352.7 449.9 CURVE SMOOTH",
"352.7 495.667 OFFCURVE",
"246.469 510 OFFCURVE",
"215 510 CURVE SMOOTH",
"124 510 OFFCURVE",
"61 454 OFFCURVE",
"61 374 CURVE SMOOTH",
"61 215 OFFCURVE",
"299 259 OFFCURVE",
"299 143 CURVE SMOOTH",
"299 94 OFFCURVE",
"258 56 OFFCURVE",
"204 56 CURVE SMOOTH",
"172 56 OFFCURVE",
"143 69 OFFCURVE",
"107 101 CURVE SMOOTH",
"98.9 108.213 OFFCURVE",
"89.969 111.297 OFFCURVE",
"81.472 111.297 CURVE SMOOTH",
"62.167 111.297 OFFCURVE",
"45.1 95.381 OFFCURVE",
"45.1 75.8 CURVE SMOOTH",
"45.1 66.3 OFFCURVE",
"49.1 55.9 OFFCURVE",
"59 46 CURVE SMOOTH",
"94 11 OFFCURVE",
"148 -10 OFFCURVE",
"202 -10 CURVE SMOOTH"
);
}
);
width = 415;
}
);
leftKerningGroup = s;
rightKerningGroup = s1;
unicode = 0073;
},
{
glyphname = n;
layers = (
{
anchors = (
{
name = bottom;
position = "{284, 0}";
},
{
name = right;
position = "{-30, 700}";
},
{
name = top;
position = "{284, 530}";
}
);
layerId = "9B6556BE-0D60-403F-880A-9E0B7B019CCB";
paths = (
{
closed = 1;
nodes = (
"104.3 105.6 OFFCURVE",
"106.1 212.3 OFFCURVE",
"104.5 321.2 CURVE",
"140.9 433.5 OFFCURVE",
"206.6 492.8 OFFCURVE",
"294.7 492.8 CURVE SMOOTH",
"409.4 492.8 OFFCURVE",
"472.6 399.7 OFFCURVE",
"472.6 231.1 CURVE SMOOTH",
"472.6 164.1 OFFCURVE",
"466 79.5 OFFCURVE",
"454.3 6.5 CURVE SMOOTH",
"453.1 -1.1 OFFCURVE",
"456.5 -7 OFFCURVE",
"462.1 -7 CURVE SMOOTH",
"467.3 -7 OFFCURVE",
"471.6 -1.5 OFFCURVE",
"472.7 6.8 CURVE SMOOTH",
"486.2 110.8 OFFCURVE",
"491.4 170.9 OFFCURVE",
"491.4 224.4 CURVE SMOOTH",
"491.4 409.7 OFFCURVE",
"423 510.1 OFFCURVE",
"296.7 510.1 CURVE SMOOTH",
"206.6 510.1 OFFCURVE",
"139.7 460.7 OFFCURVE",
"103.6 367.5 CURVE",
"102.6 410.6 OFFCURVE",
"101 453.4 OFFCURVE",
"99 495.5 CURVE SMOOTH",
"98.7 501.2 OFFCURVE",
"95.2 505.1 OFFCURVE",
"90.3 505.1 CURVE SMOOTH",
"84.5 505.1 OFFCURVE",
"80.5 499.9 OFFCURVE",
"80.9 493 CURVE SMOOTH",
"84.774 426.397 OFFCURVE",
"86.625 357.87 OFFCURVE",
"86.625 279.761 CURVE SMOOTH",
"86.625 200.604 OFFCURVE",
"84.724 111.607 OFFCURVE",
"81.1 4.8 CURVE SMOOTH",
"80.8 -1.2 OFFCURVE",
"84.7 -5.8 OFFCURVE",
"90 -5.8 CURVE SMOOTH",
"95 -5.8 OFFCURVE",
"98.6 -1.6 OFFCURVE",
"98.9 4.8 CURVE SMOOTH"
);
}
);
width = 557;
},
{
anchors = (
{
name = bottom;
position = "{303, 0}";
},
{
name = right;
position = "{-130, 700}";
},
{
name = top;
position = "{316, 530}";
}
);
guideLines = (
{
position = "{0, -6}";
},
{
position = "{0, 506}";
}
);
layerId = "53D8B3CD-CAC4-43E9-8418-D21F673F49BB";
paths = (
{
closed = 1;
nodes = (
"225.3 123.7 OFFCURVE",
"227.5 221.6 OFFCURVE",
"222.2 319.8 CURVE",
"244.3 359.5 OFFCURVE",
"272.4 379.6 OFFCURVE",
"305.4 379.6 CURVE SMOOTH",
"363.1 379.6 OFFCURVE",
"403.1 304.1 OFFCURVE",
"403.1 195 CURVE SMOOTH",
"403.1 159 OFFCURVE",
"398.6 121.3 OFFCURVE",
"390 84 CURVE SMOOTH",
"378.6 34.5 OFFCURVE",
"413.8 -6.3 OFFCURVE",
"467.8 -6.3 CURVE SMOOTH",
"509.2 -6.3 OFFCURVE",
"541.1 19.5 OFFCURVE",
"549.3 59.5 CURVE SMOOTH",
"559.6 109.6 OFFCURVE",
"564.8 158.4 OFFCURVE",
"564.8 204.7 CURVE SMOOTH",
"564.8 388.9 OFFCURVE",
"483.6 510.3 OFFCURVE",
"360.4 510.3 CURVE SMOOTH",
"299.9 510.3 OFFCURVE",
"249 485 OFFCURVE",
"211.7 436.5 CURVE",
"206.264 481.351 OFFCURVE",
"179.11 505.8 OFFCURVE",
"132.5 505.8 CURVE SMOOTH",
"80.8 505.8 OFFCURVE",
"45.4 471.4 OFFCURVE",
"51.4 427 CURVE SMOOTH",
"60.049 363.653 OFFCURVE",
"64.463 291.325 OFFCURVE",
"64.463 220.452 CURVE SMOOTH",
"64.463 170.047 OFFCURVE",
"62.23 120.378 OFFCURVE",
"57.7 75.2 CURVE SMOOTH",
"53.3 30.2 OFFCURVE",
"89.3 -5.8 OFFCURVE",
"138.9 -5.8 CURVE SMOOTH",
"180.2 -5.8 OFFCURVE",
"210.5 20.3 OFFCURVE",
"216.3 60.7 CURVE SMOOTH"
);
}
);
width = 605;
},
{
anchors = (
{
name = bottom;
position = "{284, 0}";
},
{
name = right;
position = "{-60, 700}";
},
{
name = top;
position = "{284, 530}";
}
);
layerId = "F9A96203-4E56-41C0-BC85-563659FEF099";
paths = (
{
closed = 1;
nodes = (
"146.6 118.3 OFFCURVE",
"148.8 210.8 OFFCURVE",
"147.4 303.9 CURVE",
"176.1 397.1 OFFCURVE",
"224.6 444 OFFCURVE",
"292 444 CURVE SMOOTH",
"377 444 OFFCURVE",
"426 366.9 OFFCURVE",
"426 233 CURVE SMOOTH",
"426 177.3 OFFCURVE",
"419.9 102.9 OFFCURVE",
"409 35 CURVE SMOOTH",
"405.3 11.9 OFFCURVE",
"420.5 -6.6 OFFCURVE",
"443.1 -6.6 CURVE SMOOTH",
"462.1 -6.6 OFFCURVE",
"476.3 7.1 OFFCURVE",
"479 28 CURVE SMOOTH",
"492.4 130.6 OFFCURVE",
"497 181.7 OFFCURVE",
"497 227 CURVE SMOOTH",
"497 410.1 OFFCURVE",
"426.4 510 OFFCURVE",
"297 510 CURVE SMOOTH",
"230.1 510 OFFCURVE",
"180.2 482.7 OFFCURVE",
"143.5 425.9 CURVE",
"142.8 441.3 OFFCURVE",
"141.9 456.7 OFFCURVE",
"141 472 CURVE",
"140.2 492.4 OFFCURVE",
"126.1 506.3 OFFCURVE",
"106.5 506.3 CURVE SMOOTH",
"84.9 506.3 OFFCURVE",
"69.6 489.9 OFFCURVE",
"71 468 CURVE SMOOTH",
"75.832 390.737 OFFCURVE",
"78.18 313.448 OFFCURVE",
"78.18 237.518 CURVE SMOOTH",
"78.18 165.741 OFFCURVE",
"76.082 95.178 OFFCURVE",
"72 27 CURVE SMOOTH",
"70.9 8.4 OFFCURVE",
"85.7 -5.9 OFFCURVE",
"106 -5.9 CURVE SMOOTH",
"125.7 -5.9 OFFCURVE",
"139.7 7.7 OFFCURVE",
"141 28 CURVE SMOOTH"
);
}
);
width = 557;
}
);
leftKerningGroup = n;
rightKerningGroup = n1;
unicode = 006E;
},
{
glyphname = u;
layers = (
{
anchors = (
{
name = bottom;
position = "{468, 0}";
},
{
name = top;
position = "{280, 530}";
}
);
layerId = "9B6556BE-0D60-403F-880A-9E0B7B019CCB";
paths = (
{
closed = 1;
nodes = (
"476.125 74.418 OFFCURVE",
"474. 146.883 OFFCURVE",
"474. 227.353 CURVE SMOOTH",
"474. 306.87 OFFCURVE",
"476.075 394.205 OFFCURVE",
"480.2 495.3 CURVE SMOOTH",
"480.5 502.1 OFFCURVE",
"475.9 505.9 OFFCURVE",
"471.3 505.9 CURVE SMOOTH",
"467 505.9 OFFCURVE",
"462.7 502.6 OFFCURVE",
"462.3 495.3 CURVE SMOOTH",
"457 393.3 OFFCURVE",
"455.2 286.8 OFFCURVE",
"456.9 179.1 CURVE",
"420.3 66.3 OFFCURVE",
"354.3 7.3 OFFCURVE",
"264.5 7.3 CURVE SMOOTH",
"152.4 7.3 OFFCURVE",
"88.6 104 OFFCURVE",
"88.6 274 CURVE SMOOTH",
"88.6 341 OFFCURVE",
"95.1 423.2 OFFCURVE",
"106.5 493.9 CURVE SMOOTH",
"107.8 501.5 OFFCURVE",
"103 506 OFFCURVE",
"97.9 506 CURVE SMOOTH",
"93.8 506 OFFCURVE",
"89.6 503 OFFCURVE",
"88.5 496.1 CURVE SMOOTH",
"76.6 417.7 OFFCURVE",
"70.5 343 OFFCURVE",
"70.5 284.9 CURVE SMOOTH",
"70.5 92.1 OFFCURVE",
"138 -10 OFFCURVE",
"265.5 -10 CURVE SMOOTH",
"355.8 -10 OFFCURVE",
"422 39.4 OFFCURVE",
"457.7 132.3 CURVE",
"458.7 90.9 OFFCURVE",
"460.3 44.3 OFFCURVE",
"462.3 2.8 CURVE SMOOTH",
"462.6 -3 OFFCURVE",
"466.9 -5.8 OFFCURVE",
"471.2 -5.8 CURVE SMOOTH",
"476 -5.8 OFFCURVE",
"480.3 -2.1 OFFCURVE",
"480.4 3.8 CURVE"
);
}
);
width = 554;
},
{
anchors = (
{
name = bottom;
position = "{456, 0}";
},
{
name = top;
position = "{298, 530}";
}
);
guideLines = (
{
position = "{0, -6}";
}
);
layerId = "53D8B3CD-CAC4-43E9-8418-D21F673F49BB";
paths = (
{
closed = 1;
nodes = (
"547.15 144.468 OFFCURVE",
"543.656 213.074 OFFCURVE",
"543.656 284.49 CURVE SMOOTH",
"543.656 331.69 OFFCURVE",
"545.182 380.117 OFFCURVE",
"549.4 433.2 CURVE SMOOTH",
"552.7 474.4 OFFCURVE",
"518.9 506.4 OFFCURVE",
"472 506.4 CURVE SMOOTH",
"431.2 506.4 OFFCURVE",
"401 481.2 OFFCURVE",
"395.8 442.8 CURVE SMOOTH",
"387.4 381.4 OFFCURVE",
"382.8 286.9 OFFCURVE",
"383.4 183.8 CURVE",
"361 141.9 OFFCURVE",
"332.2 120.4 OFFCURVE",
"298.3 120.4 CURVE SMOOTH",
"238 120.4 OFFCURVE",
"200.9 188.8 OFFCURVE",
"200.9 299.8 CURVE SMOOTH",
"200.9 338 OFFCURVE",
"205.3 375.4 OFFCURVE",
"214.6 415.6 CURVE SMOOTH",
"226 465.1 OFFCURVE",
"190.8 505.9 OFFCURVE",
"136.7 505.9 CURVE SMOOTH",
"95.3 505.9 OFFCURVE",
"63.5 480.2 OFFCURVE",
"55.3 440.1 CURVE SMOOTH",
"44.8 389 OFFCURVE",
"40.3 341.7 OFFCURVE",
"40.3 283.3 CURVE SMOOTH",
"40.3 101.9 OFFCURVE",
"117.8 -10.2 OFFCURVE",
"243.3 -10.2 CURVE SMOOTH",
"303.1 -10.2 OFFCURVE",
"353.8 14.6 OFFCURVE",
"390.9 62.2 CURVE",
"400.757 23.167 OFFCURVE",
"431.189 -5.1 OFFCURVE",
"473.1 -5.1 CURVE SMOOTH",
"517.9 -5.1 OFFCURVE",
"551.6 26.4 OFFCURVE",
"550.1 66.8 CURVE SMOOTH"
);
}
);
width = 601;
},
{
anchors = (
{
name = bottom;
position = "{441, 0}";
},
{
name = top;
position = "{282, 530}";
}
);
layerId = "F9A96203-4E56-41C0-BC85-563659FEF099";
paths = (
{
closed = 1;
nodes = (
"479.13 112.641 OFFCURVE",
"476.833 189.85 OFFCURVE",
"476.833 265.592 CURVE SMOOTH",
"476.833 337.533 OFFCURVE",
"478.906 408.15 OFFCURVE",
"482.9 476.3 CURVE SMOOTH",
"484 495 OFFCURVE",
"469.1 509.3 OFFCURVE",
"448.6 509.3 CURVE SMOOTH",
"429 509.3 OFFCURVE",
"415.2 495.8 OFFCURVE",
"413.9 475.3 CURVE SMOOTH",
"408 382.4 OFFCURVE",
"405.7 289.8 OFFCURVE",
"407.3 198.8 CURVE",
"378.5 106 OFFCURVE",
"330.2 59.3 OFFCURVE",
"262.9 59.3 CURVE SMOOTH",
"177.9 59.3 OFFCURVE",
"128.9 136.4 OFFCURVE",
"128.9 270.3 CURVE SMOOTH",
"128.9 326.1 OFFCURVE",
"135 400.4 OFFCURVE",
"145.9 468.3 CURVE SMOOTH",
"149.6 491.4 OFFCURVE",
"135.2 510 OFFCURVE",
"113.5 510 CURVE SMOOTH",
"95.3 510 OFFCURVE",
"81.6 496.3 OFFCURVE",
"78.9 475.3 CURVE SMOOTH",
"65.5 372.8 OFFCURVE",
"60.9 321.7 OFFCURVE",
"60.9 276.3 CURVE SMOOTH",
"60.9 91.9 OFFCURVE",
"129.5 -6.7 OFFCURVE",
"257.9 -6.7 CURVE SMOOTH",
"324.7 -6.7 OFFCURVE",
"374.6 20.7 OFFCURVE",
"411.4 77.4 CURVE",
"411.4 51.318 OFFCURVE",
"413.314 -2.9 OFFCURVE",
"448.5 -2.9 CURVE SMOOTH",
"470.1 -2.9 OFFCURVE",
"485.3 13.5 OFFCURVE",
"483.9 35.3 CURVE SMOOTH"
);
}
);
width = 554;
}
);
leftKerningGroup = u;
rightKerningGroup = u1;
unicode = 0075;
},
{
glyphname = m;
layers = (
{
layerId = "9B6556BE-0D60-403F-880A-9E0B7B019CCB";
paths = (
{
closed = 1;
nodes = (
"792.1 100.515 OFFCURVE",
"799.061 190.174 OFFCURVE",
"798.1 264.4 CURVE SMOOTH",
"796 426.554 OFFCURVE",
"734.947 511.1 OFFCURVE",
"619.95 511.1 CURVE SMOOTH",
"543.898 511.1 OFFCURVE",
"478.297 474.011 OFFCURVE",
"432.363 405.044 CURVE",
"404.564 475.328 OFFCURVE",
"352.347 511.1 OFFCURVE",
"277.55 511.1 CURVE SMOOTH",
"208.239 511.1 OFFCURVE",
"147.532 480.352 OFFCURVE",
"102.451 422.412 CURVE",
"101.473 446.226 OFFCURVE",
"100.28 469.882 OFFCURVE",
"99 493.25 CURVE SMOOTH",
"98.676 499.169 OFFCURVE",
"95.253 503.042 OFFCURVE",
"90.347 503.042 CURVE SMOOTH",
"84.736 503.042 OFFCURVE",
"80.53 498.187 OFFCURVE",
"80.9 492.1 CURVE SMOOTH",
"91.301 321.141 OFFCURVE",
"91.588 160.383 OFFCURVE",
"81.35 6.25 CURVE SMOOTH",
"80.938 0.051 OFFCURVE",
"84.661 -4.603 OFFCURVE",
"90.031 -4.603 CURVE SMOOTH",
"94.899 -4.603 OFFCURVE",
"98.511 -0.675 OFFCURVE",
"98.95 5.1 CURVE SMOOTH",
"106.906 109.693 OFFCURVE",
"108.559 249.514 OFFCURVE",
"103.541 393.372 CURVE",
"149.23 459.173 OFFCURVE",
"208.826 493.75 OFFCURVE",
"276.55 493.75 CURVE SMOOTH",
"379.388 493.75 OFFCURVE",
"435.445 413.868 OFFCURVE",
"437.4 264.35 CURVE SMOOTH",
"438.454 183.737 OFFCURVE",
"431.503 92.061 OFFCURVE",
"417.75 7.3 CURVE SMOOTH",
"416.615 0.304 OFFCURVE",
"420.393 -4.816 OFFCURVE",
"426.692 -4.816 CURVE SMOOTH",
"431.525 -4.816 OFFCURVE",
"435.36 -1.648 OFFCURVE",
"436 2.85 CURVE SMOOTH",
"449.898 100.487 OFFCURVE",
"456.661 190.174 OFFCURVE",
"455.7 264.4 CURVE SMOOTH",
"455.104 310.443 OFFCURVE",
"449.738 350.4 OFFCURVE",
"439.643 383.966 CURVE",
"486.004 455.817 OFFCURVE",
"547.976 493.75 OFFCURVE",
"619 493.75 CURVE SMOOTH",
"721.797 493.75 OFFCURVE",
"777.752 413.854 OFFCURVE",
"779.8 264.35 CURVE SMOOTH",
"780.9 184.016 OFFCURVE",
"773.95 92.355 OFFCURVE",
"760.15 7.3 CURVE SMOOTH",
"759.015 0.304 OFFCURVE",
"762.793 -4.816 OFFCURVE",
"769.092 -4.816 CURVE SMOOTH",
"773.925 -4.816 OFFCURVE",
"777.769 -1.65 OFFCURVE",
"778.4 2.85 CURVE SMOOTH"
);
}
);
width = 869;
},
{
guideLines = (
{
position = "{0, 440}";
},
{
position = "{0, -6}";
}
);
layerId = "53D8B3CD-CAC4-43E9-8418-D21F673F49BB";
paths = (
{
closed = 1;
nodes = (
"860.742 108.983 OFFCURVE",
"864.95 155.265 OFFCURVE",
"864.95 216.75 CURVE SMOOTH",
"864.95 398.234 OFFCURVE",
"780.562 510.3 OFFCURVE",
"643.9 510.3 CURVE SMOOTH",
"578.997 510.3 OFFCURVE",
"524.036 485.595 OFFCURVE",
"483.884 438.374 CURVE",
"450.16 485.59 OFFCURVE",
"403.168 510.3 OFFCURVE",
"347.1 510.3 CURVE SMOOTH",
"293.247 510.3 OFFCURVE",
"247.139 488.051 OFFCURVE",
"212.33 445.267 CURVE",
"212.33 449.277 OFFCURVE",
"211.924 453.149 OFFCURVE",
"211.114 456.864 CURVE SMOOTH",
"205.146 484.242 OFFCURVE",
"176.131 502.544 OFFCURVE",
"138.694 502.544 CURVE SMOOTH",
"86.378 502.544 OFFCURVE",
"49.725 468.897 OFFCURVE",
"51.961 422.925 CURVE SMOOTH",
"57.828 302.295 OFFCURVE",
"63.54 199.049 OFFCURVE",
"51.19 65.799 CURVE",
"47.891 25.283 OFFCURVE",
"81.128 -6.249 OFFCURVE",
"127.134 -6.249 CURVE SMOOTH",
"168.973 -6.249 OFFCURVE",
"200.062 20.662 OFFCURVE",
"205.69 61.749 CURVE SMOOTH",
"213.65 119.861 OFFCURVE",
"217.973 217.966 OFFCURVE",
"217.142 321.63 CURVE",
"237.09 360.08 OFFCURVE",
"262.17 379.65 OFFCURVE",
"291.5 379.65 CURVE SMOOTH",
"346.1 379.65 OFFCURVE",
"379.75 311.301 OFFCURVE",
"379.75 200.4 CURVE SMOOTH",
"379.75 159.382 OFFCURVE",
"375.472 120.555 OFFCURVE",
"366.846 83.273 CURVE SMOOTH",
"355.411 33.849 OFFCURVE",
"390.648 -7.001 OFFCURVE",
"444.716 -7.001 CURVE SMOOTH",
"486.099 -7.001 OFFCURVE",
"517.947 18.723 OFFCURVE",
"526.146 58.773 CURVE SMOOTH",
"536.106 107.422 OFFCURVE",
"540.35 154.622 OFFCURVE",
"540.35 216.75 CURVE SMOOTH",
"540.35 247.956 OFFCURVE",
"538.162 277.429 OFFCURVE",
"533.813 304.828 CURVE",
"554.856 354.33 OFFCURVE",
"582.702 379.65 OFFCURVE",
"616.1 379.65 CURVE SMOOTH",
"670.684 379.65 OFFCURVE",
"704.3 311.332 OFFCURVE",
"704.3 200.4 CURVE SMOOTH",
"704.3 159.765 OFFCURVE",
"700.1 122.027 OFFCURVE",
"691.386 84.364 CURVE SMOOTH",
"679.95 34.94 OFFCURVE",
"715.188 -5.91 OFFCURVE",
"769.255 -5.91 CURVE SMOOTH",
"810.639 -5.91 OFFCURVE",
"842.486 19.814 OFFCURVE",
"850.686 59.864 CURVE SMOOTH"
);
}
);
width = 905;
},
{
layerId = "F9A96203-4E56-41C0-BC85-563659FEF099";
paths = (
{
closed = 1;
nodes = (
"772 103 OFFCURVE",
"778 175 OFFCURVE",
"778 234 CURVE SMOOTH",
"778 419.85 OFFCURVE",
"717 510 OFFCURVE",
"593.25 510 CURVE SMOOTH",
"527.587 510 OFFCURVE",
"476.335 484.444 OFFCURVE",
"430.019 427.738 CURVE",
"399.604 482.884 OFFCURVE",
"350.596 510 OFFCURVE",
"282.7 510 CURVE SMOOTH",
"227.542 510 OFFCURVE",
"182.554 491.94 OFFCURVE",
"142.084 452.515 CURVE",
"141.731 459.018 OFFCURVE",
"141.369 465.513 OFFCURVE",
"141 472 CURVE SMOOTH",
"139.666 495.623 OFFCURVE",
"123.554 506.354 OFFCURVE",
"107.114 506.354 CURVE SMOOTH",
"88.444 506.354 OFFCURVE",
"69.352 492.514 OFFCURVE",
"71 468 CURVE SMOOTH",
"80.85 322.35 OFFCURVE",
"81.25 170.6 OFFCURVE",
"71.35 29.85 CURVE SMOOTH",
"69.682 6.116 OFFCURVE",
"86.988 -6.149 OFFCURVE",
"104.78 -6.149 CURVE SMOOTH",
"121.66 -6.149 OFFCURVE",
"138.978 4.89 OFFCURVE",
"140.95 27.65 CURVE SMOOTH",
"150.56 139.481 OFFCURVE",
"150.435 251.735 OFFCURVE",
"146.269 362.408 CURVE",
"177.979 416.887 OFFCURVE",
"220.288 444 OFFCURVE",
"273.45 444 CURVE SMOOTH",
"354.55 444 OFFCURVE",
"399.05 379.6 OFFCURVE",
"399.05 262.25 CURVE SMOOTH",
"399.05 202 OFFCURVE",
"395.55 126.5 OFFCURVE",
"380.5 35 CURVE SMOOTH",
"376.009 7.752 OFFCURVE",
"394.961 -5.98 OFFCURVE",
"414.195 -5.98 CURVE SMOOTH",
"430.291 -5.98 OFFCURVE",
"446.584 3.637 OFFCURVE",
"449.5 23 CURVE SMOOTH",
"461.5 103 OFFCURVE",
"467.5 175 OFFCURVE",
"467.5 234 CURVE SMOOTH",
"467.5 282.262 OFFCURVE",
"463.37 324.068 OFFCURVE",
"455.112 359.52 CURVE",
"487 415.929 OFFCURVE",
"529.857 444 OFFCURVE",
"583.95 444 CURVE SMOOTH",
"665.05 444 OFFCURVE",
"709.55 379.6 OFFCURVE",
"709.55 262.25 CURVE SMOOTH",
"709.55 202 OFFCURVE",
"706.05 126.5 OFFCURVE",
"691 35 CURVE SMOOTH",
"686.509 7.752 OFFCURVE",
"705.461 -5.98 OFFCURVE",
"724.695 -5.98 CURVE SMOOTH",
"740.791 -5.98 OFFCURVE",
"757.084 3.637 OFFCURVE",
"760 23 CURVE SMOOTH"
);
}
);
width = 838;
},
{
layerId = "9B6556BE-0D60-403F-880A-9E0B7B019CCB";
paths = (
{
closed = 1;
nodes = (
"792.1 100.5 OFFCURVE",
"799.1 190.2 OFFCURVE",
"798.1 264.4 CURVE SMOOTH",
"796 426.6 OFFCURVE",
"734.9 511.1 OFFCURVE",
"620 511.1 CURVE SMOOTH",
"543.9 511.1 OFFCURVE",
"478.3 474 OFFCURVE",
"432.4 405 CURVE",
"404.6 475.3 OFFCURVE",
"352.3 511.1 OFFCURVE",
"277.6 511.1 CURVE SMOOTH",
"208.2 511.1 OFFCURVE",
"147.5 480.4 OFFCURVE",
"102.5 422.4 CURVE",
"101.5 446.2 OFFCURVE",
"100.3 469.9 OFFCURVE",
"99 493.3 CURVE SMOOTH",
"98.7 499.2 OFFCURVE",
"95.3 503 OFFCURVE",
"90.3 503 CURVE SMOOTH",
"84.7 503 OFFCURVE",
"80.5 498.2 OFFCURVE",
"80.9 492.1 CURVE SMOOTH",
"86.188 405.155 OFFCURVE",
"88.865 320.872 OFFCURVE",
"88.865 238.766 CURVE SMOOTH",
"88.865 159.39 OFFCURVE",
"86.363 82.047 OFFCURVE",
"81.3 6.3 CURVE SMOOTH",
"80.9 0.1 OFFCURVE",
"84.7 -4.6 OFFCURVE",
"90 -4.6 CURVE SMOOTH",
"94.9 -4.6 OFFCURVE",
"98.5 -0.7 OFFCURVE",
"98.9 5.1 CURVE SMOOTH",
"106.9 109.7 OFFCURVE",
"108.6 249.5 OFFCURVE",
"103.5 393.4 CURVE",
"149.2 459.2 OFFCURVE",
"208.8 493.8 OFFCURVE",
"276.5 493.8 CURVE SMOOTH",
"379.4 493.8 OFFCURVE",
"435.4 413.9 OFFCURVE",
"437.4 264.4 CURVE SMOOTH",
"438.5 183.7 OFFCURVE",
"431.5 92.1 OFFCURVE",
"417.7 7.3 CURVE SMOOTH",
"416.6 0.3 OFFCURVE",
"420.4 -4.8 OFFCURVE",
"426.7 -4.8 CURVE SMOOTH",
"431.5 -4.8 OFFCURVE",
"435.4 -1.6 OFFCURVE",
"436 2.9 CURVE SMOOTH",
"449.9 100.5 OFFCURVE",
"456.7 190.2 OFFCURVE",
"455.7 264.4 CURVE SMOOTH",
"455.1 310.4 OFFCURVE",
"449.7 350.4 OFFCURVE",
"439.6 384 CURVE",
"486 455.8 OFFCURVE",
"548 493.8 OFFCURVE",
"619 493.8 CURVE SMOOTH",
"721.8 493.8 OFFCURVE",
"777.8 413.9 OFFCURVE",
"779.8 264.4 CURVE SMOOTH",
"780.9 184 OFFCURVE",
"774 92.4 OFFCURVE",
"760.2 7.3 CURVE SMOOTH",
"759 0.3 OFFCURVE",
"762.8 -4.8 OFFCURVE",
"769.1 -4.8 CURVE SMOOTH",
"773.9 -4.8 OFFCURVE",
"777.8 -1.6 OFFCURVE",
"778.4 2.8 CURVE SMOOTH"
);
}
);
width = 869;
},
{
guideLines = (
{
position = "{0, 440}";
},
{
position = "{0, -6}";
}
);
layerId = "53D8B3CD-CAC4-43E9-8418-D21F673F49BB";
paths = (
{
closed = 1;
nodes = (
"860.7 109 OFFCURVE",
"864.9 155.3 OFFCURVE",
"864.9 216.8 CURVE SMOOTH",
"864.9 398.2 OFFCURVE",
"780.6 510.3 OFFCURVE",
"643.9 510.3 CURVE SMOOTH",
"579 510.3 OFFCURVE",
"524 485.6 OFFCURVE",
"483.9 438.4 CURVE",
"450.2 485.6 OFFCURVE",
"403.2 510.3 OFFCURVE",
"347.1 510.3 CURVE SMOOTH",
"293.2 510.3 OFFCURVE",
"247.1 488.1 OFFCURVE",
"212.3 445.3 CURVE",
"212.3 484.645 OFFCURVE",
"173.683 502.5 OFFCURVE",
"138.7 502.5 CURVE SMOOTH",
"86.4 502.5 OFFCURVE",
"49.7 468.9 OFFCURVE",
"52 422.9 CURVE SMOOTH",
"55.269 354.921 OFFCURVE",
"58.507 292.439 OFFCURVE",
"58.507 227.001 CURVE SMOOTH",
"58.507 176.346 OFFCURVE",
"56.567 123.919 OFFCURVE",
"51.2 65.8 CURVE SMOOTH",
"47.9 25.3 OFFCURVE",
"81.1 -6.2 OFFCURVE",
"127.1 -6.2 CURVE SMOOTH",
"169 -6.2 OFFCURVE",
"200.1 20.7 OFFCURVE",
"205.7 61.7 CURVE SMOOTH",
"213.6 119.9 OFFCURVE",
"218 218 OFFCURVE",
"217.1 321.6 CURVE",
"237.1 360.1 OFFCURVE",
"262.2 379.6 OFFCURVE",
"291.5 379.6 CURVE SMOOTH",
"346.1 379.6 OFFCURVE",
"379.7 311.3 OFFCURVE",
"379.7 200.4 CURVE SMOOTH",
"379.7 159.4 OFFCURVE",
"375.5 120.6 OFFCURVE",
"366.8 83.3 CURVE SMOOTH",
"355.4 33.8 OFFCURVE",
"390.6 -7 OFFCURVE",
"444.7 -7 CURVE SMOOTH",
"486.1 -7 OFFCURVE",
"517.9 18.7 OFFCURVE",
"526.1 58.8 CURVE SMOOTH",
"536.1 107.4 OFFCURVE",
"540.3 154.6 OFFCURVE",
"540.3 216.8 CURVE SMOOTH",
"540.3 248 OFFCURVE",
"538.2 277.4 OFFCURVE",
"533.8 304.8 CURVE",
"554.9 354.3 OFFCURVE",
"582.7 379.6 OFFCURVE",
"616.1 379.6 CURVE SMOOTH",
"670.7 379.6 OFFCURVE",
"704.3 311.3 OFFCURVE",
"704.3 200.4 CURVE SMOOTH",
"704.3 159.8 OFFCURVE",
"700.1 122 OFFCURVE",
"691.4 84.4 CURVE SMOOTH",
"680 34.9 OFFCURVE",
"715.2 -5.9 OFFCURVE",
"769.3 -5.9 CURVE SMOOTH",
"810.6 -5.9 OFFCURVE",
"842.5 19.8 OFFCURVE",
"850.7 59.9 CURVE SMOOTH"
);
}
);
width = 905;
},
{
layerId = "F9A96203-4E56-41C0-BC85-563659FEF099";
paths = (
{
closed = 1;
nodes = (
"772 103 OFFCURVE",
"778 175 OFFCURVE",
"778 234 CURVE SMOOTH",
"778 419.9 OFFCURVE",
"717 510 OFFCURVE",
"593.3 510 CURVE SMOOTH",
"527.6 510 OFFCURVE",
"476.3 484.4 OFFCURVE",
"430 427.7 CURVE",
"399.6 482.9 OFFCURVE",
"350.6 510 OFFCURVE",
"282.7 510 CURVE SMOOTH",
"227.5 510 OFFCURVE",
"182.6 491.9 OFFCURVE",
"142.1 452.5 CURVE",
"141.7 459 OFFCURVE",
"141.4 465.5 OFFCURVE",
"141 472 CURVE SMOOTH",
"139.7 495.6 OFFCURVE",
"123.6 506.4 OFFCURVE",
"107.1 506.4 CURVE SMOOTH",
"88.4 506.4 OFFCURVE",
"69.4 492.5 OFFCURVE",
"71 468 CURVE SMOOTH",
"76.05 393.73 OFFCURVE",
"78.628 317.847 OFFCURVE",
"78.628 242.646 CURVE SMOOTH",
"78.628 170.423 OFFCURVE",
"76.25 98.829 OFFCURVE",
"71.4 29.9 CURVE SMOOTH",
"69.7 6.1 OFFCURVE",
"87 -6.1 OFFCURVE",
"104.8 -6.1 CURVE SMOOTH",
"121.7 -6.1 OFFCURVE",
"139 4.9 OFFCURVE",
"140.9 27.7 CURVE SMOOTH",
"150.6 139.5 OFFCURVE",
"150.4 251.7 OFFCURVE",
"146.3 362.4 CURVE",
"178 416.9 OFFCURVE",
"220.3 444 OFFCURVE",
"273.4 444 CURVE SMOOTH",
"354.5 444 OFFCURVE",
"399 379.6 OFFCURVE",
"399 262.3 CURVE SMOOTH",
"399 202 OFFCURVE",
"395.5 126.5 OFFCURVE",
"380.5 35 CURVE SMOOTH",
"376 7.8 OFFCURVE",
"395 -6 OFFCURVE",
"414.2 -6 CURVE SMOOTH",
"430.3 -6 OFFCURVE",
"446.6 3.6 OFFCURVE",
"449.5 23 CURVE SMOOTH",
"461.5 103 OFFCURVE",
"467.5 175 OFFCURVE",
"467.5 234 CURVE SMOOTH",
"467.5 282.3 OFFCURVE",
"463.4 324.1 OFFCURVE",
"455.1 359.5 CURVE",
"487 415.9 OFFCURVE",
"529.9 444 OFFCURVE",
"584 444 CURVE SMOOTH",
"665.1 444 OFFCURVE",
"709.6 379.6 OFFCURVE",
"709.6 262.3 CURVE SMOOTH",
"709.6 202 OFFCURVE",
"706.1 126.5 OFFCURVE",
"691 35 CURVE SMOOTH",
"686.5 7.8 OFFCURVE",
"705.5 -6 OFFCURVE",
"724.7 -6 CURVE SMOOTH",
"740.8 -6 OFFCURVE",
"757.1 3.6 OFFCURVE",
"760 23 CURVE SMOOTH"
);
}
);
width = 838;
}
);
unicode = 006D;
},
{
glyphname = E;
layers = (
{
anchors = (
{
name = top;
position = "{251, 730}";
}
);
layerId = "9B6556BE-0D60-403F-880A-9E0B7B019CCB";
paths = (
{
closed = 1;
nodes = (
"413.792 683.456 OFFCURVE",
"417.868 687.248 OFFCURVE",
"417.868 692.009 CURVE SMOOTH",
"417.868 697.077 OFFCURVE",
"413.258 700.291 OFFCURVE",
"406.55 699.9 CURVE SMOOTH",
"301.8 693.79 OFFCURVE",
"207.06 693.679 OFFCURVE",
"102.311 699.541 CURVE SMOOTH",
"94.022 700.005 OFFCURVE",
"89.705 695.935 OFFCURVE",
"90.273 688.189 CURVE SMOOTH",
"107.539 452.486 OFFCURVE",
"109.183 229.007 OFFCURVE",
"95.219 15.877 CURVE SMOOTH",
"94.498 4.873 OFFCURVE",
"99.197 -0.089 OFFCURVE",
"110.685 -0.454 CURVE SMOOTH",
"207.595 -3.53 OFFCURVE",
"312.698 1.116 OFFCURVE",
"415.05 13 CURVE SMOOTH",
"419.363 13.501 OFFCURVE",
"422.264 16.825 OFFCURVE",
"422.264 21.267 CURVE SMOOTH",
"422.264 26.795 OFFCURVE",
"417.993 30.533 OFFCURVE",
"412.4 29.9 CURVE SMOOTH",
"311.854 18.515 OFFCURVE",
"213.832 14.012 OFFCURVE",
"113.149 16.153 CURVE",
"120.111 126.062 OFFCURVE",
"123.173 235.2 OFFCURVE",
"122.399 345.841 CURVE",
"218.341 346.016 OFFCURVE",
"306.483 350.746 OFFCURVE",
"379.619 359.644 CURVE SMOOTH",
"384.957 360.294 OFFCURVE",
"388.492 363.896 OFFCURVE",
"388.492 368.686 CURVE SMOOTH",
"388.492 374.287 OFFCURVE",
"383.872 378.058 OFFCURVE",
"378 377.25 CURVE SMOOTH",
"304.505 367.141 OFFCURVE",
"215.659 362.062 OFFCURVE",
"122.229 362.627 CURVE",
"121.138 466.799 OFFCURVE",
"116.72 572.776 OFFCURVE",
"108.898 682.378 CURVE",
"224.232 677.74 OFFCURVE",
"321.141 677.984 OFFCURVE",
"408.327 683.133 CURVE SMOOTH"
);
}
);
width = 493;
},
{
anchors = (
{
name = top;
position = "{291, 730}";
}
);
layerId = "53D8B3CD-CAC4-43E9-8418-D21F673F49BB";
paths = (
{
closed = 1;
nodes = (
"473.195 579.766 OFFCURVE",
"499.639 605.792 OFFCURVE",
"499.639 640.951 CURVE SMOOTH",
"499.639 680.505 OFFCURVE",
"467.337 708.508 OFFCURVE",
"425.7 705.05 CURVE SMOOTH",
"344.537 698.309 OFFCURVE",
"250.843 696.574 OFFCURVE",
"137.189 699.707 CURVE SMOOTH",
"88.457 701.05 OFFCURVE",
"56.96 668.262 OFFCURVE",
"61.133 620.533 CURVE SMOOTH",
"77.351 435.005 OFFCURVE",
"79.069 248.444 OFFCURVE",
"66.107 80.468 CURVE SMOOTH",
"62.356 31.859 OFFCURVE",
"89.905 2.474 OFFCURVE",
"142.25 -0.75 CURVE SMOOTH",
"249.24 -7.34 OFFCURVE",
"352.583 -3 OFFCURVE",
"437.5 11.65 CURVE SMOOTH",
"476.864 18.441 OFFCURVE",
"502.134 44.216 OFFCURVE",
"502.134 77.575 CURVE SMOOTH",
"502.134 118.618 OFFCURVE",
"465.996 146.369 OFFCURVE",
"421.5 139.5 CURVE SMOOTH",
"359.543 129.935 OFFCURVE",
"295.405 125.325 OFFCURVE",
"229.278 125.682 CURVE",
"232.283 178.216 OFFCURVE",
"233.93 231.981 OFFCURVE",
"234.232 287.318 CURVE",
"300.678 288.528 OFFCURVE",
"362.567 293.16 OFFCURVE",
"408.7 300.3 CURVE SMOOTH",
"445.958 306.066 OFFCURVE",
"470.485 332.385 OFFCURVE",
"470.485 366.598 CURVE SMOOTH",
"470.485 407.558 OFFCURVE",
"436.97 434.912 OFFCURVE",
"394.15 428.9 CURVE SMOOTH",
"345.441 422.06 OFFCURVE",
"290.79 418.198 OFFCURVE",
"232.559 417.479 CURVE",
"231.047 467.452 OFFCURVE",
"228.571 519.326 OFFCURVE",
"225.315 569.278 CURVE",
"312.761 567.927 OFFCURVE",
"380.179 569.961 OFFCURVE",
"433.2 575.55 CURVE SMOOTH"
);
}
);
width = 543;
},
{
anchors = (
{
name = top;
position = "{251, 730}";
}
);
layerId = "F9A96203-4E56-41C0-BC85-563659FEF099";
paths = (
{
closed = 1;
nodes = (
"414.456 644.653 OFFCURVE",
"427.393 658.589 OFFCURVE",
"427.393 676.894 CURVE SMOOTH",
"427.393 698.055 OFFCURVE",
"410.789 712.373 OFFCURVE",
"389 710 CURVE SMOOTH",
"298.936 700.191 OFFCURVE",
"205.825 698.778 OFFCURVE",
"110.84 705.777 CURVE SMOOTH",
"86.867 707.544 OFFCURVE",
"69.13 690.796 OFFCURVE",
"70.212 667.413 CURVE SMOOTH",
"83.836 372.981 OFFCURVE",
"85.125 203.34 OFFCURVE",
"75 37 CURVE SMOOTH",
"73.747 16.421 OFFCURVE",
"89.324 0.294 OFFCURVE",
"111.8 -1.1 CURVE SMOOTH",
"206.713 -6.985 OFFCURVE",
"317.128 -2.14 OFFCURVE",
"403.5 11.7 CURVE SMOOTH",
"420.526 14.428 OFFCURVE",
"431.895 27.906 OFFCURVE",
"431.895 45.362 CURVE SMOOTH",
"431.895 67.731 OFFCURVE",
"414.288 82.062 OFFCURVE",
"391.55 78.2 CURVE SMOOTH",
"316.022 65.373 OFFCURVE",
"242.477 61.753 OFFCURVE",
"147.088 66.166 CURVE",
"151.869 148.23 OFFCURVE",
"154.026 233.791 OFFCURVE",
"153.568 323.153 CURVE",
"238.694 321.466 OFFCURVE",
"308.845 325.342 OFFCURVE",
"368 335 CURVE SMOOTH",
"387.3 338.151 OFFCURVE",
"399.951 351.569 OFFCURVE",
"399.951 368.888 CURVE SMOOTH",
"399.951 391.18 OFFCURVE",
"380.307 405.532 OFFCURVE",
"356 401 CURVE SMOOTH",
"304.232 391.348 OFFCURVE",
"224.06 386.438 OFFCURVE",
"152.78 388.553 CURVE",
"151.302 467.041 OFFCURVE",
"147.88 548.976 OFFCURVE",
"142.484 635.021 CURVE",
"231.441 629.319 OFFCURVE",
"319.944 631.765 OFFCURVE",
"395 642 CURVE SMOOTH"
);
}
);
width = 482;
},
{
anchors = (
{
name = top;
position = "{251, 730}";
}
);
layerId = "9B6556BE-0D60-403F-880A-9E0B7B019CCB";
paths = (
{
closed = 1;
nodes = (
"413.8 683.5 OFFCURVE",
"417.9 687.2 OFFCURVE",
"417.9 692 CURVE SMOOTH",
"417.9 697.1 OFFCURVE",
"413.3 700.3 OFFCURVE",
"406.5 699.9 CURVE SMOOTH",
"353.05 696.786 OFFCURVE",
"302.206 695.236 OFFCURVE",
"251.295 695.236 CURVE SMOOTH",
"202.478 695.236 OFFCURVE",
"153.599 696.661 OFFCURVE",
"102.3 699.5 CURVE SMOOTH",
"94 700 OFFCURVE",
"89.7 695.9 OFFCURVE",
"90.3 688.2 CURVE SMOOTH",
"99.809 557.889 OFFCURVE",
"104.581 431.308 OFFCURVE",
"104.581 308.151 CURVE SMOOTH",
"104.581 208.547 OFFCURVE",
"101.46 111.184 OFFCURVE",
"95.2 15.9 CURVE SMOOTH",
"94.5 4.9 OFFCURVE",
"99.2 -0.1 OFFCURVE",
"110.7 -0.5 CURVE SMOOTH",
"207.6 -3.5 OFFCURVE",
"312.7 1.1 OFFCURVE",
"415 13 CURVE SMOOTH",
"419.4 13.5 OFFCURVE",
"422.3 16.8 OFFCURVE",
"422.3 21.3 CURVE SMOOTH",
"422.3 26.8 OFFCURVE",
"418 30.5 OFFCURVE",
"412.4 29.9 CURVE SMOOTH",
"311.9 18.5 OFFCURVE",
"213.8 14 OFFCURVE",
"113.1 16.2 CURVE",
"120.1 126.1 OFFCURVE",
"123.2 235.2 OFFCURVE",
"122.4 345.8 CURVE",
"218.3 346 OFFCURVE",
"306.5 350.7 OFFCURVE",
"379.6 359.6 CURVE SMOOTH",
"385 360.3 OFFCURVE",
"388.5 363.9 OFFCURVE",
"388.5 368.7 CURVE SMOOTH",
"388.5 374.3 OFFCURVE",
"383.9 378.1 OFFCURVE",
"378 377.2 CURVE SMOOTH",
"304.5 367.1 OFFCURVE",
"215.7 362.1 OFFCURVE",
"122.2 362.6 CURVE",
"121.1 466.8 OFFCURVE",
"116.7 572.8 OFFCURVE",
"108.9 682.4 CURVE",
"163.61 680.17 OFFCURVE",
"214.178 679.065 OFFCURVE",
"261.532 679.065 CURVE SMOOTH",
"313.975 679.065 OFFCURVE",
"362.477 680.42 OFFCURVE",
"408.3 683.1 CURVE SMOOTH"
);
}
);
width = 493;
},
{
anchors = (
{
name = top;
position = "{291, 730}";
}
);
layerId = "53D8B3CD-CAC4-43E9-8418-D21F673F49BB";
paths = (
{
closed = 1;
nodes = (
"473.2 579.8 OFFCURVE",
"499.6 605.8 OFFCURVE",
"499.6 641 CURVE SMOOTH",
"499.6 680.5 OFFCURVE",
"467.3 708.5 OFFCURVE",
"425.7 705 CURVE SMOOTH",
"344.5 698.3 OFFCURVE",
"250.8 696.6 OFFCURVE",
"137.2 699.7 CURVE SMOOTH",
"136.197 699.729 OFFCURVE",
"135.202 699.743 OFFCURVE",
"134.214 699.743 CURVE SMOOTH",
"90.024 699.743 OFFCURVE",
"60.742 671.072 OFFCURVE",
"60.742 628.727 CURVE SMOOTH",
"60.742 626.038 OFFCURVE",
"60.86 623.295 OFFCURVE",
"61.1 620.5 CURVE SMOOTH",
"70.182 517.148 OFFCURVE",
"74.731 413.454 OFFCURVE",
"74.731 312.843 CURVE SMOOTH",
"74.731 232.874 OFFCURVE",
"71.857 154.853 OFFCURVE",
"66.1 80.5 CURVE SMOOTH",
"62.4 31.9 OFFCURVE",
"89.9 2.5 OFFCURVE",
"142.3 -0.8 CURVE SMOOTH",
"249.2 -7.3 OFFCURVE",
"352.6 -3 OFFCURVE",
"437.5 11.6 CURVE SMOOTH",
"476.9 18.4 OFFCURVE",
"502.1 44.2 OFFCURVE",
"502.1 77.6 CURVE SMOOTH",
"502.1 118.6 OFFCURVE",
"466 146.4 OFFCURVE",
"421.5 139.5 CURVE SMOOTH",
"359.5 129.9 OFFCURVE",
"295.4 125.3 OFFCURVE",
"229.3 125.7 CURVE",
"232.3 178.2 OFFCURVE",
"233.9 232 OFFCURVE",
"234.2 287.3 CURVE",
"300.7 288.5 OFFCURVE",
"362.6 293.2 OFFCURVE",
"408.7 300.3 CURVE SMOOTH",
"446 306.1 OFFCURVE",
"470.5 332.4 OFFCURVE",
"470.5 366.6 CURVE SMOOTH",
"470.5 407.6 OFFCURVE",
"437 434.9 OFFCURVE",
"394.2 428.9 CURVE SMOOTH",
"345.4 422.1 OFFCURVE",
"290.8 418.2 OFFCURVE",
"232.6 417.5 CURVE",
"231 467.5 OFFCURVE",
"228.6 519.3 OFFCURVE",
"225.3 569.3 CURVE",
"312.8 567.9 OFFCURVE",
"380.2 570 OFFCURVE",
"433.2 575.5 CURVE SMOOTH"
);
}
);
width = 543;
},
{
anchors = (
{
name = top;
position = "{251, 730}";
}
);
layerId = "F9A96203-4E56-41C0-BC85-563659FEF099";
paths = (
{
closed = 1;
nodes = (
"414.5 644.7 OFFCURVE",
"427.4 658.6 OFFCURVE",
"427.4 676.9 CURVE SMOOTH",
"427.4 698.1 OFFCURVE",
"410.8 712.4 OFFCURVE",
"389 710 CURVE SMOOTH",
"336.442 704.283 OFFCURVE",
"282.862 701.425 OFFCURVE",
"228.481 701.425 CURVE SMOOTH",
"189.637 701.425 OFFCURVE",
"150.383 702.883 OFFCURVE",
"110.8 705.8 CURVE SMOOTH",
"109.679 705.88 OFFCURVE",
"108.572 705.919 OFFCURVE",
"107.479 705.919 CURVE SMOOTH",
"85.957 705.919 OFFCURVE",
"70.152 690.687 OFFCURVE",
"70.152 669.446 CURVE SMOOTH",
"70.152 668.77 OFFCURVE",
"70.168 668.088 OFFCURVE",
"70.2 667.4 CURVE SMOOTH",
"77.877 501.21 OFFCURVE",
"81.635 374.758 OFFCURVE",
"81.635 266.222 CURVE SMOOTH",
"81.635 182.491 OFFCURVE",
"79.399 109.423 OFFCURVE",
"75 37 CURVE SMOOTH",
"73.7 16.4 OFFCURVE",
"89.3 0.3 OFFCURVE",
"111.8 -1.1 CURVE SMOOTH",
"206.7 -7 OFFCURVE",
"317.1 -2.1 OFFCURVE",
"403.5 11.7 CURVE SMOOTH",
"420.5 14.4 OFFCURVE",
"431.9 27.9 OFFCURVE",
"431.9 45.4 CURVE SMOOTH",
"431.9 67.7 OFFCURVE",
"414.3 82.1 OFFCURVE",
"391.5 78.2 CURVE SMOOTH",
"316 65.4 OFFCURVE",
"242.5 61.8 OFFCURVE",
"147.1 66.2 CURVE",
"151.9 148.2 OFFCURVE",
"154 233.8 OFFCURVE",
"153.6 323.2 CURVE",
"238.7 321.5 OFFCURVE",
"308.8 325.3 OFFCURVE",
"368 335 CURVE SMOOTH",
"387.3 338.2 OFFCURVE",
"400 351.6 OFFCURVE",
"400 368.9 CURVE SMOOTH",
"400 391.2 OFFCURVE",
"380.3 405.5 OFFCURVE",
"356 401 CURVE SMOOTH",
"304.2 391.3 OFFCURVE",
"224.1 386.4 OFFCURVE",
"152.8 388.6 CURVE",
"151.3 467 OFFCURVE",
"147.9 549 OFFCURVE",
"142.5 635 CURVE",
"231.4 629.3 OFFCURVE",
"319.9 631.8 OFFCURVE",
"395 642 CURVE SMOOTH"
);
}
);
width = 482;
}
);
leftKerningGroup = B;
rightKerningGroup = E;
unicode = 0045;
},
{
glyphname = o;
layers = (
{
anchors = (
{
name = top;
position = "{283, 530}";
}
);
layerId = "9B6556BE-0D60-403F-880A-9E0B7B019CCB";
paths = (
{
closed = 1;
nodes = (
"400.7 -10 OFFCURVE",
"494 103.8 OFFCURVE",
"494 256.8 CURVE SMOOTH",
"494 409.9 OFFCURVE",
"410.6 510 OFFCURVE",
"283 510 CURVE SMOOTH",
"153.3 510 OFFCURVE",
"65 406.4 OFFCURVE",
"65 254.4 CURVE SMOOTH",
"65 98.8 OFFCURVE",
"151.5 -10 OFFCURVE",
"275.3 -10 CURVE SMOOTH"
);
},
{
closed = 1;
nodes = (
"162.8 6.6 OFFCURVE",
"83 110.2 OFFCURVE",
"83 254.3 CURVE SMOOTH",
"83 396.7 OFFCURVE",
"164.1 493.4 OFFCURVE",
"283.6 493.4 CURVE SMOOTH",
"399.2 493.4 OFFCURVE",
"476 400.4 OFFCURVE",
"476 260.4 CURVE SMOOTH",
"476 113.1 OFFCURVE",
"391.1 6.6 OFFCURVE",
"273.8 6.6 CURVE SMOOTH"
);
}
);
width = 560;
},
{
anchors = (
{
name = top;
position = "{299, 530}";
}
);
layerId = "53D8B3CD-CAC4-43E9-8418-D21F673F49BB";
paths = (
{
closed = 1;
nodes = (
"443.4 -10.1 OFFCURVE",
"555.7 103 OFFCURVE",
"555.7 255.5 CURVE SMOOTH",
"555.7 401.5 OFFCURVE",
"445.9 510.3 OFFCURVE",
"298.7 510.3 CURVE SMOOTH",
"144.4 510.3 OFFCURVE",
"35.3 404 OFFCURVE",
"35.3 253.6 CURVE SMOOTH",
"35.3 101 OFFCURVE",
"143.3 -10.1 OFFCURVE",
"291.8 -10.1 CURVE SMOOTH"
);
},
{
closed = 1;
nodes = (
"238.4 119.6 OFFCURVE",
"195.4 179.8 OFFCURVE",
"195.4 252.8 CURVE SMOOTH",
"195.4 326.7 OFFCURVE",
"238.7 379.7 OFFCURVE",
"299.1 379.7 CURVE SMOOTH",
"355.6 379.7 OFFCURVE",
"395.6 329 OFFCURVE",
"395.6 257.4 CURVE SMOOTH",
"395.6 182.1 OFFCURVE",
"348 119.6 OFFCURVE",
"290.6 119.6 CURVE SMOOTH"
);
}
);
width = 591;
},
{
anchors = (
{
name = top;
position = "{280, 530}";
}
);
layerId = "F9A96203-4E56-41C0-BC85-563659FEF099";
paths = (
{
closed = 1;
nodes = (
"403.7 -10 OFFCURVE",
"505 99.4 OFFCURVE",
"505 256.2 CURVE SMOOTH",
"505 403.2 OFFCURVE",
"417.4 510 OFFCURVE",
"283.3 510 CURVE SMOOTH",
"152.4 510 OFFCURVE",
"55 408.1 OFFCURVE",
"55 254 CURVE SMOOTH",
"55 106 OFFCURVE",
"144.4 -10 OFFCURVE",
"276 -10 CURVE SMOOTH"
);
},
{
closed = 1;
nodes = (
"184.4 56 OFFCURVE",
"125 143 OFFCURVE",
"125 253.8 CURVE SMOOTH",
"125 371 OFFCURVE",
"192.4 444 OFFCURVE",
"283.7 444 CURVE SMOOTH",
"377.6 444 OFFCURVE",
"435 366.6 OFFCURVE",
"435 259.2 CURVE SMOOTH",
"435 139.2 OFFCURVE",
"363 56 OFFCURVE",
"274.8 56 CURVE SMOOTH"
);
}
);
width = 560;
}
);
leftKerningGroup = o;
rightKerningGroup = o1;
unicode = 006F;
},
{
glyphname = p;
layers = (
{
layerId = "9B6556BE-0D60-403F-880A-9E0B7B019CCB";
paths = (
{
closed = 1;
nodes = (
"416.241 -10.4 OFFCURVE",
"504.25 96.339 OFFCURVE",
"504.25 246.9 CURVE SMOOTH",
"504.25 400.953 OFFCURVE",
"414.497 510.3 OFFCURVE",
"288.05 510.3 CURVE SMOOTH",
"201.277 510.3 OFFCURVE",
"136.22 455.713 OFFCURVE",
"108.078 359.293 CURVE",
"106.961 407.448 OFFCURVE",
"105.202 453.539 OFFCURVE",
"102.808 497.416 CURVE SMOOTH",
"102.558 501.995 OFFCURVE",
"99.119 505.106 OFFCURVE",
"94.309 505.106 CURVE SMOOTH",
"88.632 505.106 OFFCURVE",
"84.557 500.937 OFFCURVE",
"84.823 495.401 CURVE SMOOTH",
"94.573 292.058 OFFCURVE",
"93.3 85.78 OFFCURVE",
"80.595 -189.923 CURVE SMOOTH",
"80.251 -197.407 OFFCURVE",
"84.335 -203.158 OFFCURVE",
"89.994 -203.158 CURVE SMOOTH",
"95.043 -203.158 OFFCURVE",
"98.638 -198.424 OFFCURVE",
"98.946 -191.369 CURVE SMOOTH",
"104.351 -67.613 OFFCURVE",
"107.566 37.815 OFFCURVE",
"108.864 133.859 CURVE",
"138.316 42.606 OFFCURVE",
"205.644 -10.4 OFFCURVE",
"292.1 -10.4 CURVE SMOOTH"
);
},
{
closed = 1;
nodes = (
"183.405 6.8 OFFCURVE",
"109.9 104.644 OFFCURVE",
"109.9 247.6 CURVE SMOOTH",
"109.9 397.763 OFFCURVE",
"178.86 492.6 OFFCURVE",
"288.05 492.6 CURVE SMOOTH",
"402.846 492.6 OFFCURVE",
"484.95 390.355 OFFCURVE",
"484.95 247.4 CURVE SMOOTH",
"484.95 109.822 OFFCURVE",
"401.818 6.8 OFFCURVE",
"290.8 6.8 CURVE SMOOTH"
);
}
);
width = 570;
},
{
guideLines = (
{
position = "{0, 506}";
}
);
layerId = "53D8B3CD-CAC4-43E9-8418-D21F673F49BB";
paths = (
{
closed = 1;
nodes = (
"510.25 -9.8 OFFCURVE",
"612.7 98.2 OFFCURVE",
"612.7 248.2 CURVE SMOOTH",
"612.7 398.2 OFFCURVE",
"509.15 510.2 OFFCURVE",
"369.3 510.2 CURVE SMOOTH",
"307.207 510.2 OFFCURVE",
"255.1 488.162 OFFCURVE",
"216.831 448.778 CURVE",
"216.183 455.173 OFFCURVE",
"214.845 461.101 OFFCURVE",
"212.852 466.532 CURVE SMOOTH",
"203.338 492.455 OFFCURVE",
"178.921 507.05 OFFCURVE",
"143.7 507.05 CURVE SMOOTH",
"99.7 507.05 OFFCURVE",
"53.05 478.9 OFFCURVE",
"58.45 417.45 CURVE SMOOTH",
"73.75 242.95 OFFCURVE",
"68.9 44.35 OFFCURVE",
"50.8 -139.5 CURVE SMOOTH",
"45.815 -189.972 OFFCURVE",
"88.369 -216.811 OFFCURVE",
"130.947 -216.811 CURVE SMOOTH",
"169.946 -216.811 OFFCURVE",
"208.966 -194.295 OFFCURVE",
"211.5 -146.8 CURVE SMOOTH",
"214.9 -82.679 OFFCURVE",
"218.423 -17.961 OFFCURVE",
"221.146 46.152 CURVE",
"259.599 10.301 OFFCURVE",
"311.052 -9.8 OFFCURVE",
"371.5 -9.8 CURVE SMOOTH"
);
},
{
closed = 1;
nodes = (
"260.868 120.2 OFFCURVE",
"225.31 185.299 OFFCURVE",
"225.31 250.349 CURVE SMOOTH",
"225.31 315.299 OFFCURVE",
"260.759 380.2 OFFCURVE",
"329.5 380.2 CURVE SMOOTH",
"396.9 380.2 OFFCURVE",
"452.7 318.55 OFFCURVE",
"452.7 244.85 CURVE SMOOTH",
"452.7 173.85 OFFCURVE",
"401.55 120.2 OFFCURVE",
"334.15 120.2 CURVE SMOOTH"
);
}
);
width = 648;
},
{
layerId = "F9A96203-4E56-41C0-BC85-563659FEF099";
paths = (
{
closed = 1;
nodes = (
"422.813 -9.65 OFFCURVE",
"515.15 99.131 OFFCURVE",
"515.15 248.35 CURVE SMOOTH",
"515.15 398.631 OFFCURVE",
"420.913 510.35 OFFCURVE",
"294.15 510.35 CURVE SMOOTH",
"234.022 510.35 OFFCURVE",
"182.806 485.19 OFFCURVE",
"146.654 437.892 CURVE",
"146.189 449.76 OFFCURVE",
"145.66 461.578 OFFCURVE",
"145.15 473.35 CURVE SMOOTH",
"144.306 492.838 OFFCURVE",
"130.111 506.334 OFFCURVE",
"110.458 506.334 CURVE SMOOTH",
"88.987 506.334 OFFCURVE",
"73.95 490.585 OFFCURVE",
"75.15 469.35 CURVE SMOOTH",
"89.863 208.964 OFFCURVE",
"85.649 7.053 OFFCURVE",
"71.15 -167.65 CURVE SMOOTH",
"69.322 -189.682 OFFCURVE",
"84.134 -206.004 OFFCURVE",
"105.956 -206.004 CURVE SMOOTH",
"125.717 -206.004 OFFCURVE",
"140.147 -192.294 OFFCURVE",
"141.15 -172.65 CURVE SMOOTH",
"145.125 -94.801 OFFCURVE",
"147.915 -18.132 OFFCURVE",
"149.525 57.54 CURVE",
"186.098 13.714 OFFCURVE",
"237.083 -9.65 OFFCURVE",
"296.15 -9.65 CURVE SMOOTH"
);
},
{
closed = 1;
nodes = (
"206.858 56.35 OFFCURVE",
"151.15 132.75 OFFCURVE",
"151.15 248.35 CURVE SMOOTH",
"151.15 365.357 OFFCURVE",
"205.155 444.35 OFFCURVE",
"285.15 444.35 CURVE SMOOTH",
"371.942 444.35 OFFCURVE",
"444.15 352.614 OFFCURVE",
"444.15 242.35 CURVE SMOOTH",
"444.15 136.468 OFFCURVE",
"378.247 56.35 OFFCURVE",
"291.15 56.35 CURVE SMOOTH"
);
}
);
width = 571;
},
{
layerId = "9B6556BE-0D60-403F-880A-9E0B7B019CCB";
paths = (
{
closed = 1;
nodes = (
"416.2 -10.4 OFFCURVE",
"504.3 96.3 OFFCURVE",
"504.3 246.9 CURVE SMOOTH",
"504.3 401 OFFCURVE",
"414.5 510.3 OFFCURVE",
"288 510.3 CURVE SMOOTH",
"201.3 510.3 OFFCURVE",
"136.2 455.7 OFFCURVE",
"108.1 359.3 CURVE",
"107 407.4 OFFCURVE",
"105.2 453.5 OFFCURVE",
"102.8 497.4 CURVE SMOOTH",
"102.6 502 OFFCURVE",
"99.1 505.1 OFFCURVE",
"94.3 505.1 CURVE SMOOTH",
"88.6 505.1 OFFCURVE",
"84.6 500.9 OFFCURVE",
"84.8 495.4 CURVE SMOOTH",
"89.101 406.184 OFFCURVE",
"91.264 316.39 OFFCURVE",
"91.264 220.407 CURVE SMOOTH",
"91.264 97.67 OFFCURVE",
"87.727 -35.188 OFFCURVE",
"80.6 -189.9 CURVE SMOOTH",
"80.3 -197.4 OFFCURVE",
"84.3 -203.2 OFFCURVE",
"90 -203.2 CURVE SMOOTH",
"95 -203.2 OFFCURVE",
"98.6 -198.4 OFFCURVE",
"98.9 -191.4 CURVE SMOOTH",
"104.4 -67.6 OFFCURVE",
"107.6 37.8 OFFCURVE",
"108.9 133.9 CURVE",
"138.3 42.6 OFFCURVE",
"205.6 -10.4 OFFCURVE",
"292.1 -10.4 CURVE SMOOTH"
);
},
{
closed = 1;
nodes = (
"183.4 6.8 OFFCURVE",
"109.9 104.6 OFFCURVE",
"109.9 247.6 CURVE SMOOTH",
"109.9 397.8 OFFCURVE",
"178.9 492.6 OFFCURVE",
"288 492.6 CURVE SMOOTH",
"402.8 492.6 OFFCURVE",
"485 390.4 OFFCURVE",
"485 247.4 CURVE SMOOTH",
"485 109.8 OFFCURVE",
"401.8 6.8 OFFCURVE",
"290.8 6.8 CURVE SMOOTH"
);
}
);
width = 570;
},
{
guideLines = (
{
position = "{0, 506}";
}
);
layerId = "53D8B3CD-CAC4-43E9-8418-D21F673F49BB";
paths = (
{
closed = 1;
nodes = (
"510.3 -9.8 OFFCURVE",
"612.7 98.2 OFFCURVE",
"612.7 248.2 CURVE SMOOTH",
"612.7 398.2 OFFCURVE",
"509.1 510.2 OFFCURVE",
"369.3 510.2 CURVE SMOOTH",
"307.2 510.2 OFFCURVE",
"255.1 488.2 OFFCURVE",
"216.8 448.8 CURVE",
"213.072 488.567 OFFCURVE",
"182.309 507.1 OFFCURVE",
"143.7 507.1 CURVE SMOOTH",
"99.7 507.1 OFFCURVE",
"53 478.9 OFFCURVE",
"58.4 417.4 CURVE SMOOTH",
"64.656 346.051 OFFCURVE",
"67.551 270.673 OFFCURVE",
"67.551 193.925 CURVE SMOOTH",
"67.551 82.969 OFFCURVE",
"61.499 -30.851 OFFCURVE",
"50.8 -139.5 CURVE SMOOTH",
"45.8 -190 OFFCURVE",
"88.4 -216.8 OFFCURVE",
"130.9 -216.8 CURVE SMOOTH",
"169.9 -216.8 OFFCURVE",
"209 -194.3 OFFCURVE",
"211.5 -146.8 CURVE SMOOTH",
"214.9 -82.7 OFFCURVE",
"218.4 -18 OFFCURVE",
"221.1 46.2 CURVE",
"259.6 10.3 OFFCURVE",
"311.1 -9.8 OFFCURVE",
"371.5 -9.8 CURVE SMOOTH"
);
},
{
closed = 1;
nodes = (
"260.9 120.2 OFFCURVE",
"225.3 185.3 OFFCURVE",
"225.3 250.3 CURVE SMOOTH",
"225.3 315.3 OFFCURVE",
"260.8 380.2 OFFCURVE",
"329.5 380.2 CURVE SMOOTH",
"396.9 380.2 OFFCURVE",
"452.7 318.5 OFFCURVE",
"452.7 244.8 CURVE SMOOTH",
"452.7 173.8 OFFCURVE",
"401.5 120.2 OFFCURVE",
"334.1 120.2 CURVE SMOOTH"
);
}
);
width = 648;
},
{
layerId = "F9A96203-4E56-41C0-BC85-563659FEF099";
paths = (
{
closed = 1;
nodes = (
"422.8 -9.6 OFFCURVE",
"515.1 99.1 OFFCURVE",
"515.1 248.4 CURVE SMOOTH",
"515.1 398.6 OFFCURVE",
"420.9 510.4 OFFCURVE",
"294.1 510.4 CURVE SMOOTH",
"234 510.4 OFFCURVE",
"182.8 485.2 OFFCURVE",
"146.7 437.9 CURVE",
"146.2 449.8 OFFCURVE",
"145.7 461.6 OFFCURVE",
"145.2 473.4 CURVE SMOOTH",
"144.3 492.8 OFFCURVE",
"130.1 506.3 OFFCURVE",
"110.5 506.3 CURVE SMOOTH",
"89 506.3 OFFCURVE",
"74 490.6 OFFCURVE",
"75.2 469.4 CURVE SMOOTH",
"81.524 357.38 OFFCURVE",
"84.331 256.186 OFFCURVE",
"84.331 163.326 CURVE SMOOTH",
"84.331 40.325 OFFCURVE",
"79.405 -68.053 OFFCURVE",
"71.2 -167.6 CURVE SMOOTH",
"69.3 -189.7 OFFCURVE",
"84.1 -206 OFFCURVE",
"106 -206 CURVE SMOOTH",
"125.7 -206 OFFCURVE",
"140.1 -192.3 OFFCURVE",
"141.2 -172.6 CURVE SMOOTH",
"145.1 -94.8 OFFCURVE",
"147.9 -18.1 OFFCURVE",
"149.5 57.5 CURVE",
"186.1 13.7 OFFCURVE",
"237.1 -9.6 OFFCURVE",
"296.1 -9.6 CURVE SMOOTH"
);
},
{
closed = 1;
nodes = (
"206.9 56.3 OFFCURVE",
"151.1 132.8 OFFCURVE",
"151.1 248.3 CURVE SMOOTH",
"151.1 365.4 OFFCURVE",
"205.2 444.3 OFFCURVE",
"285.1 444.3 CURVE SMOOTH",
"371.9 444.3 OFFCURVE",
"444.1 352.6 OFFCURVE",
"444.1 242.3 CURVE SMOOTH",
"444.1 136.5 OFFCURVE",
"378.2 56.3 OFFCURVE",
"291.1 56.3 CURVE SMOOTH"
);
}
);
width = 571;
}
);
unicode = 0070;
},
{
glyphname = P;
layers = (
{
guideLines = (
{
position = "{0, -6}";
}
);
layerId = "9B6556BE-0D60-403F-880A-9E0B7B019CCB";
paths = (
{
closed = 1;
nodes = (
"113.5 121.4 OFFCURVE",
"115.6 207 OFFCURVE",
"116.2 284.2 CURVE",
"346.6 285.9 OFFCURVE",
"503.7 377.6 OFFCURVE",
"503.7 510.4 CURVE SMOOTH",
"503.7 636 OFFCURVE",
"362.4 706.4 OFFCURVE",
"110.3 706.4 CURVE SMOOTH",
"96 706.4 OFFCURVE",
"89.4 699.5 OFFCURVE",
"90.3 685.4 CURVE SMOOTH",
"95.913 588.456 OFFCURVE",
"98.714 472.791 OFFCURVE",
"98.714 353.008 CURVE SMOOTH",
"98.714 235.929 OFFCURVE",
"96.038 114.915 OFFCURVE",
"90.7 3.6 CURVE SMOOTH",
"90.4 -2 OFFCURVE",
"94.3 -6.1 OFFCURVE",
"99.9 -6.1 CURVE SMOOTH",
"105.3 -6.1 OFFCURVE",
"109.1 -2.4 OFFCURVE",
"109.3 3 CURVE SMOOTH"
);
},
{
closed = 1;
nodes = (
"117 418 OFFCURVE",
"114.5 531.5 OFFCURVE",
"107.8 689.2 CURVE",
"350 689.2 OFFCURVE",
"485.9 624.9 OFFCURVE",
"485.9 510.3 CURVE SMOOTH",
"485.9 388.2 OFFCURVE",
"334.6 302.3 OFFCURVE",
"116.4 300.6 CURVE"
);
}
);
width = 557;
},
{
guideLines = (
{
position = "{0, -6}";
}
);
layerId = "53D8B3CD-CAC4-43E9-8418-D21F673F49BB";
paths = (
{
closed = 1;
nodes = (
"226.9 124.5 OFFCURVE",
"229.3 186.7 OFFCURVE",
"230.4 248.4 CURVE",
"433.4 254.4 OFFCURVE",
"571.4 348.9 OFFCURVE",
"571.4 481.8 CURVE SMOOTH",
"571.4 622 OFFCURVE",
"417.6 706.1 OFFCURVE",
"161.2 706.1 CURVE SMOOTH",
"104.5 706.1 OFFCURVE",
"59 666 OFFCURVE",
"60.7 617.6 CURVE SMOOTH",
"64.32 517.03 OFFCURVE",
"68.304 416.642 OFFCURVE",
"68.304 305.786 CURVE SMOOTH",
"68.304 232.893 OFFCURVE",
"66.581 155.473 OFFCURVE",
"61.9 70.5 CURVE SMOOTH",
"59.5 27.5 OFFCURVE",
"96.3 -5.9 OFFCURVE",
"146.1 -5.9 CURVE SMOOTH",
"190.1 -5.9 OFFCURVE",
"220.9 21.2 OFFCURVE",
"223.3 62 CURVE SMOOTH"
);
},
{
closed = 1;
nodes = (
"230.5 444.6 OFFCURVE",
"228.6 510.4 OFFCURVE",
"225.3 575.9 CURVE",
"341.5 568 OFFCURVE",
"409.3 532.9 OFFCURVE",
"409.3 480.8 CURVE SMOOTH",
"409.3 425.4 OFFCURVE",
"336.4 383.7 OFFCURVE",
"231.1 378.7 CURVE"
);
}
);
width = 592;
},
{
layerId = "F9A96203-4E56-41C0-BC85-563659FEF099";
paths = (
{
closed = 1;
nodes = (
"154.5 116.6 OFFCURVE",
"156.8 197.3 OFFCURVE",
"157.9 272.4 CURVE",
"383 277.8 OFFCURVE",
"517 362.1 OFFCURVE",
"517 498.3 CURVE SMOOTH",
"517 633.3 OFFCURVE",
"384.6 706 OFFCURVE",
"139 706 CURVE SMOOTH",
"100 706 OFFCURVE",
"79 687.2 OFFCURVE",
"81 654 CURVE SMOOTH",
"86.412 561.988 OFFCURVE",
"89.138 470.303 OFFCURVE",
"89.138 369.115 CURVE SMOOTH",
"89.138 268.391 OFFCURVE",
"86.437 158.252 OFFCURVE",
"81 29 CURVE SMOOTH",
"80.2 9 OFFCURVE",
"95.3 -6.1 OFFCURVE",
"116.1 -6.1 CURVE SMOOTH",
"136.1 -6.1 OFFCURVE",
"150.2 8.1 OFFCURVE",
"151 29 CURVE SMOOTH"
);
},
{
closed = 1;
nodes = (
"159.2 448.5 OFFCURVE",
"157 547.8 OFFCURVE",
"152 640 CURVE",
"339.6 640 OFFCURVE",
"447 587.8 OFFCURVE",
"447 496.8 CURVE SMOOTH",
"447 405.4 OFFCURVE",
"334.4 343.6 OFFCURVE",
"158.6 338.4 CURVE"
);
}
);
width = 557;
}
);
leftKerningGroup = B;
unicode = 0050;
},
{
glyphname = R;
layers = (
{
anchors = (
{
name = bottom;
position = "{275, 0}";
},
{
name = top;
position = "{301, 730}";
}
);
guideLines = (
{
position = "{0, -6}";
}
);
layerId = "9B6556BE-0D60-403F-880A-9E0B7B019CCB";
paths = (
{
closed = 1;
nodes = (
"439.208 103.064 OFFCURVE",
"356.992 207.169 OFFCURVE",
"269.079 300.495 CURVE",
"416.108 333.205 OFFCURVE",
"503.65 411.522 OFFCURVE",
"503.65 510.35 CURVE SMOOTH",
"503.65 636.012 OFFCURVE",
"362.426 706.4 OFFCURVE",
"110.3 706.4 CURVE SMOOTH",
"95.78 706.4 OFFCURVE",
"89.426 699.378 OFFCURVE",
"90.3 684.3 CURVE SMOOTH",
"101.362 493.538 OFFCURVE",
"101.498 228.641 OFFCURVE",
"90.65 3.55 CURVE SMOOTH",
"90.381 -2.029 OFFCURVE",
"94.326 -6.144 OFFCURVE",
"99.945 -6.144 CURVE SMOOTH",
"105.265 -6.144 OFFCURVE",
"109.101 -2.395 OFFCURVE",
"109.3 3 CURVE SMOOTH",
"113.424 115.048 OFFCURVE",
"115.59 202.825 OFFCURVE",
"116.241 284.224 CURVE",
"162.798 284.565 OFFCURVE",
"207.21 288.628 OFFCURVE",
"248.45 296.319 CURVE",
"338.541 201.944 OFFCURVE",
"422.704 96.028 OFFCURVE",
"484.35 -0.55 CURVE SMOOTH",
"486.557 -4.008 OFFCURVE",
"489.669 -5.956 OFFCURVE",
"492.986 -5.956 CURVE SMOOTH",
"500.398 -5.956 OFFCURVE",
"503.617 2.143 OFFCURVE",
"499.05 9.3 CURVE SMOOTH"
);
},
{
closed = 1;
nodes = (
"117.014 418.022 OFFCURVE",
"114.526 531.545 OFFCURVE",
"107.85 689.2 CURVE",
"349.992 689.2 OFFCURVE",
"485.9 624.904 OFFCURVE",
"485.9 510.35 CURVE SMOOTH",
"485.9 388.208 OFFCURVE",
"334.594 302.342 OFFCURVE",
"116.366 300.642 CURVE"
);
}
);
width = 564;
},
{
anchors = (
{
name = bottom;
position = "{301, 0}";
},
{
name = top;
position = "{301, 730}";
}
);
guideLines = (
{
position = "{0, -6}";
}
);
layerId = "53D8B3CD-CAC4-43E9-8418-D21F673F49BB";
paths = (
{
closed = 1;
nodes = (
"513.544 168.737 OFFCURVE",
"479.48 224.388 OFFCURVE",
"428.03 290.574 CURVE",
"519.28 332.481 OFFCURVE",
"570.35 401.101 OFFCURVE",
"570.35 481.8 CURVE SMOOTH",
"570.35 622.039 OFFCURVE",
"416.62 706.1 OFFCURVE",
"160.15 706.1 CURVE SMOOTH",
"100.646 706.1 OFFCURVE",
"58.029 663.546 OFFCURVE",
"60.1 606.15 CURVE SMOOTH",
"65.7 450.95 OFFCURVE",
"72.7 284.75 OFFCURVE",
"60.85 70.55 CURVE SMOOTH",
"58.47 27.521 OFFCURVE",
"95.29 -5.905 OFFCURVE",
"145.063 -5.905 CURVE SMOOTH",
"189.053 -5.905 OFFCURVE",
"219.856 21.187 OFFCURVE",
"222.25 61.95 CURVE SMOOTH",
"225.88 123.747 OFFCURVE",
"228.281 185.924 OFFCURVE",
"229.452 248.406 CURVE",
"242.191 248.785 OFFCURVE",
"254.575 249.495 OFFCURVE",
"266.55 250.531 CURVE",
"317.765 181.274 OFFCURVE",
"359.909 116.745 OFFCURVE",
"410.05 30.95 CURVE SMOOTH",
"424.266 6.625 OFFCURVE",
"448.958 -7.273 OFFCURVE",
"477.956 -7.273 CURVE SMOOTH",
"548.8 -7.273 OFFCURVE",
"583.896 58.757 OFFCURVE",
"545.2 119.25 CURVE SMOOTH"
);
},
{
closed = 1;
nodes = (
"229.515 443.772 OFFCURVE",
"227.581 508.892 OFFCURVE",
"224.3 573.9 CURVE",
"340.491 565.997 OFFCURVE",
"408.3 531.282 OFFCURVE",
"408.3 479.7 CURVE SMOOTH",
"408.3 424.912 OFFCURVE",
"335.451 383.602 OFFCURVE",
"230.098 378.648 CURVE"
);
}
);
width = 601;
},
{
anchors = (
{
name = bottom;
position = "{301, 0}";
},
{
name = top;
position = "{301, 730}";
}
);
guideLines = (
{
position = "{0, -6}";
showMeasurement = 1;
}
);
layerId = "F9A96203-4E56-41C0-BC85-563659FEF099";
paths = (
{
closed = 1;
nodes = (
"428.615 167.919 OFFCURVE",
"374.456 239.219 OFFCURVE",
"325.249 295.063 CURVE",
"449.255 329.78 OFFCURVE",
"517 401.583 OFFCURVE",
"517 498.3 CURVE SMOOTH",
"517 633.264 OFFCURVE",
"384.625 706 OFFCURVE",
"139 706 CURVE SMOOTH",
"100.035 706 OFFCURVE",
"79.047 687.187 OFFCURVE",
"81 654 CURVE SMOOTH",
"91.8 470.45 OFFCURVE",
"91.882 288.097 OFFCURVE",
"81 29 CURVE SMOOTH",
"80.16 9.009 OFFCURVE",
"95.301 -6.15 OFFCURVE",
"116.107 -6.15 CURVE SMOOTH",
"136.056 -6.15 OFFCURVE",
"150.159 8.053 OFFCURVE",
"151 29 CURVE SMOOTH",
"154.516 116.591 OFFCURVE",
"156.806 197.293 OFFCURVE",
"157.905 272.411 CURVE",
"187.648 273.025 OFFCURVE",
"216.586 275.191 OFFCURVE",
"244.492 278.892 CURVE",
"306.72 214.837 OFFCURVE",
"390.719 107.464 OFFCURVE",
"457.3 7.3 CURVE SMOOTH",
"463.256 -1.661 OFFCURVE",
"472.374 -6.569 OFFCURVE",
"483.063 -6.569 CURVE SMOOTH",
"512.597 -6.569 OFFCURVE",
"530.229 23.226 OFFCURVE",
"514.2 46.05 CURVE SMOOTH"
);
},
{
closed = 1;
nodes = (
"159.17 448.487 OFFCURVE",
"157.012 547.762 OFFCURVE",
"152 640 CURVE",
"339.567 640 OFFCURVE",
"447 587.831 OFFCURVE",
"447 496.75 CURVE SMOOTH",
"447 405.434 OFFCURVE",
"334.429 343.62 OFFCURVE",
"158.556 338.363 CURVE"
);
}
);
width = 571;
},
{
anchors = (
{
name = bottom;
position = "{275, 0}";
},
{
name = top;
position = "{301, 730}";
}
);
guideLines = (
{
position = "{0, -6}";
}
);
layerId = "9B6556BE-0D60-403F-880A-9E0B7B019CCB";
paths = (
{
closed = 1;
nodes = (
"439.2 103.1 OFFCURVE",
"357 207.2 OFFCURVE",
"269.1 300.5 CURVE",
"416.1 333.2 OFFCURVE",
"503.6 411.5 OFFCURVE",
"503.6 510.3 CURVE SMOOTH",
"503.6 636 OFFCURVE",
"362.4 706.4 OFFCURVE",
"110.3 706.4 CURVE SMOOTH",
"95.8 706.4 OFFCURVE",
"89.4 699.4 OFFCURVE",
"90.3 684.3 CURVE SMOOTH",
"95.9 588.033 OFFCURVE",
"98.701 472.902 OFFCURVE",
"98.701 353.55 CURVE SMOOTH",
"98.701 236.349 OFFCURVE",
"96. 115.077 OFFCURVE",
"90.6 3.6 CURVE SMOOTH",
"90.4 -2 OFFCURVE",
"94.3 -6.1 OFFCURVE",
"99.9 -6.1 CURVE SMOOTH",
"105.3 -6.1 OFFCURVE",
"109.1 -2.4 OFFCURVE",
"109.3 3 CURVE SMOOTH",
"113.4 115 OFFCURVE",
"115.6 202.8 OFFCURVE",
"116.2 284.2 CURVE",
"162.8 284.6 OFFCURVE",
"207.2 288.6 OFFCURVE",
"248.5 296.3 CURVE",
"338.5 201.9 OFFCURVE",
"422.7 96 OFFCURVE",
"484.3 -0.6 CURVE",
"486.6 -4 OFFCURVE",
"489.7 -6 OFFCURVE",
"493 -6 CURVE SMOOTH",
"500.4 -6 OFFCURVE",
"503.6 2.1 OFFCURVE",
"499 9.3 CURVE SMOOTH"
);
},
{
closed = 1;
nodes = (
"117 418 OFFCURVE",
"114.5 531.5 OFFCURVE",
"107.8 689.2 CURVE",
"350 689.2 OFFCURVE",
"485.9 624.9 OFFCURVE",
"485.9 510.3 CURVE SMOOTH",
"485.9 388.2 OFFCURVE",
"334.6 302.3 OFFCURVE",
"116.4 300.6 CURVE"
);
}
);
width = 564;
},
{
anchors = (
{
name = bottom;
position = "{301, 0}";
},
{
name = top;
position = "{301, 730}";
}
);
guideLines = (
{
position = "{0, -6}";
}
);
layerId = "53D8B3CD-CAC4-43E9-8418-D21F673F49BB";
paths = (
{
closed = 1;
nodes = (
"513.5 168.7 OFFCURVE",
"479.5 224.4 OFFCURVE",
"428 290.6 CURVE",
"519.3 332.5 OFFCURVE",
"570.4 401.1 OFFCURVE",
"570.4 481.8 CURVE SMOOTH",
"570.4 622 OFFCURVE",
"416.6 706.1 OFFCURVE",
"160.2 706.1 CURVE SMOOTH",
"100.6 706.1 OFFCURVE",
"58 663.5 OFFCURVE",
"60.1 606.2 CURVE SMOOTH",
"63.462 513.022 OFFCURVE",
"67.329 415.879 OFFCURVE",
"67.329 306.765 CURVE SMOOTH",
"67.329 234.135 OFFCURVE",
"65.616 156.2 OFFCURVE",
"60.9 70.6 CURVE SMOOTH",
"58.5 27.5 OFFCURVE",
"95.3 -5.9 OFFCURVE",
"145.1 -5.9 CURVE SMOOTH",
"189.1 -5.9 OFFCURVE",
"219.9 21.2 OFFCURVE",
"222.3 62 CURVE SMOOTH",
"225.9 123.7 OFFCURVE",
"228.3 185.9 OFFCURVE",
"229.5 248.4 CURVE",
"242.2 248.8 OFFCURVE",
"254.6 249.5 OFFCURVE",
"266.6 250.5 CURVE",
"317.8 181.3 OFFCURVE",
"359.9 116.7 OFFCURVE",
"410.1 30.9 CURVE SMOOTH",
"424.3 6.6 OFFCURVE",
"449 -7.3 OFFCURVE",
"478 -7.3 CURVE SMOOTH",
"528.775 -7.3 OFFCURVE",
"561.188 26.696 OFFCURVE",
"561.188 68.242 CURVE SMOOTH",
"561.188 84.628 OFFCURVE",
"556.146 102.188 OFFCURVE",
"545.2 119.3 CURVE SMOOTH"
);
},
{
closed = 1;
nodes = (
"229.5 443.8 OFFCURVE",
"227.6 508.9 OFFCURVE",
"224.3 573.9 CURVE",
"340.5 566 OFFCURVE",
"408.3 531.3 OFFCURVE",
"408.3 479.7 CURVE SMOOTH",
"408.3 424.9 OFFCURVE",
"335.5 383.6 OFFCURVE",
"230.1 378.6 CURVE"
);
}
);
width = 601;
},
{
anchors = (
{
name = bottom;
position = "{301, 0}";
},
{
name = top;
position = "{301, 730}";
}
);
guideLines = (
{
position = "{0, -6}";
showMeasurement = 1;
}
);
layerId = "F9A96203-4E56-41C0-BC85-563659FEF099";
paths = (
{
closed = 1;
nodes = (
"428.6 167.9 OFFCURVE",
"374.5 239.2 OFFCURVE",
"325.2 295.1 CURVE",
"449.3 329.8 OFFCURVE",
"517 401.6 OFFCURVE",
"517 498.3 CURVE SMOOTH",
"517 633.3 OFFCURVE",
"384.6 706 OFFCURVE",
"139 706 CURVE SMOOTH",
"100 706 OFFCURVE",
"79 687.2 OFFCURVE",
"81 654 CURVE SMOOTH",
"86.412 561.988 OFFCURVE",
"89.138 470.303 OFFCURVE",
"89.138 369.115 CURVE SMOOTH",
"89.138 268.391 OFFCURVE",
"86.437 158.252 OFFCURVE",
"81 29 CURVE SMOOTH",
"80.2 9 OFFCURVE",
"95.3 -6.1 OFFCURVE",
"116.1 -6.1 CURVE SMOOTH",
"136.1 -6.1 OFFCURVE",
"150.2 8.1 OFFCURVE",
"151 29 CURVE SMOOTH",
"154.5 116.6 OFFCURVE",
"156.8 197.3 OFFCURVE",
"157.9 272.4 CURVE",
"187.6 273 OFFCURVE",
"216.6 275.2 OFFCURVE",
"244.5 278.9 CURVE",
"306.7 214.8 OFFCURVE",
"390.7 107.5 OFFCURVE",
"457.3 7.3 CURVE SMOOTH",
"463.3 -1.7 OFFCURVE",
"472.4 -6.6 OFFCURVE",
"483.1 -6.6 CURVE SMOOTH",
"504.933 -6.6 OFFCURVE",
"520.247 9.722 OFFCURVE",
"520.247 27.45 CURVE SMOOTH",
"520.247 33.675 OFFCURVE",
"518.359 40.074 OFFCURVE",
"514.2 46 CURVE SMOOTH"
);
},
{
closed = 1;
nodes = (
"159.2 448.5 OFFCURVE",
"157 547.8 OFFCURVE",
"152 640 CURVE",
"339.6 640 OFFCURVE",
"447 587.8 OFFCURVE",
"447 496.8 CURVE SMOOTH",
"447 405.4 OFFCURVE",
"334.4 343.6 OFFCURVE",
"158.6 338.4 CURVE"
);
}
);
width = 571;
}
);
leftKerningGroup = B;
rightKerningGroup = R;
unicode = 0052;
},
{
glyphname = S;
layers = (
{
anchors = (
{
name = bottom;
position = "{255, 0}";
},
{
name = top;
position = "{267, 730}";
}
);
layerId = "9B6556BE-0D60-403F-880A-9E0B7B019CCB";
paths = (
{
closed = 1;
nodes = (
"365.4 -13.3 OFFCURVE",
"453.8 66.2 OFFCURVE",
"453.8 181.6 CURVE SMOOTH",
"453.8 404.5 OFFCURVE",
"93.1 340.3 OFFCURVE",
"93.1 541.6 CURVE SMOOTH",
"93.1 629.3 OFFCURVE",
"165.7 692.5 OFFCURVE",
"266.4 692.5 CURVE SMOOTH",
"313.2 692.5 OFFCURVE",
"359.9 678.8 OFFCURVE",
"406.1 651.6 CURVE SMOOTH",
"412.8 647.6 OFFCURVE",
"420.8 651.7 OFFCURVE",
"420.8 659.1 CURVE SMOOTH",
"420.8 662.2 OFFCURVE",
"419.1 664.9 OFFCURVE",
"416.1 666.7 CURVE SMOOTH",
"367.5 694.8 OFFCURVE",
"315.1 709.8 OFFCURVE",
"264.9 709.8 CURVE SMOOTH",
"154.8 709.8 OFFCURVE",
"75.3 638.5 OFFCURVE",
"75.3 539.8 CURVE SMOOTH",
"75.3 326.5 OFFCURVE",
"436 391.6 OFFCURVE",
"436 177.6 CURVE SMOOTH",
"436 78.9 OFFCURVE",
"356 7.5 OFFCURVE",
"245.5 7.5 CURVE SMOOTH",
"181.6 7.5 OFFCURVE",
"124.1 31.4 OFFCURVE",
"65.4 82.3 CURVE SMOOTH",
"59.4 87.5 OFFCURVE",
"50.1 83.4 OFFCURVE",
"50.1 75.6 CURVE SMOOTH",
"50.1 73.1 OFFCURVE",
"51.2 70.7 OFFCURVE",
"53.4 68.7 CURVE SMOOTH",
"108.9 18.5 OFFCURVE",
"171.8 -7.9 OFFCURVE",
"240.8 -9.8 CURVE SMOOTH"
);
}
);
width = 524;
},
{
anchors = (
{
name = bottom;
position = "{255, 0}";
},
{
name = top;
position = "{283, 730}";
}
);
layerId = "53D8B3CD-CAC4-43E9-8418-D21F673F49BB";
paths = (
{
closed = 1;
nodes = (
"409.7 -9.5 OFFCURVE",
"518.7 78.6 OFFCURVE",
"518.7 212.7 CURVE SMOOTH",
"518.7 446 OFFCURVE",
"200.3 408.8 OFFCURVE",
"200.3 522.2 CURVE SMOOTH",
"200.3 557.1 OFFCURVE",
"230.9 580 OFFCURVE",
"277.5 580 CURVE SMOOTH",
"309.9 580 OFFCURVE",
"335.2 567.9 OFFCURVE",
"390.3 542.4 CURVE SMOOTH",
"401.499 537.19 OFFCURVE",
"412.968 534.788 OFFCURVE",
"423.991 534.788 CURVE SMOOTH",
"461.001 534.788 OFFCURVE",
"493 561.867 OFFCURVE",
"493 600.7 CURVE SMOOTH",
"493 625.8 OFFCURVE",
"479.5 648.1 OFFCURVE",
"455.8 662.1 CURVE SMOOTH",
"402 693.7 OFFCURVE",
"344.1 709.7 OFFCURVE",
"282.6 709.7 CURVE SMOOTH",
"141.2 709.7 OFFCURVE",
"38.2 623.5 OFFCURVE",
"38.2 505.2 CURVE SMOOTH",
"38.2 286.3 OFFCURVE",
"356.7 333.2 OFFCURVE",
"356.7 198.7 CURVE SMOOTH",
"356.7 152.8 OFFCURVE",
"316.3 119.6 OFFCURVE",
"260.5 119.6 CURVE SMOOTH",
"202.3 119.6 OFFCURVE",
"183.5 156.9 OFFCURVE",
"122.1 187.2 CURVE SMOOTH",
"112.073 192.138 OFFCURVE",
"101.651 194.407 OFFCURVE",
"91.464 194.407 CURVE SMOOTH",
"54.203 194.407 OFFCURVE",
"20.1 164.05 OFFCURVE",
"20.1 122.9 CURVE SMOOTH",
"20.1 102.7 OFFCURVE",
"29.3 83 OFFCURVE",
"46.7 65.8 CURVE SMOOTH",
"95.8 17.3 OFFCURVE",
"165.8 -9.5 OFFCURVE",
"243.5 -9.5 CURVE SMOOTH"
);
}
);
width = 554;
},
{
anchors = (
{
name = bottom;
position = "{255, 0}";
},
{
name = top;
position = "{255, 730}";
}
);
layerId = "F9A96203-4E56-41C0-BC85-563659FEF099";
paths = (
{
closed = 1;
nodes = (
"376.6 -10 OFFCURVE",
"469 74.4 OFFCURVE",
"469 194.7 CURVE SMOOTH",
"469 423.3 OFFCURVE",
"135 366.4 OFFCURVE",
"135 535.2 CURVE SMOOTH",
"135 601 OFFCURVE",
"186.7 644 OFFCURVE",
"266 644 CURVE SMOOTH",
"306.8 644 OFFCURVE",
"345.8 632.4 OFFCURVE",
"384 609 CURVE SMOOTH",
"390.633 604.918 OFFCURVE",
"397.669 603.058 OFFCURVE",
"404.414 603.058 CURVE SMOOTH",
"422.788 603.058 OFFCURVE",
"439 616.865 OFFCURVE",
"439 637.2 CURVE SMOOTH",
"439 649.3 OFFCURVE",
"432.2 659.9 OFFCURVE",
"420 667 CURVE SMOOTH",
"371.8 695 OFFCURVE",
"318.8 710 OFFCURVE",
"268 710 CURVE SMOOTH",
"149.1 710 OFFCURVE",
"65 635.5 OFFCURVE",
"65 530.3 CURVE SMOOTH",
"65 315.6 OFFCURVE",
"399 367.5 OFFCURVE",
"399 192.8 CURVE SMOOTH",
"399 115.8 OFFCURVE",
"333 56 OFFCURVE",
"248 56 CURVE SMOOTH",
"197.2 56 OFFCURVE",
"143.1 79.5 OFFCURVE",
"103 119 CURVE SMOOTH",
"94.812 127.085 OFFCURVE",
"84.934 130.734 OFFCURVE",
"75.484 130.734 CURVE SMOOTH",
"57.352 130.734 OFFCURVE",
"40.8 117.3 OFFCURVE",
"40.8 96 CURVE SMOOTH",
"40.8 86.3 OFFCURVE",
"45 77 OFFCURVE",
"53 69 CURVE SMOOTH",
"105.2 16.8 OFFCURVE",
"170.3 -10 OFFCURVE",
"245 -10 CURVE SMOOTH"
);
}
);
width = 524;
}
);
leftKerningGroup = S;
rightKerningGroup = S1;
unicode = 0053;
},
{
glyphname = q;
layers = (
{
layerId = "9B6556BE-0D60-403F-880A-9E0B7B019CCB";
paths = (
{
closed = 1;
nodes = (
"364.2 -10.4 OFFCURVE",
"431.5 42.6 OFFCURVE",
"461 133.8 CURVE",
"462.3 37.6 OFFCURVE",
"465.5 -68 OFFCURVE",
"471 -191.4 CURVE SMOOTH",
"471.2 -197.5 OFFCURVE",
"474.8 -201.5 OFFCURVE",
"479.8 -201.5 CURVE SMOOTH",
"485.4 -201.5 OFFCURVE",
"489.6 -196.6 OFFCURVE",
"489.3 -190.4 CURVE SMOOTH",
"482.153 -34.638 OFFCURVE",
"478.553 98.768 OFFCURVE",
"478.553 221.917 CURVE SMOOTH",
"478.553 317.612 OFFCURVE",
"480.727 407.114 OFFCURVE",
"485.1 496.1 CURVE SMOOTH",
"485.3 501.2 OFFCURVE",
"481.5 505 OFFCURVE",
"476.2 505 CURVE SMOOTH",
"471 505 OFFCURVE",
"467.3 501.4 OFFCURVE",
"467 496.1 CURVE SMOOTH",
"464.7 453.5 OFFCURVE",
"462.9 407.4 OFFCURVE",
"461.8 359.3 CURVE",
"433.7 455.7 OFFCURVE",
"368.6 510.3 OFFCURVE",
"281.9 510.3 CURVE SMOOTH",
"155.4 510.3 OFFCURVE",
"65.7 401 OFFCURVE",
"65.7 246.9 CURVE SMOOTH",
"65.7 96.3 OFFCURVE",
"153.7 -10.4 OFFCURVE",
"277.8 -10.4 CURVE SMOOTH"
);
},
{
closed = 1;
nodes = (
"168.1 6.8 OFFCURVE",
"84.9 109.8 OFFCURVE",
"84.9 247.4 CURVE SMOOTH",
"84.9 390.4 OFFCURVE",
"167.1 492.6 OFFCURVE",
"281.9 492.6 CURVE SMOOTH",
"391 492.6 OFFCURVE",
"460 397.7 OFFCURVE",
"460 247.6 CURVE SMOOTH",
"460 104.6 OFFCURVE",
"386.5 6.8 OFFCURVE",
"279.1 6.8 CURVE SMOOTH"
);
}
);
width = 570;
},
{
guideLines = (
{
position = "{0, 506}";
}
);
layerId = "53D8B3CD-CAC4-43E9-8418-D21F673F49BB";
paths = (
{
closed = 1;
nodes = (
"335.9 -9.8 OFFCURVE",
"388 9.7 OFFCURVE",
"427.4 46.6 CURVE",
"429.4 -9 OFFCURVE",
"432.4 -70.8 OFFCURVE",
"436.6 -146.8 CURVE SMOOTH",
"438.9 -188.3 OFFCURVE",
"471.8 -216.8 OFFCURVE",
"517.4 -216.8 CURVE SMOOTH",
"567.4 -216.8 OFFCURVE",
"601.8 -183.5 OFFCURVE",
"597.3 -139.5 CURVE SMOOTH",
"586.411 -34.376 OFFCURVE",
"580.891 79.446 OFFCURVE",
"580.891 192.158 CURVE SMOOTH",
"580.891 267.829 OFFCURVE",
"583.379 342.999 OFFCURVE",
"588.4 414.7 CURVE SMOOTH",
"592 466.9 OFFCURVE",
"558.1 505.6 OFFCURVE",
"508.6 505.6 CURVE SMOOTH",
"472.01 505.6 OFFCURVE",
"441.418 482.965 OFFCURVE",
"432.2 447.8 CURVE",
"393 488.7 OFFCURVE",
"340.1 510.2 OFFCURVE",
"278.8 510.2 CURVE SMOOTH",
"139.2 510.2 OFFCURVE",
"35.4 398.5 OFFCURVE",
"35.4 248.2 CURVE SMOOTH",
"35.4 99 OFFCURVE",
"137.1 -9.8 OFFCURVE",
"276.6 -9.8 CURVE SMOOTH"
);
},
{
closed = 1;
nodes = (
"246.5 120.2 OFFCURVE",
"195.4 173.9 OFFCURVE",
"195.4 244.9 CURVE SMOOTH",
"195.4 318.7 OFFCURVE",
"251.3 380.2 OFFCURVE",
"318.5 380.2 CURVE SMOOTH",
"380.6 380.2 OFFCURVE",
"422.4 327.3 OFFCURVE",
"422.4 248.9 CURVE SMOOTH",
"422.4 171.4 OFFCURVE",
"379.2 120.2 OFFCURVE",
"313.9 120.2 CURVE SMOOTH"
);
}
);
width = 648;
},
{
layerId = "F9A96203-4E56-41C0-BC85-563659FEF099";
paths = (
{
closed = 1;
nodes = (
"334.4 -9.6 OFFCURVE",
"384.8 14.7 OFFCURVE",
"420.6 57.6 CURVE",
"422.2 -16.9 OFFCURVE",
"425 -93.6 OFFCURVE",
"429 -172.7 CURVE SMOOTH",
"430.1 -195 OFFCURVE",
"447.2 -206 OFFCURVE",
"464.2 -206 CURVE SMOOTH",
"482.7 -206 OFFCURVE",
"501.1 -193.1 OFFCURVE",
"499 -167.7 CURVE SMOOTH",
"489.146 -69.164 OFFCURVE",
"484.833 34.725 OFFCURVE",
"484.833 144.984 CURVE SMOOTH",
"484.833 247.329 OFFCURVE",
"488.549 355.163 OFFCURVE",
"495 469.3 CURVE SMOOTH",
"496.4 493.7 OFFCURVE",
"478 506.3 OFFCURVE",
"459.7 506.3 CURVE SMOOTH",
"442.8 506.3 OFFCURVE",
"426 495.6 OFFCURVE",
"425 473.3 CURVE SMOOTH",
"424.5 461.6 OFFCURVE",
"424 449.8 OFFCURVE",
"423.5 437.9 CURVE",
"388.1 484.2 OFFCURVE",
"337.4 510.3 OFFCURVE",
"276 510.3 CURVE SMOOTH",
"149 510.3 OFFCURVE",
"55 398.3 OFFCURVE",
"55 248.3 CURVE SMOOTH",
"55 98.3 OFFCURVE",
"148 -9.7 OFFCURVE",
"274 -9.6 CURVE SMOOTH"
);
},
{
closed = 1;
nodes = (
"192 56.3 OFFCURVE",
"126 136.3 OFFCURVE",
"126 242.3 CURVE SMOOTH",
"126 352.3 OFFCURVE",
"198 444.3 OFFCURVE",
"285 444.3 CURVE SMOOTH",
"365 444.3 OFFCURVE",
"419 365.3 OFFCURVE",
"419 248.3 CURVE SMOOTH",
"419 132.3 OFFCURVE",
"363 56.3 OFFCURVE",
"279 56.3 CURVE SMOOTH"
);
}
);
width = 570;
}
);
unicode = 0071;
},
{
glyphname = r;
layers = (
{
anchors = (
{
name = bottom;
position = "{96, 0}";
},
{
name = top;
position = "{221, 530}";
}
);
layerId = "9B6556BE-0D60-403F-880A-9E0B7B019CCB";
paths = (
{
closed = 1;
nodes = (
"111.5 107.7 OFFCURVE",
"112.8 210.7 OFFCURVE",
"110.1 308.1 CURVE",
"127.1 425.6 OFFCURVE",
"181.8 492.6 OFFCURVE",
"260.7 492.6 CURVE SMOOTH",
"285.9 492.6 OFFCURVE",
"313 485.7 OFFCURVE",
"341.5 472.5 CURVE SMOOTH",
"347.6 469.7 OFFCURVE",
"354.5 474.4 OFFCURVE",
"354.5 481.5 CURVE SMOOTH",
"354.5 499.557 OFFCURVE",
"277.144 509.5 OFFCURVE",
"262.7 509.5 CURVE SMOOTH",
"187.8 509.5 OFFCURVE",
"131.5 460.7 OFFCURVE",
"107.7 374.9 CURVE",
"105.6 417.9 OFFCURVE",
"102.8 458.9 OFFCURVE",
"98.9 497.4 CURVE SMOOTH",
"98.4 502.8 OFFCURVE",
"94.4 506.7 OFFCURVE",
"89.3 506.7 CURVE SMOOTH",
"83.7 506.7 OFFCURVE",
"80.1 502 OFFCURVE",
"80.7 495.5 CURVE SMOOTH",
"89.624 406.021 OFFCURVE",
"94.294 311.961 OFFCURVE",
"94.294 212.049 CURVE SMOOTH",
"94.294 146.258 OFFCURVE",
"92.269 77.929 OFFCURVE",
"88.1 6.7 CURVE SMOOTH",
"87.8 1.6 OFFCURVE",
"91.8 -2.3 OFFCURVE",
"97.3 -2.3 CURVE SMOOTH",
"102.1 -2.3 OFFCURVE",
"105.6 0.7 OFFCURVE",
"105.8 5.3 CURVE SMOOTH"
);
}
);
width = 392;
},
{
anchors = (
{
name = bottom;
position = "{131, 0}";
},
{
name = top;
position = "{247, 530}";
}
);
guideLines = (
{
position = "{0, 506}";
}
);
layerId = "53D8B3CD-CAC4-43E9-8418-D21F673F49BB";
paths = (
{
closed = 1;
nodes = (
"215.4 133.7 OFFCURVE",
"217.7 187.2 OFFCURVE",
"217.7 238.1 CURVE SMOOTH",
"217.7 330.4 OFFCURVE",
"247.9 379.7 OFFCURVE",
"304.6 379.7 CURVE SMOOTH",
"337.2 379.7 OFFCURVE",
"347.7 364.1 OFFCURVE",
"377.6 364.1 CURVE SMOOTH",
"415.8 364.1 OFFCURVE",
"444 391.9 OFFCURVE",
"444 429.6 CURVE SMOOTH",
"444 486.111 OFFCURVE",
"388.287 510.3 OFFCURVE",
"338.8 510.3 CURVE SMOOTH",
"282.2 510.3 OFFCURVE",
"239.9 485.4 OFFCURVE",
"209.9 434.3 CURVE",
"205.559 476.922 OFFCURVE",
"174.906 506.1 OFFCURVE",
"130.7 506.1 CURVE SMOOTH",
"82.3 506.1 OFFCURVE",
"47.2 471.6 OFFCURVE",
"50.3 426.9 CURVE SMOOTH",
"55.3 355 OFFCURVE",
"57.8 298.8 OFFCURVE",
"57.8 242.6 CURVE SMOOTH",
"57.8 186.4 OFFCURVE",
"55.3 130.2 OFFCURVE",
"50.3 58.3 CURVE SMOOTH",
"47.8 22.2 OFFCURVE",
"82.8 -5.6 OFFCURVE",
"130.7 -5.6 CURVE SMOOTH",
"175.8 -5.6 OFFCURVE",
"207.6 19.6 OFFCURVE",
"210.2 57.3 CURVE SMOOTH"
);
}
);
width = 444;
},
{
anchors = (
{
name = bottom;
position = "{111, 0}";
},
{
name = top;
position = "{221, 530}";
}
);
layerId = "F9A96203-4E56-41C0-BC85-563659FEF099";
paths = (
{
closed = 1;
nodes = (
"150.2 111.8 OFFCURVE",
"150.6 207.5 OFFCURVE",
"147.2 321.5 CURVE",
"163.5 400.4 OFFCURVE",
"203.4 443 OFFCURVE",
"261 443 CURVE SMOOTH",
"279.8 443 OFFCURVE",
"300.8 438.3 OFFCURVE",
"323 429 CURVE SMOOTH",
"328.368 426.751 OFFCURVE",
"333.775 425.706 OFFCURVE",
"338.938 425.706 CURVE SMOOTH",
"356.956 425.706 OFFCURVE",
"372 438.423 OFFCURVE",
"372 457 CURVE SMOOTH",
"372 497.625 OFFCURVE",
"308.123 510 OFFCURVE",
"278 510 CURVE SMOOTH",
"222.2 510 OFFCURVE",
"175.8 484.3 OFFCURVE",
"142.9 435.2 CURVE",
"142.3 447.9 OFFCURVE",
"141.8 460.9 OFFCURVE",
"141 474 CURVE SMOOTH",
"139.9 493.1 OFFCURVE",
"125.7 506.2 OFFCURVE",
"106.1 506.2 CURVE SMOOTH",
"84 506.2 OFFCURVE",
"68.8 490.1 OFFCURVE",
"71 469 CURVE SMOOTH",
"78.819 393.046 OFFCURVE",
"82.698 311.666 OFFCURVE",
"82.698 223.376 CURVE SMOOTH",
"82.698 161.483 OFFCURVE",
"80.791 96.195 OFFCURVE",
"77 27 CURVE SMOOTH",
"76 8.4 OFFCURVE",
"90.9 -5.9 OFFCURVE",
"111.3 -5.9 CURVE SMOOTH",
"131 -5.9 OFFCURVE",
"145 7.7 OFFCURVE",
"146 28 CURVE SMOOTH"
);
}
);
width = 392;
}
);
leftKerningGroup = r;
rightKerningGroup = r1;
unicode = 0072;
},
{
glyphname = t;
layers = (
{
anchors = (
{
name = bottom;
position = "{227, 0}";
},
{
name = right;
position = "{350, 700}";
}
);
layerId = "9B6556BE-0D60-403F-880A-9E0B7B019CCB";
paths = (
{
closed = 1;
nodes = (
"308 489.1 OFFCURVE",
"310.9 493 OFFCURVE",
"310.9 497.8 CURVE SMOOTH",
"310.9 503.8 OFFCURVE",
"306.5 507.3 OFFCURVE",
"300.1 506.3 CURVE SMOOTH",
"250.2 498.5 OFFCURVE",
"200 493.2 OFFCURVE",
"146.2 490.1 CURVE",
"144.2 545.7 OFFCURVE",
"141 601.3 OFFCURVE",
"136.7 655.7 CURVE SMOOTH",
"136.3 660.9 OFFCURVE",
"132.7 664.4 OFFCURVE",
"127.7 664.4 CURVE SMOOTH",
"122.4 664.4 OFFCURVE",
"118.3 659.1 OFFCURVE",
"118.8 652.9 CURVE SMOOTH",
"123.5 599 OFFCURVE",
"126.9 545.4 OFFCURVE",
"129 489.1 CURVE",
"102.5 487.9 OFFCURVE",
"75 487.1 OFFCURVE",
"45.9 486.8 CURVE SMOOTH",
"39.7 486.7 OFFCURVE",
"35.4 483.3 OFFCURVE",
"35.4 478.4 CURVE SMOOTH",
"35.4 473.3 OFFCURVE",
"40 469.6 OFFCURVE",
"46.3 469.7 CURVE SMOOTH",
"73.7 469.9 OFFCURVE",
"101.3 470.7 OFFCURVE",
"129.6 472.1 CURVE",
"133.3 359.6 OFFCURVE",
"132.3 235.2 OFFCURVE",
"126.9 89.6 CURVE SMOOTH",
"124.8 31.5 OFFCURVE",
"166.2 -9.7 OFFCURVE",
"226.7 -9.7 CURVE SMOOTH",
"242.307 -9.7 OFFCURVE",
"319.1 3.318 OFFCURVE",
"319.1 22.5 CURVE SMOOTH",
"319.1 30.2 OFFCURVE",
"311.5 33.8 OFFCURVE",
"304.2 29.5 CURVE SMOOTH",
"279.3 14.8 OFFCURVE",
"252.1 6.8 OFFCURVE",
"227.1 6.8 CURVE SMOOTH",
"177.8 6.8 OFFCURVE",
"142.5 42.3 OFFCURVE",
"144.5 90 CURVE SMOOTH",
"149.9 218.3 OFFCURVE",
"150.7 350 OFFCURVE",
"146.7 473 CURVE",
"199.1 476 OFFCURVE",
"250.8 481.1 OFFCURVE",
"304 488.5 CURVE SMOOTH"
);
}
);
width = 373;
},
{
anchors = (
{
name = bottom;
position = "{250, 0}";
},
{
name = right;
position = "{390, 700}";
}
);
layerId = "53D8B3CD-CAC4-43E9-8418-D21F673F49BB";
paths = (
{
closed = 1;
nodes = (
"378 381.3 OFFCURVE",
"403.8 407.6 OFFCURVE",
"403.8 440.6 CURVE SMOOTH",
"403.8 483.7 OFFCURVE",
"362.8 510.8 OFFCURVE",
"312.3 501.3 CURVE SMOOTH",
"294.4 497.9 OFFCURVE",
"276 495.2 OFFCURVE",
"256.3 493 CURVE",
"254.6 526.4 OFFCURVE",
"252.3 558.3 OFFCURVE",
"249.1 595.4 CURVE SMOOTH",
"245.9 631.4 OFFCURVE",
"215.3 655.7 OFFCURVE",
"173.2 655.7 CURVE SMOOTH",
"122 655.7 OFFCURVE",
"86.3 621.4 OFFCURVE",
"90.8 576.6 CURVE SMOOTH",
"93.7 547.9 OFFCURVE",
"96.2 516.7 OFFCURVE",
"98 487 CURVE",
"88.4 487 OFFCURVE",
"78.6 487 OFFCURVE",
"68.8 487 CURVE SMOOTH",
"31.8 487 OFFCURVE",
"5.4 460.5 OFFCURVE",
"5.4 423.5 CURVE SMOOTH",
"5.4 387 OFFCURVE",
"31.1 359.8 OFFCURVE",
"67.9 357.3 CURVE SMOOTH",
"79.3 356.5 OFFCURVE",
"90.7 355.9 OFFCURVE",
"102.1 355.5 CURVE",
"102.2 289.6 OFFCURVE",
"99.5 221.6 OFFCURVE",
"93.6 146.9 CURVE SMOOTH",
"86.6 56.1 OFFCURVE",
"155.5 -9.9 OFFCURVE",
"257.4 -9.9 CURVE SMOOTH",
"299.3 -9.9 OFFCURVE",
"341.3 0.7 OFFCURVE",
"386.9 22.5 CURVE SMOOTH",
"413 35 OFFCURVE",
"428 57.6 OFFCURVE",
"428 84.8 CURVE SMOOTH",
"428 124.014 OFFCURVE",
"400.163 150.753 OFFCURVE",
"367.355 150.753 CURVE SMOOTH",
"356.993 150.753 OFFCURVE",
"346.134 148.085 OFFCURVE",
"335.5 142.3 CURVE SMOOTH",
"320.2 134 OFFCURVE",
"305.4 129.6 OFFCURVE",
"292.5 129.6 CURVE SMOOTH",
"268.5 129.6 OFFCURVE",
"254.3 143.5 OFFCURVE",
"255.5 165.8 CURVE SMOOTH",
"259.2 230.6 OFFCURVE",
"260.7 296.2 OFFCURVE",
"260.2 361.5 CURVE",
"286.2 364.5 OFFCURVE",
"312.1 368.5 OFFCURVE",
"337.9 373.5 CURVE SMOOTH"
);
}
);
width = 439;
},
{
anchors = (
{
name = bottom;
position = "{227, 0}";
},
{
name = right;
position = "{366, 700}";
}
);
layerId = "F9A96203-4E56-41C0-BC85-563659FEF099";
paths = (
{
closed = 1;
nodes = (
"331 448.1 OFFCURVE",
"342.4 460.9 OFFCURVE",
"342.4 477.6 CURVE SMOOTH",
"342.4 498.9 OFFCURVE",
"325.1 513.5 OFFCURVE",
"304 510 CURVE SMOOTH",
"255.7 502.1 OFFCURVE",
"219.1 497.4 OFFCURVE",
"184.4 494.9 CURVE",
"183.3 525.5 OFFCURVE",
"181.8 558.7 OFFCURVE",
"179 617 CURVE SMOOTH",
"178 637.2 OFFCURVE",
"163.7 651.2 OFFCURVE",
"143.8 651.2 CURVE SMOOTH",
"122 651.2 OFFCURVE",
"107 634.8 OFFCURVE",
"109 613 CURVE SMOOTH",
"112.3 577.6 OFFCURVE",
"115.1 536.6 OFFCURVE",
"117.3 492.3 CURVE",
"99.5 492.1 OFFCURVE",
"80.4 492.4 OFFCURVE",
"59 493 CURVE SMOOTH",
"39.8 493.6 OFFCURVE",
"25.7 479.8 OFFCURVE",
"25.7 460.5 CURVE SMOOTH",
"25.7 441.3 OFFCURVE",
"39.8 427.6 OFFCURVE",
"60 427 CURVE SMOOTH",
"81.8 426.3 OFFCURVE",
"101.4 426 OFFCURVE",
"119.9 426.1 CURVE",
"123.7 307.4 OFFCURVE",
"122.6 189.6 OFFCURVE",
"117 121 CURVE SMOOTH",
"110.5 41.1 OFFCURVE",
"153.4 -10 OFFCURVE",
"227 -10 CURVE SMOOTH",
"256.551 -10 OFFCURVE",
"340.8 2.641 OFFCURVE",
"340.8 43.9 CURVE SMOOTH",
"340.8 68.7 OFFCURVE",
"318.3 83.5 OFFCURVE",
"295 74 CURVE SMOOTH",
"262.1 60.6 OFFCURVE",
"245.6 56 OFFCURVE",
"231 56 CURVE SMOOTH",
"196.4 56 OFFCURVE",
"182.7 82.5 OFFCURVE",
"186 144 CURVE SMOOTH",
"189.9 215.6 OFFCURVE",
"190.1 310.7 OFFCURVE",
"186.7 428.3 CURVE",
"223.8 431 OFFCURVE",
"261.6 436 OFFCURVE",
"313 445 CURVE SMOOTH"
);
}
);
width = 373;
}
);
leftKerningGroup = t;
rightKerningGroup = t1;
unicode = 0074;
},
{
glyphname = e;
layers = (
{
anchors = (
{
name = bottom;
position = "{301, 0}";
},
{
name = top;
position = "{288, 550}";
}
);
layerId = "9B6556BE-0D60-403F-880A-9E0B7B019CCB";
paths = (
{
closed = 1;
nodes = (
"380.2 -10.1 OFFCURVE",
"449.7 25.5 OFFCURVE",
"494.9 88.5 CURVE SMOOTH",
"500.7 96.7 OFFCURVE",
"497.7 105.1 OFFCURVE",
"488.9 105.1 CURVE SMOOTH",
"485.1 105.1 OFFCURVE",
"481.6 103.2 OFFCURVE",
"479.4 99.9 CURVE SMOOTH",
"439.6 41.2 OFFCURVE",
"374.3 7.3 OFFCURVE",
"301 7.3 CURVE SMOOTH",
"177.1 7.3 OFFCURVE",
"87 106 OFFCURVE",
"83.3 245.8 CURVE",
"492.9 245.8 LINE SMOOTH",
"501.7 245.8 OFFCURVE",
"507.8 251.7 OFFCURVE",
"507.8 260.2 CURVE SMOOTH",
"507.8 405.2 OFFCURVE",
"415.9 511.1 OFFCURVE",
"286.5 511.1 CURVE SMOOTH",
"157.9 511.1 OFFCURVE",
"65.2 405.5 OFFCURVE",
"65.2 256.7 CURVE SMOOTH",
"65.2 101.7 OFFCURVE",
"165.1 -10.1 OFFCURVE",
"302.9 -10.1 CURVE SMOOTH"
);
},
{
closed = 1;
nodes = (
"83.3 262.7 LINE",
"86.4 401 OFFCURVE",
"169.6 493.8 OFFCURVE",
"288.1 493.8 CURVE SMOOTH",
"406.2 493.8 OFFCURVE",
"486.5 400.5 OFFCURVE",
"489.6 262.7 CURVE"
);
}
);
width = 560;
},
{
anchors = (
{
name = bottom;
position = "{294, 0}";
},
{
name = top;
position = "{299, 550}";
}
);
guideLines = (
{
position = "{0, -10}";
},
{
position = "{0, 120}";
showMeasurement = 1;
}
);
layerId = "53D8B3CD-CAC4-43E9-8418-D21F673F49BB";
paths = (
{
closed = 1;
nodes = (
"374.735 -9.9 OFFCURVE",
"526.06 25.731 OFFCURVE",
"526.06 113.794 CURVE SMOOTH",
"526.06 147.334 OFFCURVE",
"502.365 177 OFFCURVE",
"460.1 177 CURVE SMOOTH",
"444.2 177 OFFCURVE",
"428.3 171.4 OFFCURVE",
"413.6 160.6 CURVE SMOOTH",
"378.1 134.7 OFFCURVE",
"340.5 120.8 OFFCURVE",
"305.6 120.8 CURVE SMOOTH",
"248.9 120.8 OFFCURVE",
"207.4 156.6 OFFCURVE",
"194.6 216.4 CURVE",
"479.9 216.4 LINE SMOOTH",
"520.6 216.4 OFFCURVE",
"543.1 243.4 OFFCURVE",
"543.1 292.3 CURVE SMOOTH",
"543.1 413.2 OFFCURVE",
"434.4 510.3 OFFCURVE",
"299.1 510.3 CURVE SMOOTH",
"146.6 510.3 OFFCURVE",
"35.4 402.1 OFFCURVE",
"35.4 253.6 CURVE SMOOTH",
"35.4 103.6 OFFCURVE",
"152.8 -9.9 OFFCURVE",
"308.2 -9.9 CURVE SMOOTH"
);
},
{
closed = 1;
nodes = (
"194.2 292 LINE",
"206.7 344.9 OFFCURVE",
"248.7 379.7 OFFCURVE",
"300.3 379.7 CURVE SMOOTH",
"351.9 379.7 OFFCURVE",
"392.3 345.7 OFFCURVE",
"404.5 292 CURVE"
);
}
);
width = 579;
},
{
anchors = (
{
name = bottom;
position = "{294, 0}";
},
{
name = top;
position = "{280, 550}";
}
);
layerId = "F9A96203-4E56-41C0-BC85-563659FEF099";
paths = (
{
closed = 1;
nodes = (
"372.6 -10 OFFCURVE",
"443.1 25.5 OFFCURVE",
"487 87.1 CURVE SMOOTH",
"493.192 95.756 OFFCURVE",
"496.041 104.812 OFFCURVE",
"496.041 113.151 CURVE SMOOTH",
"496.041 131.206 OFFCURVE",
"482.685 145.9 OFFCURVE",
"461 145.9 CURVE SMOOTH",
"448.9 145.9 OFFCURVE",
"438.2 140.1 OFFCURVE",
"431.3 129.8 CURVE SMOOTH",
"400.1 83.2 OFFCURVE",
"350.1 56 OFFCURVE",
"293.8 56 CURVE SMOOTH",
"204.9 56 OFFCURVE",
"136.9 124.6 OFFCURVE",
"126.4 226.4 CURVE",
"469.1 226.4 LINE SMOOTH",
"492 226.4 OFFCURVE",
"505 238.9 OFFCURVE",
"505 261 CURVE SMOOTH",
"505 407.4 OFFCURVE",
"413.6 510 OFFCURVE",
"283.3 510 CURVE SMOOTH",
"149.1 510 OFFCURVE",
"55 404.5 OFFCURVE",
"55 254 CURVE SMOOTH",
"55 101.4 OFFCURVE",
"155.9 -10 OFFCURVE",
"294.1 -10 CURVE SMOOTH"
);
},
{
closed = 1;
nodes = (
"127.6 292 LINE",
"140.4 384.8 OFFCURVE",
"201.2 444 OFFCURVE",
"283.8 444 CURVE SMOOTH",
"364.7 444 OFFCURVE",
"422.1 385.5 OFFCURVE",
"433.1 292 CURVE"
);
}
);
width = 560;
}
);
leftKerningGroup = e;
rightKerningGroup = e1;
unicode = 0065;
},
{
glyphname = a;
layers = (
{
anchors = (
{
name = top;
position = "{316, 550}";
}
);
layerId = "9B6556BE-0D60-403F-880A-9E0B7B019CCB";
paths = (
{
closed = 1;
nodes = (
"475.561 70. OFFCURVE",
"474.335 137.895 OFFCURVE",
"474.335 213.11 CURVE SMOOTH",
"474.335 292.068 OFFCURVE",
"475.686 379.094 OFFCURVE",
"478.4 478.5 CURVE SMOOTH",
"478.7 489.3 OFFCURVE",
"475.7 493.8 OFFCURVE",
"466.4 495.9 CURVE SMOOTH",
"426.2 505.3 OFFCURVE",
"387.3 510.1 OFFCURVE",
"350.5 510.1 CURVE SMOOTH",
"176.8 510.1 OFFCURVE",
"66 406.2 OFFCURVE",
"66 243.6 CURVE SMOOTH",
"66 100.4 OFFCURVE",
"161.1 -10 OFFCURVE",
"284.6 -10 CURVE SMOOTH",
"352 -10 OFFCURVE",
"413.5 25 OFFCURVE",
"456.8 87.1 CURVE",
"457.3 59.4 OFFCURVE",
"458 32.3 OFFCURVE",
"458.8 5.7 CURVE SMOOTH",
"459 -1.2 OFFCURVE",
"462.6 -5.6 OFFCURVE",
"467.9 -5.6 CURVE SMOOTH",
"473.7 -5.6 OFFCURVE",
"478.3 -0.5 OFFCURVE",
"478 5.7 CURVE SMOOTH"
);
},
{
closed = 1;
nodes = (
"412.8 46.7 OFFCURVE",
"350 6.7 OFFCURVE",
"282.1 6.7 CURVE SMOOTH",
"170 6.7 OFFCURVE",
"84.8 108.6 OFFCURVE",
"84.8 242.6 CURVE SMOOTH",
"84.8 393 OFFCURVE",
"190.4 492.9 OFFCURVE",
"349.5 492.9 CURVE SMOOTH",
"384.2 492.9 OFFCURVE",
"421 487.3 OFFCURVE",
"459.6 476.3 CURVE",
"456 343.7 OFFCURVE",
"455 225.9 OFFCURVE",
"456.4 117.4 CURVE"
);
}
);
width = 554;
},
{
anchors = (
{
name = top;
position = "{320, 550}";
}
);
guideLines = (
{
position = "{0, -10}";
}
);
layerId = "53D8B3CD-CAC4-43E9-8418-D21F673F49BB";
paths = (
{
closed = 1;
nodes = (
"530.4 157.2 OFFCURVE",
"526.6 250.1 OFFCURVE",
"532 387.3 CURVE SMOOTH",
"533.8 430.8 OFFCURVE",
"507.4 465.8 OFFCURVE",
"460.9 487.2 CURVE SMOOTH",
"428.4 502.1 OFFCURVE",
"386.3 510.4 OFFCURVE",
"337 510.4 CURVE SMOOTH",
"160.7 510.4 OFFCURVE",
"35.5 396.5 OFFCURVE",
"35.5 236 CURVE SMOOTH",
"35.5 97.4 OFFCURVE",
"125.3 -9.9 OFFCURVE",
"241.4 -9.9 CURVE SMOOTH",
"299.5 -9.9 OFFCURVE",
"358.4 17.3 OFFCURVE",
"392.4 59.8 CURVE",
"393.2 55.4 OFFCURVE",
"394.1 50 OFFCURVE",
"395.3 43.4 CURVE SMOOTH",
"401.3 11.2 OFFCURVE",
"430.4 -9.7 OFFCURVE",
"469.2 -9.7 CURVE SMOOTH",
"520.8 -9.7 OFFCURVE",
"552.9 25.8 OFFCURVE",
"544.8 73.6 CURVE SMOOTH"
);
},
{
closed = 1;
nodes = (
"349.4 138 OFFCURVE",
"322.8 129.6 OFFCURVE",
"298.4 129.6 CURVE SMOOTH",
"239.1 129.6 OFFCURVE",
"198.2 176.3 OFFCURVE",
"198.2 243.9 CURVE SMOOTH",
"198.2 322.8 OFFCURVE",
"252.6 378.5 OFFCURVE",
"329.4 378.5 CURVE SMOOTH",
"342.9 378.5 OFFCURVE",
"356.8 376.6 OFFCURVE",
"370.9 372.9 CURVE",
"368.1 293.4 OFFCURVE",
"369.3 223.3 OFFCURVE",
"374.8 152.8 CURVE"
);
}
);
width = 597;
},
{
anchors = (
{
name = top;
position = "{306, 550}";
}
);
layerId = "F9A96203-4E56-41C0-BC85-563659FEF099";
paths = (
{
closed = 1;
nodes = (
"475.006 116.856 OFFCURVE",
"470.759 197.28 OFFCURVE",
"470.759 271.845 CURVE SMOOTH",
"470.759 330.712 OFFCURVE",
"473.406 385.926 OFFCURVE",
"478.7 439 CURVE SMOOTH",
"481.9 471.4 OFFCURVE",
"468.4 491.3 OFFCURVE",
"438.7 498 CURVE SMOOTH",
"403.2 506 OFFCURVE",
"368.7 510 OFFCURVE",
"335.8 510 CURVE SMOOTH",
"166.6 510 OFFCURVE",
"55.7 404.8 OFFCURVE",
"55.7 244 CURVE SMOOTH",
"55.7 100.9 OFFCURVE",
"152 -10 OFFCURVE",
"276.2 -10 CURVE SMOOTH",
"326.2 -10 OFFCURVE",
"372.9 9 OFFCURVE",
"411.6 43.9 CURVE",
"413.854 21.56 OFFCURVE",
"421.053 -5.8 OFFCURVE",
"448.7 -5.8 CURVE SMOOTH",
"470.1 -5.8 OFFCURVE",
"485.3 8.7 OFFCURVE",
"483.5 27.5 CURVE SMOOTH"
);
},
{
closed = 1;
nodes = (
"371.8 77.9 OFFCURVE",
"328.5 56.3 OFFCURVE",
"282.8 56.3 CURVE SMOOTH",
"193.2 56.3 OFFCURVE",
"125.7 135.7 OFFCURVE",
"125.7 241 CURVE SMOOTH",
"125.7 361.8 OFFCURVE",
"211.6 445.5 OFFCURVE",
"335.7 445.5 CURVE SMOOTH",
"359.7 445.5 OFFCURVE",
"384.5 442.3 OFFCURVE",
"409.7 436 CURVE",
"404.614 371.757 OFFCURVE",
"402.092 308.847 OFFCURVE",
"402.092 247.07 CURVE SMOOTH",
"402.092 203.165 OFFCURVE",
"403.366 159.832 OFFCURVE",
"405.9 117 CURVE"
);
}
);
width = 554;
}
);
leftKerningGroup = a;
rightKerningGroup = a1;
unicode = 0061;
},
{
glyphname = b;
layers = (
{
guideLines = (
{
position = "{0, -30.62}";
}
);
layerId = "9B6556BE-0D60-403F-880A-9E0B7B019CCB";
paths = (
{
closed = 1;
nodes = (
"417.9 -9.6 OFFCURVE",
"504.3 95.8 OFFCURVE",
"504.3 248.9 CURVE SMOOTH",
"504.3 402.5 OFFCURVE",
"417.1 510 OFFCURVE",
"292.7 510 CURVE SMOOTH",
"206.7 510 OFFCURVE",
"140.2 458.4 OFFCURVE",
"109.8 368.2 CURVE",
"108.8 477.9 OFFCURVE",
"105.1 586.7 OFFCURVE",
"98.8 696.8 CURVE SMOOTH",
"98.4 702.3 OFFCURVE",
"94.7 706.2 OFFCURVE",
"89.7 706.2 CURVE SMOOTH",
"84.1 706.2 OFFCURVE",
"80.2 701.5 OFFCURVE",
"80.5 695.1 CURVE SMOOTH",
"87.761 540.257 OFFCURVE",
"91.347 406.481 OFFCURVE",
"91.347 282.201 CURVE SMOOTH",
"91.347 185.681 OFFCURVE",
"89.184 94.887 OFFCURVE",
"84.9 4.4 CURVE SMOOTH",
"84.6 -1.5 OFFCURVE",
"88.8 -6 OFFCURVE",
"94.7 -6 CURVE SMOOTH",
"99.9 -6 OFFCURVE",
"103.6 -2.5 OFFCURVE",
"103.9 2.7 CURVE SMOOTH",
"105.7 46 OFFCURVE",
"107.1 90.2 OFFCURVE",
"108.1 135.6 CURVE",
"137.5 42.9 OFFCURVE",
"204.2 -9.7 OFFCURVE",
"292.5 -9.6 CURVE SMOOTH"
);
},
{
closed = 1;
nodes = (
"179.9 7 OFFCURVE",
"109.9 100.5 OFFCURVE",
"109.9 246.1 CURVE SMOOTH",
"109.9 393.9 OFFCURVE",
"182.7 492.8 OFFCURVE",
"291.2 492.8 CURVE SMOOTH",
"402.5 492.8 OFFCURVE",
"485 389 OFFCURVE",
"485 249.1 CURVE SMOOTH",
"485 108.8 OFFCURVE",
"402.5 7 OFFCURVE",
"288.8 7 CURVE SMOOTH"
);
}
);
width = 571;
},
{
guideLines = (
{
position = "{0, 706}";
},
{
position = "{0, -6}";
}
);
layerId = "53D8B3CD-CAC4-43E9-8418-D21F673F49BB";
paths = (
{
closed = 1;
nodes = (
"513.3 -10.6 OFFCURVE",
"612.7 101.1 OFFCURVE",
"612.7 251.4 CURVE SMOOTH",
"612.7 400.6 OFFCURVE",
"515.3 509.4 OFFCURVE",
"381.8 509.4 CURVE SMOOTH",
"317 509.4 OFFCURVE",
"261.4 484.1 OFFCURVE",
"222.7 436.8 CURVE",
"220.3 485.2 OFFCURVE",
"217.1 534.5 OFFCURVE",
"210.2 632.4 CURVE SMOOTH",
"207.1 676.4 OFFCURVE",
"174.9 706.3 OFFCURVE",
"130.5 706.3 CURVE SMOOTH",
"80.5 706.3 OFFCURVE",
"45.8 669.5 OFFCURVE",
"50.5 621.4 CURVE SMOOTH",
"60.664 517.498 OFFCURVE",
"65.763 414.663 OFFCURVE",
"65.763 313.807 CURVE SMOOTH",
"65.763 232.077 OFFCURVE",
"62.414 151.647 OFFCURVE",
"55.7 73 CURVE SMOOTH",
"51.7 27.3 OFFCURVE",
"85.7 -6.3 OFFCURVE",
"135.8 -6.3 CURVE SMOOTH",
"178.7 -6.3 OFFCURVE",
"211.1 19.1 OFFCURVE",
"215.4 55.9 CURVE SMOOTH",
"215.9 60.2 OFFCURVE",
"216.4 64.8 OFFCURVE",
"217.1 71.2 CURVE",
"255.4 18 OFFCURVE",
"312.2 -10.6 OFFCURVE",
"379.7 -10.6 CURVE SMOOTH"
);
},
{
closed = 1;
nodes = (
"269.5 119.4 OFFCURVE",
"225.7 174.5 OFFCURVE",
"225.7 250.1 CURVE SMOOTH",
"225.7 326.2 OFFCURVE",
"270.3 379.4 OFFCURVE",
"334.2 379.4 CURVE SMOOTH",
"401.6 379.4 OFFCURVE",
"452.7 325.7 OFFCURVE",
"452.7 254.7 CURVE SMOOTH",
"452.7 180.9 OFFCURVE",
"396.7 119.4 OFFCURVE",
"329.5 119.4 CURVE SMOOTH"
);
}
);
width = 648;
},
{
layerId = "F9A96203-4E56-41C0-BC85-563659FEF099";
paths = (
{
closed = 1;
nodes = (
"420.9 -10 OFFCURVE",
"515.1 101.7 OFFCURVE",
"515.1 252 CURVE SMOOTH",
"515.1 401.2 OFFCURVE",
"422.8 510 OFFCURVE",
"296.1 510 CURVE SMOOTH",
"237.1 510 OFFCURVE",
"186.2 486.7 OFFCURVE",
"149.6 442.8 CURVE",
"148 517.4 OFFCURVE",
"145 594 OFFCURVE",
"141.1 673 CURVE SMOOTH",
"140.2 692.7 OFFCURVE",
"125.7 706.4 OFFCURVE",
"106 706.4 CURVE SMOOTH",
"84.2 706.4 OFFCURVE",
"69 690 OFFCURVE",
"71.1 668 CURVE SMOOTH",
"80.634 572.932 OFFCURVE",
"85.322 472.063 OFFCURVE",
"85.322 357.968 CURVE SMOOTH",
"85.322 260.237 OFFCURVE",
"81.882 152.803 OFFCURVE",
"75.1 31 CURVE SMOOTH",
"74 9.8 OFFCURVE",
"89 -5.9 OFFCURVE",
"110.5 -5.9 CURVE SMOOTH",
"130.1 -5.9 OFFCURVE",
"144.3 7.5 OFFCURVE",
"145.1 27 CURVE SMOOTH",
"145.6 37.3 OFFCURVE",
"146.1 48.5 OFFCURVE",
"146.6 62.5 CURVE",
"182.8 15.2 OFFCURVE",
"234 -10 OFFCURVE",
"294.1 -10 CURVE SMOOTH"
);
},
{
closed = 1;
nodes = (
"205.2 56 OFFCURVE",
"151.1 135 OFFCURVE",
"151.1 252 CURVE SMOOTH",
"151.1 367.6 OFFCURVE",
"206.9 444 OFFCURVE",
"291.1 444 CURVE SMOOTH",
"378.2 444 OFFCURVE",
"444.1 363.9 OFFCURVE",
"444.1 258 CURVE SMOOTH",
"444.1 147.7 OFFCURVE",
"371.9 56 OFFCURVE",
"285.1 56 CURVE SMOOTH"
);
}
);
width = 571;
}
);
unicode = 0062;
},
{
glyphname = c;
layers = (
{
anchors = (
{
name = bottom;
position = "{309, 0}";
},
{
name = top;
position = "{277, 550}";
}
);
layerId = "9B6556BE-0D60-403F-880A-9E0B7B019CCB";
paths = (
{
closed = 1;
nodes = (
"486.5 70.8 OFFCURVE",
"487.8 73.9 OFFCURVE",
"487.8 76.8 CURVE SMOOTH",
"487.8 85.5 OFFCURVE",
"477.4 88.6 OFFCURVE",
"471.8 81.5 CURVE SMOOTH",
"434.2 34 OFFCURVE",
"375.4 7.3 OFFCURVE",
"308.3 7.3 CURVE SMOOTH",
"180.1 7.3 OFFCURVE",
"84.6 111.8 OFFCURVE",
"84.6 252.2 CURVE SMOOTH",
"84.6 391.1 OFFCURVE",
"177.6 492.7 OFFCURVE",
"304.5 492.7 CURVE SMOOTH",
"367.2 492.7 OFFCURVE",
"422.7 471.9 OFFCURVE",
"460.6 434.2 CURVE SMOOTH",
"467.1 427.7 OFFCURVE",
"476.8 430.4 OFFCURVE",
"476.8 438.8 CURVE SMOOTH",
"476.8 441.7 OFFCURVE",
"475.3 444.6 OFFCURVE",
"472.5 446.9 CURVE",
"424.9 488.5 OFFCURVE",
"367.8 510.1 OFFCURVE",
"305.8 510.1 CURVE SMOOTH",
"167.2 510.1 OFFCURVE",
"65.6 400.5 OFFCURVE",
"65.6 251.1 CURVE SMOOTH",
"65.6 101.1 OFFCURVE",
"168.8 -10.1 OFFCURVE",
"308 -10.1 CURVE SMOOTH",
"377.7 -10.1 OFFCURVE",
"440.9 17.9 OFFCURVE",
"484.1 68 CURVE SMOOTH"
);
}
);
width = 524;
},
{
anchors = (
{
name = bottom;
position = "{292, 0}";
},
{
name = top;
position = "{273, 550}";
}
);
layerId = "53D8B3CD-CAC4-43E9-8418-D21F673F49BB";
paths = (
{
closed = 1;
nodes = (
"504.2 87.1 OFFCURVE",
"510.7 104 OFFCURVE",
"510.7 120.8 CURVE SMOOTH",
"510.7 159.45 OFFCURVE",
"479.682 186.132 OFFCURVE",
"448.064 186.132 CURVE SMOOTH",
"434.443 186.132 OFFCURVE",
"420.711 181.18 OFFCURVE",
"409.3 170.1 CURVE SMOOTH",
"375.9 137.7 OFFCURVE",
"338.4 120 OFFCURVE",
"302.7 120 CURVE SMOOTH",
"240.3 120 OFFCURVE",
"195.5 174.4 OFFCURVE",
"195.5 249.8 CURVE SMOOTH",
"195.5 326 OFFCURVE",
"241.2 380 OFFCURVE",
"305.7 380 CURVE SMOOTH",
"334.4 380 OFFCURVE",
"362.6 369.4 OFFCURVE",
"386.8 349.6 CURVE SMOOTH",
"398.589 339.952 OFFCURVE",
"412.089 335.616 OFFCURVE",
"425.363 335.616 CURVE SMOOTH",
"458.59 335.616 OFFCURVE",
"490.4 362.785 OFFCURVE",
"490.4 401.8 CURVE SMOOTH",
"490.4 483.322 OFFCURVE",
"358.997 510.1 OFFCURVE",
"298.5 510.1 CURVE SMOOTH",
"143.2 510.1 OFFCURVE",
"35.4 405.7 OFFCURVE",
"35.4 255.4 CURVE SMOOTH",
"35.4 102.5 OFFCURVE",
"145.8 -10.1 OFFCURVE",
"295.7 -10.1 CURVE SMOOTH",
"377.4 -10.1 OFFCURVE",
"450.8 20.5 OFFCURVE",
"491.7 71.5 CURVE SMOOTH"
);
}
);
width = 526;
},
{
anchors = (
{
name = bottom;
position = "{302, 0}";
},
{
name = top;
position = "{272, 550}";
}
);
layerId = "F9A96203-4E56-41C0-BC85-563659FEF099";
paths = (
{
closed = 1;
nodes = (
"484.7 77.9 OFFCURVE",
"488.7 87.5 OFFCURVE",
"488.7 96.9 CURVE SMOOTH",
"488.7 117.405 OFFCURVE",
"472.33 129.841 OFFCURVE",
"454.823 129.841 CURVE SMOOTH",
"444.155 129.841 OFFCURVE",
"433.065 125.223 OFFCURVE",
"425 115 CURVE SMOOTH",
"395.3 77.4 OFFCURVE",
"349.6 56 OFFCURVE",
"299 56 CURVE SMOOTH",
"199.3 56 OFFCURVE",
"125 139.7 OFFCURVE",
"125 252 CURVE SMOOTH",
"125 362.8 OFFCURVE",
"196.9 444 OFFCURVE",
"295 444 CURVE SMOOTH",
"341.6 444 OFFCURVE",
"385.4 426.6 OFFCURVE",
"416 396 CURVE SMOOTH",
"423.663 388.337 OFFCURVE",
"433.034 384.893 OFFCURVE",
"442.126 384.893 CURVE SMOOTH",
"460.324 384.893 OFFCURVE",
"477.4 398.694 OFFCURVE",
"477.4 420.1 CURVE SMOOTH",
"477.4 430.1 OFFCURVE",
"472.7 439.4 OFFCURVE",
"464 447 CURVE SMOOTH",
"416.5 488.4 OFFCURVE",
"359.3 510 OFFCURVE",
"297 510 CURVE SMOOTH",
"157.4 510 OFFCURVE",
"55 400.4 OFFCURVE",
"55 251 CURVE SMOOTH",
"55 101.1 OFFCURVE",
"158.9 -10 OFFCURVE",
"299 -10 CURVE SMOOTH",
"369.5 -10 OFFCURVE",
"433.3 18.3 OFFCURVE",
"477 69 CURVE SMOOTH"
);
}
);
width = 524;
}
);
leftKerningGroup = c;
rightKerningGroup = c1;
unicode = 0063;
},
{
glyphname = F;
layers = (
{
layerId = "9B6556BE-0D60-403F-880A-9E0B7B019CCB";
paths = (
{
closed = 1;
nodes = (
"415.366 683.56 OFFCURVE",
"418.317 687.335 OFFCURVE",
"418.317 691.22 CURVE SMOOTH",
"418.317 695.695 OFFCURVE",
"414.402 700.317 OFFCURVE",
"406.827 699.96 CURVE SMOOTH",
"316.109 695.683 OFFCURVE",
"221.368 693.821 OFFCURVE",
"102.823 699.431 CURVE SMOOTH",
"93.178 699.888 OFFCURVE",
"89.815 696.125 OFFCURVE",
"90.331 687.399 CURVE SMOOTH",
"106.688 410.743 OFFCURVE",
"106.819 199.196 OFFCURVE",
"93.98 9.63 CURVE SMOOTH",
"93.477 2.203 OFFCURVE",
"97.983 -1.614 OFFCURVE",
"102.593 -1.614 CURVE SMOOTH",
"106.932 -1.614 OFFCURVE",
"111.353 1.767 OFFCURVE",
"111.8 8.7 CURVE SMOOTH",
"118.959 119.822 OFFCURVE",
"122.191 232.734 OFFCURVE",
"121.399 345.841 CURVE",
"217.656 345.016 OFFCURVE",
"305.722 349.775 OFFCURVE",
"378.619 359.627 CURVE SMOOTH",
"384.714 360.451 OFFCURVE",
"387.499 364.679 OFFCURVE",
"387.499 368.803 CURVE SMOOTH",
"387.499 373.564 OFFCURVE",
"383.789 378.186 OFFCURVE",
"377.174 377.276 CURVE SMOOTH",
"303.347 367.119 OFFCURVE",
"214.457 362.063 OFFCURVE",
"121.228 362.627 CURVE",
"120.14 466.673 OFFCURVE",
"115.73 572.642 OFFCURVE",
"107.898 682.378 CURVE",
"220.004 678.32 OFFCURVE",
"318.372 678.604 OFFCURVE",
"409.3 683.25 CURVE SMOOTH"
);
}
);
width = 489;
},
{
layerId = "53D8B3CD-CAC4-43E9-8418-D21F673F49BB";
paths = (
{
closed = 1;
nodes = (
"466.333 579.141 OFFCURVE",
"493.62 606.371 OFFCURVE",
"493.62 641.909 CURVE SMOOTH",
"493.62 681.499 OFFCURVE",
"460.62 708.039 OFFCURVE",
"416 704.35 CURVE SMOOTH",
"333.186 697.503 OFFCURVE",
"248.052 696.071 OFFCURVE",
"139.395 699.7 CURVE SMOOTH",
"89.7 701.359 OFFCURVE",
"56.118 666.455 OFFCURVE",
"60.391 617.584 CURVE SMOOTH",
"76.464 433.712 OFFCURVE",
"77.98 244.283 OFFCURVE",
"64.748 72.958 CURVE SMOOTH",
"61.496 30.848 OFFCURVE",
"95.945 -0.956 OFFCURVE",
"144.808 -0.956 CURVE SMOOTH",
"189.073 -0.956 OFFCURVE",
"221.277 25.886 OFFCURVE",
"224.448 65.424 CURVE SMOOTH",
"229.614 129.831 OFFCURVE",
"232.712 207.158 OFFCURVE",
"233.206 284.047 CURVE",
"298.83 284.859 OFFCURVE",
"362.402 290.879 OFFCURVE",
"412.65 301.05 CURVE SMOOTH",
"446.951 307.993 OFFCURVE",
"469.439 333.918 OFFCURVE",
"469.439 366.518 CURVE SMOOTH",
"469.439 408.723 OFFCURVE",
"433.943 435.747 OFFCURVE",
"388.35 428.25 CURVE SMOOTH",
"338.763 420.096 OFFCURVE",
"285.274 415.074 OFFCURVE",
"231.677 413.539 CURVE",
"230.205 463.838 OFFCURVE",
"227.722 516.035 OFFCURVE",
"224.319 568.259 CURVE",
"303.075 566.998 OFFCURVE",
"373.054 569.314 OFFCURVE",
"426.55 574.95 CURVE SMOOTH"
);
}
);
width = 534;
},
{
guideLines = (
{
position = "{0, 955}";
}
);
layerId = "F9A96203-4E56-41C0-BC85-563659FEF099";
paths = (
{
closed = 1;
nodes = (
"425.361 641.472 OFFCURVE",
"438.386 655.525 OFFCURVE",
"438.386 673.941 CURVE SMOOTH",
"438.386 695.069 OFFCURVE",
"421.836 709.323 OFFCURVE",
"400 707 CURVE SMOOTH",
"307.774 697.189 OFFCURVE",
"214.916 695.918 OFFCURVE",
"117.072 703.129 CURVE SMOOTH",
"97.851 704.545 OFFCURVE",
"80.131 687.78 OFFCURVE",
"81 669 CURVE SMOOTH",
"95.337 359.168 OFFCURVE",
"96.639 193.214 OFFCURVE",
"86 32 CURVE SMOOTH",
"84.573 10.372 OFFCURVE",
"99.519 -5.768 OFFCURVE",
"120.975 -5.768 CURVE SMOOTH",
"140.544 -5.768 OFFCURVE",
"154.814 7.99 OFFCURVE",
"156 28 CURVE SMOOTH",
"162.196 132.522 OFFCURVE",
"165.034 229.296 OFFCURVE",
"164.568 320.153 CURVE",
"236.896 318.385 OFFCURVE",
"325.643 323.289 OFFCURVE",
"379 332 CURVE SMOOTH",
"398.3 335.151 OFFCURVE",
"410.951 348.569 OFFCURVE",
"410.951 365.888 CURVE SMOOTH",
"410.951 388.077 OFFCURVE",
"391.462 402.317 OFFCURVE",
"367 398 CURVE SMOOTH",
"312.947 388.461 OFFCURVE",
"232.279 383.52 OFFCURVE",
"163.78 385.553 CURVE",
"162.302 464.042 OFFCURVE",
"158.88 545.976 OFFCURVE",
"153.484 632.021 CURVE",
"238.927 626.544 OFFCURVE",
"327.636 628.996 OFFCURVE",
"406 639 CURVE SMOOTH"
);
}
);
width = 499;
},
{
layerId = "9B6556BE-0D60-403F-880A-9E0B7B019CCB";
paths = (
{
closed = 1;
nodes = (
"415.4 683.6 OFFCURVE",
"418.3 687.3 OFFCURVE",
"418.3 691.2 CURVE SMOOTH",
"418.3 695.7 OFFCURVE",
"414.4 700.3 OFFCURVE",
"406.8 700 CURVE SMOOTH",
"355.899 697.587 OFFCURVE",
"303.738 695.93 OFFCURVE",
"246.8 695.93 CURVE SMOOTH",
"202.281 695.93 OFFCURVE",
"154.841 696.943 OFFCURVE",
"102.8 699.4 CURVE SMOOTH",
"93.2 699.9 OFFCURVE",
"89.8 696.1 OFFCURVE",
"90.3 687.4 CURVE SMOOTH",
"99.036 540.013 OFFCURVE",
"103.146 411.126 OFFCURVE",
"103.146 294.193 CURVE SMOOTH",
"103.146 191.599 OFFCURVE",
"99.982 98.208 OFFCURVE",
"94 9.6 CURVE SMOOTH",
"93.5 2.2 OFFCURVE",
"98 -1.6 OFFCURVE",
"102.6 -1.6 CURVE SMOOTH",
"106.9 -1.6 OFFCURVE",
"111.4 1.8 OFFCURVE",
"111.8 8.7 CURVE SMOOTH",
"119 119.8 OFFCURVE",
"122.2 232.7 OFFCURVE",
"121.4 345.8 CURVE",
"217.7 345 OFFCURVE",
"305.7 349.8 OFFCURVE",
"378.6 359.6 CURVE SMOOTH",
"384.7 360.5 OFFCURVE",
"387.5 364.7 OFFCURVE",
"387.5 368.8 CURVE SMOOTH",
"387.5 373.6 OFFCURVE",
"383.8 378.2 OFFCURVE",
"377.2 377.3 CURVE SMOOTH",
"303.3 367.1 OFFCURVE",
"214.5 362.1 OFFCURVE",
"121.2 362.6 CURVE",
"120.1 466.7 OFFCURVE",
"115.7 572.6 OFFCURVE",
"107.9 682.4 CURVE",
"220 678.3 OFFCURVE",
"318.4 678.6 OFFCURVE",
"409.3 683.3 CURVE SMOOTH"
);
}
);
width = 489;
},
{
layerId = "53D8B3CD-CAC4-43E9-8418-D21F673F49BB";
paths = (
{
closed = 1;
nodes = (
"466.3 579.1 OFFCURVE",
"493.6 606.4 OFFCURVE",
"493.6 641.9 CURVE SMOOTH",
"493.6 681.5 OFFCURVE",
"460.6 708 OFFCURVE",
"416 704.4 CURVE SMOOTH",
"333.2 697.5 OFFCURVE",
"248.1 696.1 OFFCURVE",
"139.4 699.7 CURVE SMOOTH",
"138.237 699.74 OFFCURVE",
"137.084 699.76 OFFCURVE",
"135.939 699.76 CURVE SMOOTH",
"90.972 699.76 OFFCURVE",
"60.03 669.3 OFFCURVE",
"60.03 625.918 CURVE SMOOTH",
"60.03 623.195 OFFCURVE",
"60.152 620.421 OFFCURVE",
"60.4 617.6 CURVE SMOOTH",
"69.244 516.583 OFFCURVE",
"73.682 413.907 OFFCURVE",
"73.682 313.482 CURVE SMOOTH",
"73.682 231.085 OFFCURVE",
"70.694 150.204 OFFCURVE",
"64.7 73 CURVE SMOOTH",
"61.5 30.8 OFFCURVE",
"95.9 -1 OFFCURVE",
"144.8 -1 CURVE SMOOTH",
"189.1 -1 OFFCURVE",
"221.3 25.9 OFFCURVE",
"224.4 65.4 CURVE SMOOTH",
"229.6 129.8 OFFCURVE",
"232.7 207.2 OFFCURVE",
"233.2 284 CURVE",
"298.8 284.9 OFFCURVE",
"362.4 290.9 OFFCURVE",
"412.7 301.1 CURVE SMOOTH",
"447 308 OFFCURVE",
"469.4 333.9 OFFCURVE",
"469.4 366.5 CURVE SMOOTH",
"469.4 408.7 OFFCURVE",
"433.9 435.7 OFFCURVE",
"388.4 428.3 CURVE SMOOTH",
"338.8 420.1 OFFCURVE",
"285.3 415.1 OFFCURVE",
"231.7 413.5 CURVE",
"230.2 463.8 OFFCURVE",
"227.7 516 OFFCURVE",
"224.3 568.3 CURVE",
"303.1 567 OFFCURVE",
"373.1 569.3 OFFCURVE",
"426.5 575 CURVE SMOOTH"
);
}
);
width = 534;
},
{
guideLines = (
{
position = "{0, 955}";
}
);
layerId = "F9A96203-4E56-41C0-BC85-563659FEF099";
paths = (
{
closed = 1;
nodes = (
"425.4 641.5 OFFCURVE",
"438.4 655.5 OFFCURVE",
"438.4 673.9 CURVE SMOOTH",
"438.4 695.1 OFFCURVE",
"421.8 709.3 OFFCURVE",
"400 707 CURVE SMOOTH",
"346.849 701.351 OFFCURVE",
"293.466 698.526 OFFCURVE",
"239.046 698.526 CURVE SMOOTH",
"199.063 698.526 OFFCURVE",
"158.521 700.051 OFFCURVE",
"117.1 703.1 CURVE SMOOTH",
"116.344 703.155 OFFCURVE",
"115.591 703.182 OFFCURVE",
"114.84 703.182 CURVE SMOOTH",
"96.992 703.182 OFFCURVE",
"80.967 687.867 OFFCURVE",
"81 669 CURVE SMOOTH",
"89.057 494.449 OFFCURVE",
"92.987 365.548 OFFCURVE",
"92.987 257.435 CURVE SMOOTH",
"92.987 173.665 OFFCURVE",
"90.628 102.375 OFFCURVE",
"86 32 CURVE SMOOTH",
"84.6 10.4 OFFCURVE",
"99.5 -5.8 OFFCURVE",
"121 -5.8 CURVE SMOOTH",
"140.5 -5.8 OFFCURVE",
"154.8 8 OFFCURVE",
"156 28 CURVE SMOOTH",
"162.2 132.5 OFFCURVE",
"165 229.3 OFFCURVE",
"164.6 320.2 CURVE",
"236.9 318.4 OFFCURVE",
"325.6 323.3 OFFCURVE",
"379 332 CURVE SMOOTH",
"398.3 335.2 OFFCURVE",
"411 348.6 OFFCURVE",
"411 365.9 CURVE SMOOTH",
"411 388.1 OFFCURVE",
"391.5 402.3 OFFCURVE",
"367 398 CURVE SMOOTH",
"312.9 388.5 OFFCURVE",
"232.3 383.5 OFFCURVE",
"163.8 385.6 CURVE",
"162.3 464 OFFCURVE",
"158.9 546 OFFCURVE",
"153.5 632 CURVE",
"238.9 626.5 OFFCURVE",
"327.6 629 OFFCURVE",
"406 639 CURVE SMOOTH"
);
}
);
width = 499;
}
);
leftKerningGroup = B;
unicode = 0046;
},
{
glyphname = G;
layers = (
{
anchors = (
{
name = bottom;
position = "{298, 0}";
},
{
name = top;
position = "{298, 730}";
}
);
layerId = "9B6556BE-0D60-403F-880A-9E0B7B019CCB";
paths = (
{
closed = 1;
nodes = (
"519.936 99.544 OFFCURVE",
"513.804 189.66 OFFCURVE",
"515.606 298.568 CURVE SMOOTH",
"515.709 304.787 OFFCURVE",
"512.417 308.666 OFFCURVE",
"507.034 308.666 CURVE SMOOTH",
"501.739 308.666 OFFCURVE",
"498.45 304.944 OFFCURVE",
"498.45 298.953 CURVE SMOOTH",
"498.45 132.747 OFFCURVE",
"409.276 6.65 OFFCURVE",
"291.737 6.65 CURVE SMOOTH",
"166.424 6.65 OFFCURVE",
"77.75 149.918 OFFCURVE",
"77.75 352.381 CURVE SMOOTH",
"77.75 556.649 OFFCURVE",
"166.909 693.2 OFFCURVE",
"300.283 693.2 CURVE SMOOTH",
"378.161 693.2 OFFCURVE",
"449.075 644.237 OFFCURVE",
"478.79 569.95 CURVE SMOOTH",
"479.996 566.935 OFFCURVE",
"484.066 564.4 OFFCURVE",
"487.7 564.4 CURVE SMOOTH",
"493.929 564.4 OFFCURVE",
"497.629 570.884 OFFCURVE",
"494.908 577.032 CURVE SMOOTH",
"457.677 661.176 OFFCURVE",
"386.77 709.8 OFFCURVE",
"301.296 709.8 CURVE SMOOTH",
"155.911 709.8 OFFCURVE",
"60 567.158 OFFCURVE",
"60 350.937 CURVE SMOOTH",
"60 135.624 OFFCURVE",
"156.074 -9.8 OFFCURVE",
"298.32 -9.8 CURVE SMOOTH",
"396.286 -9.8 OFFCURVE",
"467.417 60.849 OFFCURVE",
"498.565 189.089 CURVE",
"500.941 133.55 OFFCURVE",
"506.873 75.632 OFFCURVE",
"517.45 4.7 CURVE SMOOTH",
"518.128 0.151 OFFCURVE",
"521.769 -2.926 OFFCURVE",
"526.472 -2.926 CURVE SMOOTH",
"532.589 -2.926 OFFCURVE",
"536.436 1.981 OFFCURVE",
"535.35 8.4 CURVE SMOOTH"
);
}
);
width = 606;
},
{
anchors = (
{
name = bottom;
position = "{298, 0}";
},
{
name = top;
position = "{322, 730}";
}
);
layerId = "53D8B3CD-CAC4-43E9-8418-D21F673F49BB";
paths = (
{
closed = 1;
nodes = (
"584.273 137.478 OFFCURVE",
"579.5 207.292 OFFCURVE",
"579.5 315.05 CURVE SMOOTH",
"579.5 360.516 OFFCURVE",
"543.571 383.224 OFFCURVE",
"507.681 383.224 CURVE SMOOTH",
"471.871 383.224 OFFCURVE",
"436.1 360.616 OFFCURVE",
"436.1 315.45 CURVE SMOOTH",
"436.1 201.639 OFFCURVE",
"386.024 120.25 OFFCURVE",
"316 120.25 CURVE SMOOTH",
"242.319 120.25 OFFCURVE",
"192.4 212.797 OFFCURVE",
"192.4 349.4 CURVE SMOOTH",
"192.4 488.909 OFFCURVE",
"244.027 580.4 OFFCURVE",
"322.75 580.4 CURVE SMOOTH",
"361.204 580.4 OFFCURVE",
"397.929 558.178 OFFCURVE",
"429.75 515.75 CURVE SMOOTH",
"446.644 493.225 OFFCURVE",
"469.817 480.7 OFFCURVE",
"494.6 480.7 CURVE SMOOTH",
"549.034 480.7 OFFCURVE",
"579.736 533.454 OFFCURVE",
"555.15 584.7 CURVE SMOOTH",
"519.598 658.804 OFFCURVE",
"423.995 709.7 OFFCURVE",
"320.35 709.7 CURVE SMOOTH",
"145.946 709.7 OFFCURVE",
"30.35 565.445 OFFCURVE",
"30.35 347.8 CURVE SMOOTH",
"30.35 134.65 OFFCURVE",
"137 -10.05 OFFCURVE",
"294.1 -10.05 CURVE SMOOTH",
"363.162 -10.05 OFFCURVE",
"414.338 17.954 OFFCURVE",
"449.709 75.102 CURVE",
"451.327 65.283 OFFCURVE",
"453.054 55.915 OFFCURVE",
"454.9 46.95 CURVE SMOOTH",
"461.817 13.36 OFFCURVE",
"488.014 -6.349 OFFCURVE",
"525.744 -6.349 CURVE SMOOTH",
"572.964 -6.349 OFFCURVE",
"604.287 29.916 OFFCURVE",
"595.917 74.895 CURVE SMOOTH"
);
}
);
width = 638;
},
{
anchors = (
{
name = bottom;
position = "{298, 0}";
},
{
name = top;
position = "{298, 730}";
}
);
layerId = "F9A96203-4E56-41C0-BC85-563659FEF099";
paths = (
{
closed = 1;
nodes = (
"531.408 105.154 OFFCURVE",
"526 185.704 OFFCURVE",
"526 310 CURVE SMOOTH",
"526 330.256 OFFCURVE",
"511.092 344.973 OFFCURVE",
"490.573 344.973 CURVE SMOOTH",
"470.268 344.973 OFFCURVE",
"456 330.481 OFFCURVE",
"456 309.857 CURVE SMOOTH",
"456 166.827 OFFCURVE",
"385.026 60 OFFCURVE",
"290 60 CURVE SMOOTH",
"189.618 60 OFFCURVE",
"120 178.35 OFFCURVE",
"120 349 CURVE SMOOTH",
"120 521.651 OFFCURVE",
"194.019 640 OFFCURVE",
"302 640 CURVE SMOOTH",
"362.526 640 OFFCURVE",
"414.22 603.623 OFFCURVE",
"437 545 CURVE SMOOTH",
"442.956 529.674 OFFCURVE",
"455.357 520.621 OFFCURVE",
"470.398 520.621 CURVE SMOOTH",
"497.903 520.621 OFFCURVE",
"514.097 546.639 OFFCURVE",
"503 573 CURVE SMOOTH",
"466.446 659.836 OFFCURVE",
"392.848 710 OFFCURVE",
"302 710 CURVE SMOOTH",
"148.079 710 OFFCURVE",
"50 571.444 OFFCURVE",
"50 354 CURVE SMOOTH",
"50 136.571 OFFCURVE",
"147.043 -10 OFFCURVE",
"291 -10 CURVE SMOOTH",
"369.378 -10 OFFCURVE",
"427.586 25.593 OFFCURVE",
"465.542 96.729 CURVE",
"469.232 61.75 OFFCURVE",
"471.904 39.785 OFFCURVE",
"475 19 CURVE SMOOTH",
"477.798 0.211 OFFCURVE",
"492.016 -12.165 OFFCURVE",
"510.804 -12.165 CURVE SMOOTH",
"533.651 -12.165 OFFCURVE",
"548.795 5.179 OFFCURVE",
"545 27 CURVE SMOOTH"
);
}
);
width = 606;
},
{
anchors = (
{
name = bottom;
position = "{298, 0}";
},
{
name = top;
position = "{298, 730}";
}
);
layerId = "9B6556BE-0D60-403F-880A-9E0B7B019CCB";
paths = (
{
closed = 1;
nodes = (
"519.9 99.5 OFFCURVE",
"513.8 189.7 OFFCURVE",
"515.6 298.6 CURVE SMOOTH",
"515.7 304.8 OFFCURVE",
"512.4 308.7 OFFCURVE",
"507 308.7 CURVE SMOOTH",
"501.7 308.7 OFFCURVE",
"498.4 304.9 OFFCURVE",
"498.4 299 CURVE SMOOTH",
"498.4 132.7 OFFCURVE",
"409.3 6.6 OFFCURVE",
"291.7 6.6 CURVE SMOOTH",
"166.4 6.6 OFFCURVE",
"77.7 149.9 OFFCURVE",
"77.7 352.4 CURVE SMOOTH",
"77.7 556.6 OFFCURVE",
"166.9 693.2 OFFCURVE",
"300.3 693.2 CURVE SMOOTH",
"378.2 693.2 OFFCURVE",
"449.1 644.2 OFFCURVE",
"478.8 569.9 CURVE SMOOTH",
"480 566.9 OFFCURVE",
"484.1 564.4 OFFCURVE",
"487.7 564.4 CURVE SMOOTH",
"493.9 564.4 OFFCURVE",
"497.6 570.9 OFFCURVE",
"494.9 577 CURVE SMOOTH",
"457.7 661.2 OFFCURVE",
"386.8 709.8 OFFCURVE",
"301.3 709.8 CURVE SMOOTH",
"155.9 709.8 OFFCURVE",
"60 567.2 OFFCURVE",
"60 350.9 CURVE SMOOTH",
"60 135.6 OFFCURVE",
"156.1 -9.8 OFFCURVE",
"298.3 -9.8 CURVE SMOOTH",
"396.3 -9.8 OFFCURVE",
"467.4 60.8 OFFCURVE",
"498.6 189.1 CURVE",
"500.9 133.5 OFFCURVE",
"506.9 75.6 OFFCURVE",
"517.5 4.7 CURVE SMOOTH",
"518.1 0.2 OFFCURVE",
"521.8 -2.9 OFFCURVE",
"526.5 -2.9 CURVE SMOOTH",
"532.6 -2.9 OFFCURVE",
"536.4 2 OFFCURVE",
"535.3 8.4 CURVE SMOOTH"
);
}
);
width = 606;
},
{
anchors = (
{
name = bottom;
position = "{298, 0}";
},
{
name = top;
position = "{322, 730}";
}
);
layerId = "53D8B3CD-CAC4-43E9-8418-D21F673F49BB";
paths = (
{
closed = 1;
nodes = (
"584.3 137.5 OFFCURVE",
"579.5 207.3 OFFCURVE",
"579.5 315.1 CURVE SMOOTH",
"579.5 360.5 OFFCURVE",
"543.6 383.2 OFFCURVE",
"507.7 383.2 CURVE SMOOTH",
"471.9 383.2 OFFCURVE",
"436.1 360.6 OFFCURVE",
"436.1 315.5 CURVE SMOOTH",
"436.1 201.6 OFFCURVE",
"386 120.2 OFFCURVE",
"316 120.2 CURVE SMOOTH",
"242.3 120.2 OFFCURVE",
"192.4 212.8 OFFCURVE",
"192.4 349.4 CURVE SMOOTH",
"192.4 488.9 OFFCURVE",
"244 580.4 OFFCURVE",
"322.8 580.4 CURVE SMOOTH",
"361.2 580.4 OFFCURVE",
"397.9 558.2 OFFCURVE",
"429.8 515.7 CURVE SMOOTH",
"446.6 493.2 OFFCURVE",
"469.8 480.7 OFFCURVE",
"494.6 480.7 CURVE SMOOTH",
"536.048 480.7 OFFCURVE",
"563.737 511.35 OFFCURVE",
"563.737 548.591 CURVE SMOOTH",
"563.737 560.228 OFFCURVE",
"561.033 572.51 OFFCURVE",
"555.2 584.7 CURVE SMOOTH",
"519.6 658.8 OFFCURVE",
"424 709.7 OFFCURVE",
"320.4 709.7 CURVE SMOOTH",
"145.9 709.7 OFFCURVE",
"30.3 565.4 OFFCURVE",
"30.3 347.8 CURVE SMOOTH",
"30.3 134.7 OFFCURVE",
"137 -10.1 OFFCURVE",
"294.1 -10.1 CURVE SMOOTH",
"363.2 -10.1 OFFCURVE",
"414.3 18 OFFCURVE",
"449.7 75.1 CURVE",
"457.241 28.912 OFFCURVE",
"468.355 -6.3 OFFCURVE",
"525.7 -6.3 CURVE SMOOTH",
"573 -6.3 OFFCURVE",
"604.3 29.9 OFFCURVE",
"595.9 74.9 CURVE SMOOTH"
);
}
);
width = 638;
},
{
anchors = (
{
name = bottom;
position = "{298, 0}";
},
{
name = top;
position = "{298, 730}";
}
);
layerId = "F9A96203-4E56-41C0-BC85-563659FEF099";
paths = (
{
closed = 1;
nodes = (
"531.4 105.2 OFFCURVE",
"526 185.7 OFFCURVE",
"526 310 CURVE SMOOTH",
"526 330.3 OFFCURVE",
"511.1 345 OFFCURVE",
"490.6 345 CURVE SMOOTH",
"470.3 345 OFFCURVE",
"456 330.5 OFFCURVE",
"456 309.9 CURVE SMOOTH",
"456 166.8 OFFCURVE",
"385 60 OFFCURVE",
"290 60 CURVE SMOOTH",
"189.6 60 OFFCURVE",
"120 178.3 OFFCURVE",
"120 349 CURVE SMOOTH",
"120 521.7 OFFCURVE",
"194 640 OFFCURVE",
"302 640 CURVE SMOOTH",
"362.5 640 OFFCURVE",
"414.2 603.6 OFFCURVE",
"437 545 CURVE SMOOTH",
"443 529.7 OFFCURVE",
"455.4 520.6 OFFCURVE",
"470.4 520.6 CURVE SMOOTH",
"491.929 520.6 OFFCURVE",
"506.533 536.536 OFFCURVE",
"506.533 556.123 CURVE SMOOTH",
"506.533 561.555 OFFCURVE",
"505.41 567.268 OFFCURVE",
"503 573 CURVE SMOOTH",
"466.4 659.8 OFFCURVE",
"392.8 710 OFFCURVE",
"302 710 CURVE SMOOTH",
"148.1 710 OFFCURVE",
"50 571.4 OFFCURVE",
"50 354 CURVE SMOOTH",
"50 136.6 OFFCURVE",
"147 -10 OFFCURVE",
"291 -10 CURVE SMOOTH",
"369.4 -10 OFFCURVE",
"427.6 25.6 OFFCURVE",
"465.5 96.7 CURVE",
"469.2 61.8 OFFCURVE",
"471.9 39.8 OFFCURVE",
"475 19 CURVE SMOOTH",
"477.8 0.2 OFFCURVE",
"492 -12.2 OFFCURVE",
"510.8 -12.2 CURVE SMOOTH",
"533.7 -12.2 OFFCURVE",
"548.8 5.2 OFFCURVE",
"545 27 CURVE SMOOTH"
);
}
);
width = 606;
}
);
leftKerningGroup = G;
rightKerningGroup = G1;
unicode = 0047;
},
{
glyphname = O;
layers = (
{
anchors = (
{
name = top;
position = "{335, 730}";
}
);
layerId = "9B6556BE-0D60-403F-880A-9E0B7B019CCB";
paths = (
{
closed = 1;
nodes = (
"480.677 -9.8 OFFCURVE",
"604.793 155.272 OFFCURVE",
"604.793 363.86 CURVE SMOOTH",
"604.793 563.736 OFFCURVE",
"490.828 709.8 OFFCURVE",
"333.98 709.8 CURVE SMOOTH",
"175.295 709.8 OFFCURVE",
"60 560.294 OFFCURVE",
"60 352.333 CURVE SMOOTH",
"60 146.163 OFFCURVE",
"173.317 -9.8 OFFCURVE",
"324.816 -9.8 CURVE SMOOTH"
);
},
{
closed = 1;
nodes = (
"187.106 6.8 OFFCURVE",
"77.753 159.434 OFFCURVE",
"77.753 353.94 CURVE SMOOTH",
"77.753 547.729 OFFCURVE",
"186.301 693.2 OFFCURVE",
"333.952 693.2 CURVE SMOOTH",
"479.577 693.2 OFFCURVE",
"587.04 551.695 OFFCURVE",
"587.04 363.767 CURVE SMOOTH",
"587.04 166.115 OFFCURVE",
"468.168 6.8 OFFCURVE",
"326.132 6.8 CURVE SMOOTH"
);
}
);
width = 665;
},
{
anchors = (
{
name = top;
position = "{344, 730}";
}
);
layerId = "53D8B3CD-CAC4-43E9-8418-D21F673F49BB";
paths = (
{
closed = 1;
nodes = (
"519.639 -10.069 OFFCURVE",
"657.695 151.293 OFFCURVE",
"657.695 360.665 CURVE SMOOTH",
"657.695 562.394 OFFCURVE",
"525.165 709.724 OFFCURVE",
"343.703 709.724 CURVE SMOOTH",
"161.345 709.724 OFFCURVE",
"30.328 560.767 OFFCURVE",
"30.328 353.44 CURVE SMOOTH",
"30.328 146.24 OFFCURVE",
"163.704 -10.069 OFFCURVE",
"340.505 -10.069 CURVE SMOOTH"
);
},
{
closed = 1;
nodes = (
"256.981 121.244 OFFCURVE",
"192.414 223.292 OFFCURVE",
"192.414 348.754 CURVE SMOOTH",
"192.414 474.476 OFFCURVE",
"263.046 580.411 OFFCURVE",
"346.872 580.411 CURVE SMOOTH",
"427.543 580.411 OFFCURVE",
"495.609 479.364 OFFCURVE",
"495.609 359.604 CURVE SMOOTH",
"495.609 233.86 OFFCURVE",
"420.371 121.244 OFFCURVE",
"336.363 121.244 CURVE SMOOTH"
);
}
);
width = 688;
},
{
anchors = (
{
name = top;
position = "{331, 730}";
}
);
layerId = "F9A96203-4E56-41C0-BC85-563659FEF099";
paths = (
{
closed = 1;
nodes = (
"481.217 -10 OFFCURVE",
"608 154.751 OFFCURVE",
"608 362 CURVE SMOOTH",
"608 563.463 OFFCURVE",
"491.199 710 OFFCURVE",
"330.619 710 CURVE SMOOTH",
"168.018 710 OFFCURVE",
"50 560.28 OFFCURVE",
"50 354 CURVE SMOOTH",
"50 145.917 OFFCURVE",
"166.394 -10 OFFCURVE",
"321.731 -10 CURVE SMOOTH"
);
},
{
closed = 1;
nodes = (
"208.667 56 OFFCURVE",
"120 185.783 OFFCURVE",
"120 348.986 CURVE SMOOTH",
"120 512.936 OFFCURVE",
"214.182 644 OFFCURVE",
"331.997 644 CURVE SMOOTH",
"446.57 644 OFFCURVE",
"538 518.014 OFFCURVE",
"538 360.138 CURVE SMOOTH",
"538 196.426 OFFCURVE",
"437.423 56 OFFCURVE",
"320.168 56 CURVE SMOOTH"
);
}
);
width = 658;
},
{
anchors = (
{
name = top;
position = "{335, 730}";
}
);
layerId = "9B6556BE-0D60-403F-880A-9E0B7B019CCB";
paths = (
{
closed = 1;
nodes = (
"480.7 -9.8 OFFCURVE",
"604.8 155.3 OFFCURVE",
"604.8 363.9 CURVE SMOOTH",
"604.8 563.7 OFFCURVE",
"490.8 709.8 OFFCURVE",
"334 709.8 CURVE SMOOTH",
"175.3 709.8 OFFCURVE",
"60 560.3 OFFCURVE",
"60 352.3 CURVE SMOOTH",
"60 146.2 OFFCURVE",
"173.3 -9.8 OFFCURVE",
"324.8 -9.8 CURVE SMOOTH"
);
},
{
closed = 1;
nodes = (
"187.1 6.8 OFFCURVE",
"77.8 159.4 OFFCURVE",
"77.8 353.9 CURVE SMOOTH",
"77.8 547.7 OFFCURVE",
"186.3 693.2 OFFCURVE",
"334 693.2 CURVE SMOOTH",
"479.6 693.2 OFFCURVE",
"587 551.7 OFFCURVE",
"587 363.8 CURVE SMOOTH",
"587 166.1 OFFCURVE",
"468.2 6.8 OFFCURVE",
"326.1 6.8 CURVE SMOOTH"
);
}
);
width = 665;
},
{
anchors = (
{
name = top;
position = "{344, 730}";
}
);
layerId = "53D8B3CD-CAC4-43E9-8418-D21F673F49BB";
paths = (
{
closed = 1;
nodes = (
"519.6 -10.1 OFFCURVE",
"657.7 151.3 OFFCURVE",
"657.7 360.7 CURVE SMOOTH",
"657.7 562.4 OFFCURVE",
"525.2 709.7 OFFCURVE",
"343.7 709.7 CURVE SMOOTH",
"161.3 709.7 OFFCURVE",
"30.3 560.8 OFFCURVE",
"30.3 353.4 CURVE SMOOTH",
"30.3 146.2 OFFCURVE",
"163.7 -10.1 OFFCURVE",
"340.5 -10.1 CURVE SMOOTH"
);
},
{
closed = 1;
nodes = (
"257 121.2 OFFCURVE",
"192.4 223.3 OFFCURVE",
"192.4 348.8 CURVE SMOOTH",
"192.4 474.5 OFFCURVE",
"263 580.4 OFFCURVE",
"346.9 580.4 CURVE SMOOTH",
"427.5 580.4 OFFCURVE",
"495.6 479.4 OFFCURVE",
"495.6 359.6 CURVE SMOOTH",
"495.6 233.9 OFFCURVE",
"420.4 121.2 OFFCURVE",
"336.4 121.2 CURVE SMOOTH"
);
}
);
width = 688;
},
{
anchors = (
{
name = top;
position = "{331, 730}";
}
);
layerId = "F9A96203-4E56-41C0-BC85-563659FEF099";
paths = (
{
closed = 1;
nodes = (
"481.2 -10 OFFCURVE",
"608 154.8 OFFCURVE",
"608 362 CURVE SMOOTH",
"608 563.5 OFFCURVE",
"491.2 710 OFFCURVE",
"330.6 710 CURVE SMOOTH",
"168 710 OFFCURVE",
"50 560.3 OFFCURVE",
"50 354 CURVE SMOOTH",
"50 145.9 OFFCURVE",
"166.4 -10 OFFCURVE",
"321.7 -10 CURVE SMOOTH"
);
},
{
closed = 1;
nodes = (
"208.7 56 OFFCURVE",
"120 185.8 OFFCURVE",
"120 349 CURVE SMOOTH",
"120 512.9 OFFCURVE",
"214.2 644 OFFCURVE",
"332 644 CURVE SMOOTH",
"446.6 644 OFFCURVE",
"538 518 OFFCURVE",
"538 360.1 CURVE SMOOTH",
"538 196.4 OFFCURVE",
"437.4 56 OFFCURVE",
"320.2 56 CURVE SMOOTH"
);
}
);
width = 658;
}
);
leftKerningGroup = O;
rightKerningGroup = O1;
unicode = 004F;
},
{
glyphname = H;
layers = (
{
anchors = (
{
name = top;
position = "{344, 730}";
}
);
layerId = "9B6556BE-0D60-403F-880A-9E0B7B019CCB";
paths = (
{
closed = 1;
nodes = (
"565.47 148.953 OFFCURVE",
"561.655 281.187 OFFCURVE",
"561.655 406.29 CURVE SMOOTH",
"561.655 505.824 OFFCURVE",
"564.07 600.845 OFFCURVE",
"568.9 691.9 CURVE SMOOTH",
"569.3 698.7 OFFCURVE",
"565.3 704.1 OFFCURVE",
"559.7 704.1 CURVE SMOOTH",
"554.7 704.1 OFFCURVE",
"551.2 699.5 OFFCURVE",
"550.9 692.5 CURVE SMOOTH",
"546 582.3 OFFCURVE",
"543.9 471.8 OFFCURVE",
"544.6 358.6 CURVE",
"396.8 340.2 OFFCURVE",
"257.5 328.4 OFFCURVE",
"142.7 324.7 CURVE",
"143.4 433.7 OFFCURVE",
"140.3 542.1 OFFCURVE",
"132.1 695.2 CURVE SMOOTH",
"131.8 700.9 OFFCURVE",
"128.1 704.9 OFFCURVE",
"123.1 704.9 CURVE SMOOTH",
"117.6 704.9 OFFCURVE",
"113.9 700.3 OFFCURVE",
"114.2 694 CURVE SMOOTH",
"122.7 544.1 OFFCURVE",
"125.9 434.9 OFFCURVE",
"125 324.2 CURVE",
"106 323.7 OFFCURVE",
"87.2 323.4 OFFCURVE",
"69.9 323.4 CURVE SMOOTH",
"64.1 323.4 OFFCURVE",
"60.1 319.9 OFFCURVE",
"60.1 314.9 CURVE SMOOTH",
"60.1 309.8 OFFCURVE",
"64.3 306.1 OFFCURVE",
"70 306.1 CURVE SMOOTH",
"87.3 306.2 OFFCURVE",
"105.3 306.6 OFFCURVE",
"124.9 307.1 CURVE",
"124 224 OFFCURVE",
"120.8 134.7 OFFCURVE",
"114.3 11.5 CURVE SMOOTH",
"113.9 3.6 OFFCURVE",
"117.4 -2.1 OFFCURVE",
"122.8 -2.1 CURVE SMOOTH",
"127.9 -2.1 OFFCURVE",
"131.7 2.9 OFFCURVE",
"132.1 9.8 CURVE SMOOTH",
"138.4 130.6 OFFCURVE",
"141.6 221.6 OFFCURVE",
"142.5 307.6 CURVE",
"261.7 311.7 OFFCURVE",
"401.1 323.5 OFFCURVE",
"544.7 341.6 CURVE",
"545.6 232.1 OFFCURVE",
"548.8 120.7 OFFCURVE",
"554.9 8.5 CURVE SMOOTH",
"555.2 2.2 OFFCURVE",
"559 -2 OFFCURVE",
"564.2 -2 CURVE SMOOTH",
"569.6 -2 OFFCURVE",
"573.4 2.5 OFFCURVE",
"573.1 8.5 CURVE SMOOTH"
);
}
);
width = 686;
},
{
anchors = (
{
name = top;
position = "{400, 730}";
}
);
layerId = "53D8B3CD-CAC4-43E9-8418-D21F673F49BB";
paths = (
{
closed = 1;
nodes = (
"693.001 176.767 OFFCURVE",
"690.672 289.576 OFFCURVE",
"690.672 401.908 CURVE SMOOTH",
"690.672 478.422 OFFCURVE",
"691.753 554.715 OFFCURVE",
"693.9 630.4 CURVE SMOOTH",
"695.2 677.6 OFFCURVE",
"661.5 711.8 OFFCURVE",
"613.5 711.8 CURVE SMOOTH",
"566.2 711.8 OFFCURVE",
"532.5 678.5 OFFCURVE",
"532.5 631.7 CURVE SMOOTH",
"532.5 562.8 OFFCURVE",
"532.9 489.5 OFFCURVE",
"533.8 388.8 CURVE",
"445.6 377.9 OFFCURVE",
"363.8 371.4 OFFCURVE",
"288.5 369.3 CURVE",
"287.1 459.9 OFFCURVE",
"281.8 550.8 OFFCURVE",
"272.8 640.2 CURVE SMOOTH",
"268.6 681.7 OFFCURVE",
"235.9 710.6 OFFCURVE",
"193.1 710.6 CURVE SMOOTH",
"141.5 710.6 OFFCURVE",
"107.8 670 OFFCURVE",
"113.4 614.7 CURVE SMOOTH",
"122.3 526.6 OFFCURVE",
"127.3 448.5 OFFCURVE",
"128.9 373 CURVE",
"126.3 373.1 OFFCURVE",
"123.8 372.5 OFFCURVE",
"105.7 372.5 CURVE SMOOTH",
"55.6 372.5 OFFCURVE",
"30.8 339 OFFCURVE",
"30.8 305.4 CURVE SMOOTH",
"30.8 272.4 OFFCURVE",
"54.6 239.4 OFFCURVE",
"101.8 237.9 CURVE SMOOTH",
"115.1 237.4 OFFCURVE",
"121.6 237.2 OFFCURVE",
"128.1 237.1 CURVE",
"126.2 182.8 OFFCURVE",
"122.5 128.4 OFFCURVE",
"116.9 72.7 CURVE SMOOTH",
"112.3 28.1 OFFCURVE",
"148.6 -7.4 OFFCURVE",
"198.7 -7.4 CURVE SMOOTH",
"242.6 -7.4 OFFCURVE",
"273.9 21 OFFCURVE",
"277.7 64.4 CURVE SMOOTH",
"282.6 120.4 OFFCURVE",
"286 178.7 OFFCURVE",
"287.6 238.5 CURVE",
"365.9 241.7 OFFCURVE",
"448.4 248.5 OFFCURVE",
"534.8 258.9 CURVE",
"535.6 183.6 OFFCURVE",
"535.9 121.7 OFFCURVE",
"535.9 64.9 CURVE SMOOTH",
"535.9 22.1 OFFCURVE",
"568.5 -7.5 OFFCURVE",
"615.7 -7.5 CURVE SMOOTH",
"664.2 -7.5 OFFCURVE",
"699.4 23.4 OFFCURVE",
"697.7 64.7 CURVE SMOOTH"
);
}
);
width = 758;
},
{
anchors = (
{
name = top;
position = "{350, 730}";
}
);
layerId = "F9A96203-4E56-41C0-BC85-563659FEF099";
paths = (
{
closed = 1;
nodes = (
"599.038 173.965 OFFCURVE",
"596.067 303.358 OFFCURVE",
"596.067 422.891 CURVE SMOOTH",
"596.067 511.882 OFFCURVE",
"597.714 595.408 OFFCURVE",
"601 675 CURVE SMOOTH",
"601.7 692.4 OFFCURVE",
"586.9 705.9 OFFCURVE",
"567.2 705.9 CURVE SMOOTH",
"546.5 705.9 OFFCURVE",
"532.1 691.1 OFFCURVE",
"531 669 CURVE SMOOTH",
"526.4 576.2 OFFCURVE",
"524.3 480.6 OFFCURVE",
"524.7 381.4 CURVE",
"411.2 365.7 OFFCURVE",
"289.8 354.9 OFFCURVE",
"181.3 350.9 CURVE",
"181.2 461.3 OFFCURVE",
"176.3 564.9 OFFCURVE",
"166 673 CURVE SMOOTH",
"164.1 692.9 OFFCURVE",
"150.1 706.2 OFFCURVE",
"131 706.2 CURVE SMOOTH",
"109 706.2 OFFCURVE",
"93.7 689.1 OFFCURVE",
"96 667 CURVE SMOOTH",
"106.2 568.3 OFFCURVE",
"111.1 464.4 OFFCURVE",
"111 349.1 CURVE",
"102.6 349 OFFCURVE",
"94.2 349 OFFCURVE",
"86 349 CURVE SMOOTH",
"65.1 349 OFFCURVE",
"50.6 336 OFFCURVE",
"50.6 317.3 CURVE SMOOTH",
"50.6 297.5 OFFCURVE",
"66.5 283 OFFCURVE",
"88 283 CURVE SMOOTH",
"95.5 283 OFFCURVE",
"103 283.1 OFFCURVE",
"110.5 283.1 CURVE",
"109.2 207.4 OFFCURVE",
"105.8 124.5 OFFCURVE",
"100.2 31.5 CURVE SMOOTH",
"98.9 10 OFFCURVE",
"113.3 -5.6 OFFCURVE",
"134.6 -5.6 CURVE SMOOTH",
"154.1 -5.6 OFFCURVE",
"168.8 7.9 OFFCURVE",
"170 27 CURVE SMOOTH",
"176.1 122.4 OFFCURVE",
"179.6 206.7 OFFCURVE",
"180.8 284.8 CURVE",
"284.4 288.7 OFFCURVE",
"401.4 298.9 OFFCURVE",
"525.3 315.1 CURVE",
"526.6 225 OFFCURVE",
"529.8 130.8 OFFCURVE",
"535 31 CURVE SMOOTH",
"536.1 9 OFFCURVE",
"550.5 -6 OFFCURVE",
"570.4 -6 CURVE SMOOTH",
"591.1 -6 OFFCURVE",
"605.9 9.9 OFFCURVE",
"605 31 CURVE SMOOTH"
);
}
);
width = 686;
}
);
leftKerningGroup = H;
rightKerningGroup = H1;
unicode = 0048;
},
{
glyphname = N;
layers = (
{
anchors = (
{
name = bottom;
position = "{341, 0}";
},
{
name = top;
position = "{340, 730}";
}
);
guideLines = (
{
position = "{0, 706}";
},
{
position = "{0, -6}";
}
);
layerId = "9B6556BE-0D60-403F-880A-9E0B7B019CCB";
paths = (
{
closed = 1;
nodes = (
"566.285 270.89 OFFCURVE",
"569.18 492.422 OFFCURVE",
"578.9 696.55 CURVE SMOOTH",
"579.15 701.799 OFFCURVE",
"575.301 705.8 OFFCURVE",
"570 705.8 CURVE SMOOTH",
"565.005 705.8 OFFCURVE",
"561.47 702.204 OFFCURVE",
"561.15 696.85 CURVE SMOOTH",
"550.369 516.446 OFFCURVE",
"549.597 231.631 OFFCURVE",
"559.344 30.539 CURVE",
"433.14 192.505 OFFCURVE",
"236.758 487.091 OFFCURVE",
"112.8 699.25 CURVE SMOOTH",
"110.197 703.706 OFFCURVE",
"106.144 706.25 OFFCURVE",
"101.65 706.25 CURVE SMOOTH",
"95.361 706.25 OFFCURVE",
"90.48 701.41 OFFCURVE",
"90.8 695.45 CURVE SMOOTH",
"107.8 379.204 OFFCURVE",
"107.802 187.937 OFFCURVE",
"94.95 5.15 CURVE SMOOTH",
"94.498 -1.281 OFFCURVE",
"98.328 -6 OFFCURVE",
"104 -6 CURVE SMOOTH",
"108.97 -6 OFFCURVE",
"112.624 -2.276 OFFCURVE",
"113.05 3.15 CURVE SMOOTH",
"126.487 174.108 OFFCURVE",
"125.889 358.933 OFFCURVE",
"110.905 666.858 CURVE",
"218.976 478.164 OFFCURVE",
"409.293 193.009 OFFCURVE",
"559.1 0.4 CURVE SMOOTH",
"562.275 -3.682 OFFCURVE",
"566.078 -6 OFFCURVE",
"569.6 -6 CURVE SMOOTH",
"574.708 -6 OFFCURVE",
"577.949 -1.289 OFFCURVE",
"577.65 5.7 CURVE SMOOTH"
);
}
);
width = 669;
},
{
anchors = (
{
name = bottom;
position = "{341, 0}";
},
{
name = top;
position = "{342, 730}";
}
);
guideLines = (
{
position = "{0, -6}";
},
{
position = "{0, 706}";
}
);
layerId = "53D8B3CD-CAC4-43E9-8418-D21F673F49BB";
paths = (
{
closed = 1;
nodes = (
"618.532 316.079 OFFCURVE",
"618.884 486.726 OFFCURVE",
"632.7 616.75 CURVE SMOOTH",
"638.047 667.074 OFFCURVE",
"602.427 705.85 OFFCURVE",
"550.85 705.85 CURVE SMOOTH",
"507.981 705.85 OFFCURVE",
"476.804 677.781 OFFCURVE",
"473.25 636 CURVE SMOOTH",
"463.9 526.061 OFFCURVE",
"460.862 420.244 OFFCURVE",
"463.578 299.052 CURVE",
"388.388 395.82 OFFCURVE",
"288.238 545.74 OFFCURVE",
"222.2 660.65 CURVE SMOOTH",
"205.849 689.101 OFFCURVE",
"177.899 705.6 OFFCURVE",
"146.05 705.6 CURVE SMOOTH",
"94.549 705.6 OFFCURVE",
"56.655 665.249 OFFCURVE",
"61.05 615.1 CURVE SMOOTH",
"76.295 441.153 OFFCURVE",
"77.308 219.63 OFFCURVE",
"63.15 73.55 CURVE SMOOTH",
"58.901 29.711 OFFCURVE",
"94.938 -5 OFFCURVE",
"144.7 -5 CURVE SMOOTH",
"187.713 -5 OFFCURVE",
"218.811 22.067 OFFCURVE",
"223.4 63.4 CURVE SMOOTH",
"230.416 126.594 OFFCURVE",
"234.173 245.211 OFFCURVE",
"232.621 354.527 CURVE",
"320.806 225.867 OFFCURVE",
"416.919 99.942 OFFCURVE",
"482.95 27.05 CURVE SMOOTH",
"502.21 5.789 OFFCURVE",
"528.264 -6.15 OFFCURVE",
"555.4 -6.15 CURVE SMOOTH",
"601.514 -6.15 OFFCURVE",
"634.499 26.663 OFFCURVE",
"632.1 70.15 CURVE SMOOTH"
);
}
);
width = 694;
},
{
anchors = (
{
name = bottom;
position = "{341, 0}";
},
{
name = top;
position = "{340, 730}";
}
);
guideLines = (
{
position = "{0, -6}";
}
);
layerId = "F9A96203-4E56-41C0-BC85-563659FEF099";
paths = (
{
closed = 1;
nodes = (
"576.414 236.917 OFFCURVE",
"576.793 448.941 OFFCURVE",
"586 669 CURVE SMOOTH",
"586.876 689.932 OFFCURVE",
"572.207 705.3 OFFCURVE",
"551.35 705.3 CURVE SMOOTH",
"531.233 705.3 OFFCURVE",
"516.718 690.785 OFFCURVE",
"516 670 CURVE SMOOTH",
"506.649 399.51 OFFCURVE",
"505.925 262.533 OFFCURVE",
"513.189 138.49 CURVE",
"365.887 330.615 OFFCURVE",
"225.753 542.48 OFFCURVE",
"150.95 686.25 CURVE SMOOTH",
"144.52 698.609 OFFCURVE",
"132.421 705.85 OFFCURVE",
"118.2 705.85 CURVE SMOOTH",
"96.001 705.85 OFFCURVE",
"79.286 689.286 OFFCURVE",
"80.6 668.65 CURVE SMOOTH",
"97.403 404.849 OFFCURVE",
"98.586 201.972 OFFCURVE",
"84.5 32.6 CURVE SMOOTH",
"82.673 10.637 OFFCURVE",
"97.676 -5.8 OFFCURVE",
"119.55 -5.8 CURVE SMOOTH",
"138.968 -5.8 OFFCURVE",
"153.237 7.52 OFFCURVE",
"154.65 26.95 CURVE SMOOTH",
"166.224 186.105 OFFCURVE",
"167.233 327.734 OFFCURVE",
"158.273 535.573 CURVE",
"215.616 428.558 OFFCURVE",
"327.762 266.413 OFFCURVE",
"519.65 12 CURVE SMOOTH",
"527.897 1.066 OFFCURVE",
"539.345 -5.1 OFFCURVE",
"551.4 -5.1 CURVE SMOOTH",
"571.472 -5.1 OFFCURVE",
"585.915 11.276 OFFCURVE",
"585 33 CURVE SMOOTH"
);
}
);
width = 667;
},
{
anchors = (
{
name = bottom;
position = "{341, 0}";
},
{
name = top;
position = "{340, 730}";
}
);
guideLines = (
{
position = "{0, 706}";
},
{
position = "{0, -6}";
}
);
layerId = "9B6556BE-0D60-403F-880A-9E0B7B019CCB";
paths = (
{
closed = 1;
nodes = (
"572.545 125.632 OFFCURVE",
"570.314 236.627 OFFCURVE",
"570.314 341.117 CURVE SMOOTH",
"570.314 467.681 OFFCURVE",
"573.587 584.701 OFFCURVE",
"578.9 696.5 CURVE SMOOTH",
"579.2 701.8 OFFCURVE",
"575.3 705.8 OFFCURVE",
"570 705.8 CURVE SMOOTH",
"565 705.8 OFFCURVE",
"561.5 702.2 OFFCURVE",
"561.1 696.8 CURVE SMOOTH",
"555.409 600.857 OFFCURVE",
"552.519 475.386 OFFCURVE",
"552.519 348.68 CURVE SMOOTH",
"552.519 237.142 OFFCURVE",
"554.759 124.648 OFFCURVE",
"559.3 30.5 CURVE",
"433.1 192.5 OFFCURVE",
"236.8 487.1 OFFCURVE",
"112.8 699.2 CURVE SMOOTH",
"110.2 703.7 OFFCURVE",
"106.1 706.3 OFFCURVE",
"101.7 706.3 CURVE SMOOTH",
"95.4 706.3 OFFCURVE",
"90.5 701.4 OFFCURVE",
"90.8 695.5 CURVE SMOOTH",
"99.902 526.149 OFFCURVE",
"104.131 392.632 OFFCURVE",
"104.131 277.082 CURVE SMOOTH",
"104.131 176.817 OFFCURVE",
"100.947 90.08 OFFCURVE",
"95 5.2 CURVE SMOOTH",
"94.5 -1.3 OFFCURVE",
"98.3 -6 OFFCURVE",
"104 -6 CURVE SMOOTH",
"109 -6 OFFCURVE",
"112.6 -2.3 OFFCURVE",
"113 3.1 CURVE SMOOTH",
"119.43 84.549 OFFCURVE",
"122.661 169.129 OFFCURVE",
"122.661 268.661 CURVE SMOOTH",
"122.661 378.095 OFFCURVE",
"118.755 505.603 OFFCURVE",
"110.9 666.9 CURVE",
"219 478.2 OFFCURVE",
"409.3 193 OFFCURVE",
"559.1 0.4 CURVE SMOOTH",
"562.3 -3.7 OFFCURVE",
"566.1 -6 OFFCURVE",
"569.6 -6 CURVE SMOOTH",
"574.7 -6 OFFCURVE",
"577.9 -1.3 OFFCURVE",
"577.7 5.7 CURVE SMOOTH"
);
}
);
width = 669;
},
{
anchors = (
{
name = bottom;
position = "{341, 0}";
},
{
name = top;
position = "{342, 730}";
}
);
guideLines = (
{
position = "{0, -6}";
},
{
position = "{0, 706}";
}
);
layerId = "53D8B3CD-CAC4-43E9-8418-D21F673F49BB";
paths = (
{
closed = 1;
nodes = (
"625.424 190.907 OFFCURVE",
"622.122 293.469 OFFCURVE",
"622.122 382.004 CURVE SMOOTH",
"622.122 473.829 OFFCURVE",
"625.674 550.563 OFFCURVE",
"632.7 616.8 CURVE SMOOTH",
"638 667.1 OFFCURVE",
"602.4 705.9 OFFCURVE",
"550.9 705.9 CURVE SMOOTH",
"508 705.9 OFFCURVE",
"476.8 677.8 OFFCURVE",
"473.3 636 CURVE SMOOTH",
"463.9 526.1 OFFCURVE",
"460.9 420.2 OFFCURVE",
"463.6 299.1 CURVE",
"388.4 395.8 OFFCURVE",
"288.2 545.7 OFFCURVE",
"222.2 660.6 CURVE SMOOTH",
"205.8 689.1 OFFCURVE",
"177.9 705.6 OFFCURVE",
"146 705.6 CURVE SMOOTH",
"94.5 705.6 OFFCURVE",
"56.7 665.2 OFFCURVE",
"61 615.1 CURVE SMOOTH",
"69.052 523.585 OFFCURVE",
"73.143 418.86 OFFCURVE",
"73.143 318.88 CURVE SMOOTH",
"73.143 228.875 OFFCURVE",
"69.827 142.715 OFFCURVE",
"63.1 73.5 CURVE SMOOTH",
"58.9 29.7 OFFCURVE",
"94.9 -5 OFFCURVE",
"144.7 -5 CURVE SMOOTH",
"187.7 -5 OFFCURVE",
"218.8 22.1 OFFCURVE",
"223.4 63.4 CURVE SMOOTH",
"230.4 126.6 OFFCURVE",
"234.2 245.2 OFFCURVE",
"232.6 354.5 CURVE",
"320.8 225.9 OFFCURVE",
"416.9 99.9 OFFCURVE",
"482.9 27.1 CURVE SMOOTH",
"502.2 5.8 OFFCURVE",
"528.3 -6.1 OFFCURVE",
"555.4 -6.1 CURVE SMOOTH",
"601.5 -6.1 OFFCURVE",
"634.5 26.7 OFFCURVE",
"632.1 70.2 CURVE SMOOTH"
);
}
);
width = 694;
},
{
anchors = (
{
name = bottom;
position = "{341, 0}";
},
{
name = top;
position = "{340, 730}";
}
);
guideLines = (
{
position = "{0, -6}";
}
);
layerId = "F9A96203-4E56-41C0-BC85-563659FEF099";
paths = (
{
closed = 1;
nodes = (
"580.869 130.942 OFFCURVE",
"578.815 230.752 OFFCURVE",
"578.815 332.432 CURVE SMOOTH",
"578.815 442.434 OFFCURVE",
"581.219 554.623 OFFCURVE",
"586 669 CURVE SMOOTH",
"586.9 689.9 OFFCURVE",
"572.2 705.3 OFFCURVE",
"551.3 705.3 CURVE SMOOTH",
"531.2 705.3 OFFCURVE",
"516.7 690.8 OFFCURVE",
"516 670 CURVE SMOOTH",
"510.806 520.546 OFFCURVE",
"508.269 411.845 OFFCURVE",
"508.269 323.573 CURVE SMOOTH",
"508.269 252.081 OFFCURVE",
"509.933 193.989 OFFCURVE",
"513.2 138.5 CURVE",
"365.9 330.6 OFFCURVE",
"225.8 542.5 OFFCURVE",
"151 686.3 CURVE SMOOTH",
"144.5 698.6 OFFCURVE",
"132.4 705.8 OFFCURVE",
"118.2 705.8 CURVE SMOOTH",
"96 705.8 OFFCURVE",
"79.3 689.3 OFFCURVE",
"80.6 668.7 CURVE SMOOTH",
"89.693 525.857 OFFCURVE",
"94.216 400.914 OFFCURVE",
"94.216 289.481 CURVE SMOOTH",
"94.216 195.043 OFFCURVE",
"90.968 110.307 OFFCURVE",
"84.5 32.6 CURVE SMOOTH",
"82.7 10.6 OFFCURVE",
"97.7 -5.8 OFFCURVE",
"119.5 -5.8 CURVE SMOOTH",
"139 -5.8 OFFCURVE",
"153.2 7.5 OFFCURVE",
"154.6 26.9 CURVE SMOOTH",
"161.066 115.643 OFFCURVE",
"164.239 198.917 OFFCURVE",
"164.239 291.254 CURVE SMOOTH",
"164.239 364.565 OFFCURVE",
"162.239 443.59 OFFCURVE",
"158.3 535.6 CURVE",
"215.6 428.6 OFFCURVE",
"327.8 266.4 OFFCURVE",
"519.7 12 CURVE SMOOTH",
"527.9 1.1 OFFCURVE",
"539.3 -5.1 OFFCURVE",
"551.4 -5.1 CURVE SMOOTH",
"571.5 -5.1 OFFCURVE",
"585.9 11.3 OFFCURVE",
"585 33 CURVE SMOOTH"
);
}
);
width = 667;
}
);
leftKerningGroup = M;
rightKerningGroup = H1;
unicode = 004E;
},
{
glyphname = M;
layers = (
{
layerId = "9B6556BE-0D60-403F-880A-9E0B7B019CCB";
paths = (
{
closed = 1;
nodes = (
"713.983 234.9 OFFCURVE",
"714.201 463.291 OFFCURVE",
"728.75 689.7 CURVE SMOOTH",
"729.163 696.119 OFFCURVE",
"725.408 700.687 OFFCURVE",
"719.721 700.687 CURVE SMOOTH",
"715.085 700.687 OFFCURVE",
"710.457 697.631 OFFCURVE",
"707.4 692.55 CURVE SMOOTH",
"597.359 509.668 OFFCURVE",
"475.469 281.143 OFFCURVE",
"396.57 109.791 CURVE",
"313.511 327.148 OFFCURVE",
"230.68 501.455 OFFCURVE",
"120 691.8 CURVE SMOOTH",
"116.73 697.424 OFFCURVE",
"111.535 700.701 OFFCURVE",
"105.889 700.701 CURVE SMOOTH",
"96.703 700.701 OFFCURVE",
"90.242 692.381 OFFCURVE",
"91.25 681.85 CURVE SMOOTH",
"110.597 479.61 OFFCURVE",
"110.291 262.758 OFFCURVE",
"90.5 10.05 CURVE SMOOTH",
"89.952 3.046 OFFCURVE",
"93.51 -2.062 OFFCURVE",
"98.938 -2.062 CURVE SMOOTH",
"103.847 -2.062 OFFCURVE",
"107.74 2.123 OFFCURVE",
"108.25 7.95 CURVE SMOOTH",
"127.103 223.207 OFFCURVE",
"127.62 497.064 OFFCURVE",
"110.014 675.407 CURVE",
"231.07 458.545 OFFCURVE",
"312.265 284.836 OFFCURVE",
"385.35 86.35 CURVE SMOOTH",
"386.91 82.114 OFFCURVE",
"390.519 79.501 OFFCURVE",
"394.81 79.501 CURVE SMOOTH",
"399.044 79.501 OFFCURVE",
"402.826 82.05 OFFCURVE",
"404.75 86.2 CURVE SMOOTH",
"483.277 255.568 OFFCURVE",
"604.846 485.67 OFFCURVE",
"709.734 663.462 CURVE",
"696.633 443.418 OFFCURVE",
"696.819 243.208 OFFCURVE",
"710.35 6.9 CURVE SMOOTH",
"710.656 1.558 OFFCURVE",
"714.052 -1.975 OFFCURVE",
"718.88 -1.975 CURVE SMOOTH",
"724.397 -1.975 OFFCURVE",
"728.451 2.455 OFFCURVE",
"728.1 8.1 CURVE SMOOTH"
);
}
);
width = 819;
},
{
guideLines = (
{
position = "{0, 706}";
},
{
position = "{0, -6}";
}
);
layerId = "53D8B3CD-CAC4-43E9-8418-D21F673F49BB";
paths = (
{
closed = 1;
nodes = (
"782.383 223.431 OFFCURVE",
"782.293 406.986 OFFCURVE",
"791.85 621.5 CURVE SMOOTH",
"793.969 669.064 OFFCURVE",
"755.052 705.95 OFFCURVE",
"702.75 705.95 CURVE SMOOTH",
"668.786 705.95 OFFCURVE",
"638.627 689.467 OFFCURVE",
"621 661.25 CURVE SMOOTH",
"562.04 566.871 OFFCURVE",
"479.975 416.274 OFFCURVE",
"425.004 301.577 CURVE",
"346.647 477.284 OFFCURVE",
"280.504 603.465 OFFCURVE",
"235.45 663.5 CURVE SMOOTH",
"216.446 688.824 OFFCURVE",
"187.631 703.15 OFFCURVE",
"155.7 703.15 CURVE SMOOTH",
"99.525 703.15 OFFCURVE",
"57.602 661.631 OFFCURVE",
"61.95 610.3 CURVE SMOOTH",
"74.252 465.073 OFFCURVE",
"73.839 305.709 OFFCURVE",
"60.75 71.25 CURVE SMOOTH",
"58.265 26.732 OFFCURVE",
"92.647 -6.35 OFFCURVE",
"141.4 -6.35 CURVE SMOOTH",
"185.203 -6.35 OFFCURVE",
"217.174 21.046 OFFCURVE",
"220.2 61.1 CURVE SMOOTH",
"223.819 109.009 OFFCURVE",
"228.678 238.537 OFFCURVE",
"231.738 368.679 CURVE",
"275.221 268.343 OFFCURVE",
"319.521 160.004 OFFCURVE",
"338.05 108.75 CURVE SMOOTH",
"349.46 77.19 OFFCURVE",
"378.72 57 OFFCURVE",
"413.05 57 CURVE SMOOTH",
"445.173 57 OFFCURVE",
"473.112 74.74 OFFCURVE",
"486.3 103.55 CURVE SMOOTH",
"509.484 154.198 OFFCURVE",
"568.161 268 OFFCURVE",
"624.245 371.093 CURVE",
"626.296 208.843 OFFCURVE",
"629.088 112.487 OFFCURVE",
"633.15 66.5 CURVE SMOOTH",
"636.965 23.312 OFFCURVE",
"670.338 -6.45 OFFCURVE",
"714.95 -6.45 CURVE SMOOTH",
"762.219 -6.45 OFFCURVE",
"794.948 26.449 OFFCURVE",
"792.1 71.1 CURVE SMOOTH"
);
}
);
width = 833;
},
{
layerId = "F9A96203-4E56-41C0-BC85-563659FEF099";
paths = (
{
closed = 1;
nodes = (
"715.552 216.229 OFFCURVE",
"715.467 408.389 OFFCURVE",
"725.9 662.95 CURVE SMOOTH",
"726.801 684.93 OFFCURVE",
"711.282 701.75 OFFCURVE",
"690.1 701.75 CURVE SMOOTH",
"674.343 701.75 OFFCURVE",
"660.665 692.058 OFFCURVE",
"653.7 675.95 CURVE SMOOTH",
"568.758 479.494 OFFCURVE",
"491.61 330.316 OFFCURVE",
"399.784 184.962 CURVE",
"342.007 343.834 OFFCURVE",
"255.411 520.883 OFFCURVE",
"156 685 CURVE SMOOTH",
"148.267 697.766 OFFCURVE",
"135.624 705.1 OFFCURVE",
"121.35 705.1 CURVE SMOOTH",
"97.012 705.1 OFFCURVE",
"79.019 685.285 OFFCURVE",
"81.45 661.15 CURVE SMOOTH",
"100.546 471.543 OFFCURVE",
"100.401 273.756 OFFCURVE",
"81 31 CURVE SMOOTH",
"79.302 9.749 OFFCURVE",
"93.875 -5.95 OFFCURVE",
"115.3 -5.95 CURVE SMOOTH",
"134.924 -5.95 OFFCURVE",
"149.563 7.549 OFFCURVE",
"151 27 CURVE SMOOTH",
"166.752 240.246 OFFCURVE",
"169.672 390.237 OFFCURVE",
"160.987 540.045 CURVE",
"245.599 385.259 OFFCURVE",
"314.737 228.185 OFFCURVE",
"357 94 CURVE SMOOTH",
"362.704 75.891 OFFCURVE",
"374.148 65.1 OFFCURVE",
"387.65 65.1 CURVE SMOOTH",
"398.913 65.1 OFFCURVE",
"410.181 72.624 OFFCURVE",
"419 86 CURVE SMOOTH",
"518.237 236.516 OFFCURVE",
"593.044 371.526 OFFCURVE",
"654.024 510.168 CURVE",
"645.728 356.543 OFFCURVE",
"646.357 221.868 OFFCURVE",
"656 29 CURVE SMOOTH",
"657.043 8.145 OFFCURVE",
"671.148 -5.9 OFFCURVE",
"691.05 -5.9 CURVE SMOOTH",
"711.941 -5.9 OFFCURVE",
"727.103 9.24 OFFCURVE",
"726 29 CURVE SMOOTH"
);
}
);
width = 807;
},
{
layerId = "9B6556BE-0D60-403F-880A-9E0B7B019CCB";
paths = (
{
closed = 1;
nodes = (
"721.161 119.722 OFFCURVE",
"717.685 231.731 OFFCURVE",
"717.685 343.699 CURVE SMOOTH",
"717.685 459.234 OFFCURVE",
"721.386 574.725 OFFCURVE",
"728.8 689.7 CURVE SMOOTH",
"729.2 696.1 OFFCURVE",
"725.4 700.7 OFFCURVE",
"719.7 700.7 CURVE SMOOTH",
"715.1 700.7 OFFCURVE",
"710.5 697.6 OFFCURVE",
"707.4 692.5 CURVE SMOOTH",
"597.4 509.7 OFFCURVE",
"475.5 281.1 OFFCURVE",
"396.6 109.8 CURVE",
"313.5 327.1 OFFCURVE",
"230.7 501.5 OFFCURVE",
"120 691.8 CURVE SMOOTH",
"116.7 697.4 OFFCURVE",
"111.5 700.7 OFFCURVE",
"105.9 700.7 CURVE SMOOTH",
"96.7 700.7 OFFCURVE",
"90.2 692.4 OFFCURVE",
"91.2 681.8 CURVE SMOOTH",
"100.776 581.989 OFFCURVE",
"105.552 478.622 OFFCURVE",
"105.552 369.134 CURVE SMOOTH",
"105.552 256.818 OFFCURVE",
"100.526 138.062 OFFCURVE",
"90.5 10.1 CURVE SMOOTH",
"90 3 OFFCURVE",
"93.5 -2.1 OFFCURVE",
"98.9 -2.1 CURVE SMOOTH",
"103.8 -2.1 OFFCURVE",
"107.7 2.1 OFFCURVE",
"108.3 8 CURVE SMOOTH",
"117.984 118.852 OFFCURVE",
"122.812 245.279 OFFCURVE",
"122.812 366.192 CURVE SMOOTH",
"122.812 480.011 OFFCURVE",
"118.534 588.944 OFFCURVE",
"110 675.4 CURVE",
"231.1 458.5 OFFCURVE",
"312.3 284.8 OFFCURVE",
"385.4 86.4 CURVE SMOOTH",
"386.9 82.1 OFFCURVE",
"390.5 79.5 OFFCURVE",
"394.8 79.5 CURVE SMOOTH",
"399 79.5 OFFCURVE",
"402.8 82 OFFCURVE",
"404.8 86.2 CURVE SMOOTH",
"483.3 255.6 OFFCURVE",
"604.8 485.7 OFFCURVE",
"709.7 663.5 CURVE",
"703.26 555.305 OFFCURVE",
"700.035 451.918 OFFCURVE",
"700.035 346.689 CURVE SMOOTH",
"700.035 237.851 OFFCURVE",
"703.485 127.041 OFFCURVE",
"710.4 6.9 CURVE SMOOTH",
"710.7 1.6 OFFCURVE",
"714.1 -2 OFFCURVE",
"718.9 -2 CURVE SMOOTH",
"724.4 -2 OFFCURVE",
"728.5 2.5 OFFCURVE",
"728.1 8.1 CURVE SMOOTH"
);
}
);
width = 819;
},
{
guideLines = (
{
position = "{0, 706}";
},
{
position = "{0, -6}";
}
);
layerId = "53D8B3CD-CAC4-43E9-8418-D21F673F49BB";
paths = (
{
closed = 1;
nodes = (
"787.199 148.043 OFFCURVE",
"784.749 232.975 OFFCURVE",
"784.749 325.845 CURVE SMOOTH",
"784.749 416.799 OFFCURVE",
"787.099 515.367 OFFCURVE",
"791.8 621.5 CURVE SMOOTH",
"794 669.1 OFFCURVE",
"755.1 706 OFFCURVE",
"702.7 706 CURVE SMOOTH",
"668.8 706 OFFCURVE",
"638.6 689.5 OFFCURVE",
"621 661.2 CURVE SMOOTH",
"562 566.9 OFFCURVE",
"480 416.3 OFFCURVE",
"425 301.6 CURVE",
"346.6 477.3 OFFCURVE",
"280.5 603.5 OFFCURVE",
"235.4 663.5 CURVE SMOOTH",
"216.4 688.8 OFFCURVE",
"187.6 703.2 OFFCURVE",
"155.7 703.2 CURVE SMOOTH",
"99.5 703.2 OFFCURVE",
"57.6 661.6 OFFCURVE",
"62 610.3 CURVE SMOOTH",
"67.932 540.272 OFFCURVE",
"70.887 466.941 OFFCURVE",
"70.887 383.476 CURVE SMOOTH",
"70.887 293.879 OFFCURVE",
"67.482 192.604 OFFCURVE",
"60.7 71.2 CURVE SMOOTH",
"58.3 26.7 OFFCURVE",
"92.6 -6.4 OFFCURVE",
"141.4 -6.4 CURVE SMOOTH",
"185.2 -6.4 OFFCURVE",
"217.2 21 OFFCURVE",
"220.2 61.1 CURVE SMOOTH",
"223.8 109 OFFCURVE",
"228.7 238.5 OFFCURVE",
"231.7 368.7 CURVE",
"275.2 268.3 OFFCURVE",
"319.5 160 OFFCURVE",
"338 108.7 CURVE SMOOTH",
"349.5 77.2 OFFCURVE",
"378.7 57 OFFCURVE",
"413 57 CURVE SMOOTH",
"445.2 57 OFFCURVE",
"473.1 74.7 OFFCURVE",
"486.3 103.6 CURVE SMOOTH",
"509.5 154.2 OFFCURVE",
"568.2 268 OFFCURVE",
"624.2 371.1 CURVE",
"626.3 208.8 OFFCURVE",
"629.1 112.5 OFFCURVE",
"633.2 66.5 CURVE SMOOTH",
"637 23.3 OFFCURVE",
"670.3 -6.5 OFFCURVE",
"714.9 -6.5 CURVE SMOOTH",
"762.2 -6.5 OFFCURVE",
"794.9 26.4 OFFCURVE",
"792.1 71.1 CURVE SMOOTH"
);
}
);
width = 833;
},
{
layerId = "F9A96203-4E56-41C0-BC85-563659FEF099";
paths = (
{
closed = 1;
nodes = (
"720.775 123.05 OFFCURVE",
"718.15 218.362 OFFCURVE",
"718.15 322.215 CURVE SMOOTH",
"718.15 425.074 OFFCURVE",
"720.725 536.312 OFFCURVE",
"725.9 663 CURVE SMOOTH",
"726.8 684.9 OFFCURVE",
"711.3 701.8 OFFCURVE",
"690.1 701.8 CURVE SMOOTH",
"674.3 701.8 OFFCURVE",
"660.7 692.1 OFFCURVE",
"653.7 676 CURVE SMOOTH",
"568.8 479.5 OFFCURVE",
"491.6 330.3 OFFCURVE",
"399.8 185 CURVE",
"342 343.8 OFFCURVE",
"255.4 520.9 OFFCURVE",
"156 685 CURVE SMOOTH",
"148.3 697.8 OFFCURVE",
"135.6 705.1 OFFCURVE",
"121.3 705.1 CURVE SMOOTH",
"97 705.1 OFFCURVE",
"79 685.3 OFFCURVE",
"81.4 661.2 CURVE SMOOTH",
"90.888 566.966 OFFCURVE",
"95.638 470.758 OFFCURVE",
"95.638 368.028 CURVE SMOOTH",
"95.638 263.955 OFFCURVE",
"90.763 153.188 OFFCURVE",
"81 31 CURVE SMOOTH",
"79.3 9.7 OFFCURVE",
"93.9 -5.9 OFFCURVE",
"115.3 -5.9 CURVE SMOOTH",
"134.9 -5.9 OFFCURVE",
"149.6 7.5 OFFCURVE",
"151 27 CURVE SMOOTH",
"160.995 161.863 OFFCURVE",
"165.827 271.437 OFFCURVE",
"165.827 371.669 CURVE SMOOTH",
"165.827 429.89 OFFCURVE",
"164.197 484.958 OFFCURVE",
"161 540 CURVE",
"245.6 385.3 OFFCURVE",
"314.7 228.2 OFFCURVE",
"357 94 CURVE SMOOTH",
"362.7 75.9 OFFCURVE",
"374.1 65.1 OFFCURVE",
"387.6 65.1 CURVE SMOOTH",
"398.9 65.1 OFFCURVE",
"410.2 72.6 OFFCURVE",
"419 86 CURVE SMOOTH",
"518.2 236.5 OFFCURVE",
"593 371.5 OFFCURVE",
"654 510.2 CURVE",
"650.163 439.145 OFFCURVE",
"648.249 372.172 OFFCURVE",
"648.249 301.633 CURVE SMOOTH",
"648.249 219.589 OFFCURVE",
"650.838 132.723 OFFCURVE",
"656 29 CURVE SMOOTH",
"657 8.1 OFFCURVE",
"671.1 -5.9 OFFCURVE",
"691 -5.9 CURVE SMOOTH",
"711.9 -5.9 OFFCURVE",
"727.1 9.2 OFFCURVE",
"726 29 CURVE SMOOTH"
);
}
);
width = 807;
}
);
leftKerningGroup = M;
rightKerningGroup = H1;
unicode = 004D;
},
{
glyphname = Q;
layers = (
{
guideLines = (
{
angle = 90;
position = "{-725, 0}";
}
);
layerId = "9B6556BE-0D60-403F-880A-9E0B7B019CCB";
paths = (
{
closed = 1;
nodes = (
"587.325 -90.307 OFFCURVE",
"592.463 -86.031 OFFCURVE",
"592.463 -80.271 CURVE SMOOTH",
"592.463 -76.165 OFFCURVE",
"589.601 -73.168 OFFCURVE",
"584.9 -72.35 CURVE SMOOTH",
"517.519 -60.631 OFFCURVE",
"467.513 -46.358 OFFCURVE",
"358.073 -7.61 CURVE",
"499.458 14.161 OFFCURVE",
"604.8 172.354 OFFCURVE",
"604.8 362.9 CURVE SMOOTH",
"604.8 563.749 OFFCURVE",
"490.851 709.8 OFFCURVE",
"334.15 709.8 CURVE SMOOTH",
"175.295 709.8 OFFCURVE",
"60 560.293 OFFCURVE",
"60 354.3 CURVE SMOOTH",
"60 148.821 OFFCURVE",
"170.602 -6.308 OFFCURVE",
"319.557 -9.753 CURVE",
"425.576 -51.747 OFFCURVE",
"482.777 -69.073 OFFCURVE",
"581.762 -89.177 CURVE SMOOTH"
);
},
{
closed = 1;
nodes = (
"186.34 6.8 OFFCURVE",
"77.75 158.365 OFFCURVE",
"77.75 348.9 CURVE SMOOTH",
"77.75 540.262 OFFCURVE",
"192.309 693.2 OFFCURVE",
"335.65 693.2 CURVE SMOOTH",
"475.463 693.2 OFFCURVE",
"587.05 545.683 OFFCURVE",
"587.05 360.85 CURVE SMOOTH",
"587.05 170.295 OFFCURVE",
"465.046 6.8 OFFCURVE",
"322.85 6.8 CURVE SMOOTH"
);
}
);
width = 665;
},
{
guideLines = (
{
angle = 90;
position = "{-662, 0}";
}
);
layerId = "53D8B3CD-CAC4-43E9-8418-D21F673F49BB";
paths = (
{
closed = 1;
nodes = (
"648.776 -92.1 OFFCURVE",
"680.48 -63.806 OFFCURVE",
"680.48 -26.836 CURVE SMOOTH",
"680.48 6.842 OFFCURVE",
"653.449 32.118 OFFCURVE",
"611.4 37.8 CURVE SMOOTH",
"579.892 42.057 OFFCURVE",
"549.45 47.243 OFFCURVE",
"519.744 53.414 CURVE",
"606.729 121.637 OFFCURVE",
"657.7 236.095 OFFCURVE",
"657.7 363.2 CURVE SMOOTH",
"657.7 565.771 OFFCURVE",
"525.176 713.7 OFFCURVE",
"343.7 713.7 CURVE SMOOTH",
"161.345 713.7 OFFCURVE",
"30.35 564.144 OFFCURVE",
"30.35 355.95 CURVE SMOOTH",
"30.35 152.368 OFFCURVE",
"158.254 -3.086 OFFCURVE",
"330.526 -8.883 CURVE",
"458.869 -59.24 OFFCURVE",
"568.178 -92.1 OFFCURVE",
"607.35 -92.1 CURVE SMOOTH"
);
},
{
closed = 1;
nodes = (
"256.979 122.25 OFFCURVE",
"192.4 224.984 OFFCURVE",
"192.4 351.25 CURVE SMOOTH",
"192.4 477.775 OFFCURVE",
"263.034 584.4 OFFCURVE",
"346.85 584.4 CURVE SMOOTH",
"427.542 584.4 OFFCURVE",
"495.6 482.713 OFFCURVE",
"495.6 362.15 CURVE SMOOTH",
"495.6 235.605 OFFCURVE",
"420.353 122.25 OFFCURVE",
"336.35 122.25 CURVE SMOOTH"
);
}
);
width = 711;
},
{
guideLines = (
{
angle = 90;
position = "{-710, 0}";
}
);
layerId = "F9A96203-4E56-41C0-BC85-563659FEF099";
paths = (
{
closed = 1;
nodes = (
"585.256 -89.168 OFFCURVE",
"606.019 -72.39 OFFCURVE",
"606.019 -50.044 CURVE SMOOTH",
"606.019 -34.079 OFFCURVE",
"594.329 -22.726 OFFCURVE",
"575 -20 CURVE SMOOTH",
"522.239 -12.559 OFFCURVE",
"482.186 -2.808 OFFCURVE",
"427.79 15.84 CURVE",
"537.006 71.575 OFFCURVE",
"608 207.944 OFFCURVE",
"608 362 CURVE SMOOTH",
"608 563.462 OFFCURVE",
"491.191 710 OFFCURVE",
"330.6 710 CURVE SMOOTH",
"167.997 710 OFFCURVE",
"50 560.296 OFFCURVE",
"50 354 CURVE SMOOTH",
"50 147.851 OFFCURVE",
"164.317 -7.437 OFFCURVE",
"317.937 -9.969 CURVE",
"425.692 -52.46 OFFCURVE",
"481.061 -63.833 OFFCURVE",
"564 -84 CURVE SMOOTH"
);
},
{
closed = 1;
nodes = (
"208.649 60 OFFCURVE",
"120 188.002 OFFCURVE",
"120 349 CURVE SMOOTH",
"120 510.699 OFFCURVE",
"214.199 640 OFFCURVE",
"332 640 CURVE SMOOTH",
"446.569 640 OFFCURVE",
"538 515.725 OFFCURVE",
"538 360 CURVE SMOOTH",
"538 198.518 OFFCURVE",
"437.413 60 OFFCURVE",
"320.15 60 CURVE SMOOTH"
);
}
);
width = 658;
},
{
guideLines = (
{
angle = 90;
position = "{-725, 0}";
}
);
layerId = "9B6556BE-0D60-403F-880A-9E0B7B019CCB";
paths = (
{
closed = 1;
nodes = (
"587.3 -90.3 OFFCURVE",
"592.5 -86 OFFCURVE",
"592.5 -80.3 CURVE SMOOTH",
"592.5 -76.2 OFFCURVE",
"589.6 -73.2 OFFCURVE",
"584.9 -72.3 CURVE SMOOTH",
"517.5 -60.6 OFFCURVE",
"467.5 -46.4 OFFCURVE",
"358.1 -7.6 CURVE",
"499.5 14.2 OFFCURVE",
"604.8 172.4 OFFCURVE",
"604.8 362.9 CURVE SMOOTH",
"604.8 563.7 OFFCURVE",
"490.9 709.8 OFFCURVE",
"334.1 709.8 CURVE SMOOTH",
"175.3 709.8 OFFCURVE",
"60 560.3 OFFCURVE",
"60 354.3 CURVE SMOOTH",
"60 148.8 OFFCURVE",
"170.6 -6.3 OFFCURVE",
"319.6 -9.8 CURVE",
"425.6 -51.7 OFFCURVE",
"482.8 -69.1 OFFCURVE",
"581.8 -89.2 CURVE SMOOTH"
);
},
{
closed = 1;
nodes = (
"186.3 6.8 OFFCURVE",
"77.8 158.4 OFFCURVE",
"77.8 348.9 CURVE SMOOTH",
"77.8 540.3 OFFCURVE",
"192.3 693.2 OFFCURVE",
"335.7 693.2 CURVE SMOOTH",
"475.5 693.2 OFFCURVE",
"587.1 545.7 OFFCURVE",
"587.1 360.8 CURVE SMOOTH",
"587.1 170.3 OFFCURVE",
"465 6.8 OFFCURVE",
"322.9 6.8 CURVE SMOOTH"
);
}
);
width = 665;
},
{
guideLines = (
{
angle = 90;
position = "{-662, 0}";
}
);
layerId = "53D8B3CD-CAC4-43E9-8418-D21F673F49BB";
paths = (
{
closed = 1;
nodes = (
"648.8 -92.1 OFFCURVE",
"680.5 -63.8 OFFCURVE",
"680.5 -26.8 CURVE SMOOTH",
"680.5 6.8 OFFCURVE",
"653.4 32.1 OFFCURVE",
"611.4 37.8 CURVE SMOOTH",
"579.9 42.1 OFFCURVE",
"549.4 47.2 OFFCURVE",
"519.7 53.4 CURVE",
"606.7 121.6 OFFCURVE",
"657.7 236.1 OFFCURVE",
"657.7 363.2 CURVE SMOOTH",
"657.7 565.8 OFFCURVE",
"525.2 713.7 OFFCURVE",
"343.7 713.7 CURVE SMOOTH",
"161.3 713.7 OFFCURVE",
"30.3 564.1 OFFCURVE",
"30.3 356 CURVE SMOOTH",
"30.3 152.4 OFFCURVE",
"158.3 -3.1 OFFCURVE",
"330.5 -8.9 CURVE",
"458.9 -59.2 OFFCURVE",
"568.2 -92.1 OFFCURVE",
"607.3 -92.1 CURVE SMOOTH"
);
},
{
closed = 1;
nodes = (
"257 122.3 OFFCURVE",
"192.4 225 OFFCURVE",
"192.4 351.3 CURVE SMOOTH",
"192.4 477.8 OFFCURVE",
"263 584.4 OFFCURVE",
"346.9 584.4 CURVE SMOOTH",
"427.5 584.4 OFFCURVE",
"495.6 482.7 OFFCURVE",
"495.6 362.2 CURVE SMOOTH",
"495.6 235.6 OFFCURVE",
"420.4 122.3 OFFCURVE",
"336.4 122.3 CURVE SMOOTH"
);
}
);
width = 711;
},
{
guideLines = (
{
angle = 90;
position = "{-710, 0}";
}
);
layerId = "F9A96203-4E56-41C0-BC85-563659FEF099";
paths = (
{
closed = 1;
nodes = (
"585.3 -89.2 OFFCURVE",
"606 -72.4 OFFCURVE",
"606 -50 CURVE SMOOTH",
"606 -34.1 OFFCURVE",
"594.3 -22.7 OFFCURVE",
"575 -20 CURVE SMOOTH",
"522.2 -12.6 OFFCURVE",
"482.2 -2.8 OFFCURVE",
"427.8 15.8 CURVE",
"537 71.6 OFFCURVE",
"608 207.9 OFFCURVE",
"608 362 CURVE SMOOTH",
"608 563.5 OFFCURVE",
"491.2 710 OFFCURVE",
"330.6 710 CURVE SMOOTH",
"168 710 OFFCURVE",
"50 560.3 OFFCURVE",
"50 354 CURVE SMOOTH",
"50 147.9 OFFCURVE",
"164.3 -7.4 OFFCURVE",
"317.9 -10 CURVE",
"425.7 -52.5 OFFCURVE",
"481.1 -63.8 OFFCURVE",
"564 -84 CURVE SMOOTH"
);
},
{
closed = 1;
nodes = (
"208.6 60 OFFCURVE",
"120 188 OFFCURVE",
"120 349 CURVE SMOOTH",
"120 510.7 OFFCURVE",
"214.2 640 OFFCURVE",
"332 640 CURVE SMOOTH",
"446.6 640 OFFCURVE",
"538 515.7 OFFCURVE",
"538 360 CURVE SMOOTH",
"538 198.5 OFFCURVE",
"437.4 60 OFFCURVE",
"320.1 60 CURVE SMOOTH"
);
}
);
width = 658;
}
);
unicode = 0051;
},
{
glyphname = T;
layers = (
{
anchors = (
{
name = bottom;
position = "{279, 0}";
},
{
name = top;
position = "{279, 730}";
}
);
guideLines = (
{
position = "{0, -6}";
}
);
layerId = "9B6556BE-0D60-403F-880A-9E0B7B019CCB";
paths = (
{
closed = 1;
nodes = (
"298.589 240.874 OFFCURVE",
"299.957 480.449 OFFCURVE",
"290.358 671.627 CURVE",
"369.359 675.251 OFFCURVE",
"442.739 680.693 OFFCURVE",
"516.3 689.1 CURVE SMOOTH",
"521.263 689.667 OFFCURVE",
"524.571 693.093 OFFCURVE",
"524.571 697.666 CURVE SMOOTH",
"524.571 703.184 OFFCURVE",
"519.973 706.961 OFFCURVE",
"514 706.35 CURVE SMOOTH",
"349.051 689.464 OFFCURVE",
"235.589 683.412 OFFCURVE",
"40.45 682.7 CURVE SMOOTH",
"34.411 682.678 OFFCURVE",
"30.099 679.239 OFFCURVE",
"30.099 674.445 CURVE SMOOTH",
"30.099 669.808 OFFCURVE",
"34.158 666.499 OFFCURVE",
"39.85 666.5 CURVE SMOOTH",
"125.498 666.522 OFFCURVE",
"201.252 667.942 OFFCURVE",
"271.386 670.838 CURVE",
"283.319 498.358 OFFCURVE",
"278.65 275.884 OFFCURVE",
"269.734 5.386 CURVE SMOOTH",
"269.481 -2.265 OFFCURVE",
"273.407 -6.017 OFFCURVE",
"278.986 -6.017 CURVE SMOOTH",
"284.316 -6.017 OFFCURVE",
"288.187 -2.545 OFFCURVE",
"288.4 2.45 CURVE SMOOTH"
);
}
);
width = 555;
},
{
anchors = (
{
name = bottom;
position = "{301, 0}";
},
{
name = top;
position = "{279, 730}";
}
);
guideLines = (
{
position = "{0, -6}";
}
);
layerId = "53D8B3CD-CAC4-43E9-8418-D21F673F49BB";
paths = (
{
closed = 1;
nodes = (
"389.648 261.864 OFFCURVE",
"390.616 381.566 OFFCURVE",
"384.006 563.822 CURVE",
"429.344 567.871 OFFCURVE",
"475.725 572.398 OFFCURVE",
"524.15 577.5 CURVE SMOOTH",
"561.363 581.42 OFFCURVE",
"586.823 607.917 OFFCURVE",
"586.823 642.723 CURVE SMOOTH",
"586.823 684.401 OFFCURVE",
"551.78 711.722 OFFCURVE",
"505.15 706.4 CURVE SMOOTH",
"340.287 687.582 OFFCURVE",
"222.727 681.019 OFFCURVE",
"70.75 682.15 CURVE SMOOTH",
"29.773 682.455 OFFCURVE",
"0.981 655.731 OFFCURVE",
"0.981 617.391 CURVE SMOOTH",
"0.981 579.744 OFFCURVE",
"28.719 552.228 OFFCURVE",
"66.85 552.05 CURVE SMOOTH",
"131.733 551.747 OFFCURVE",
"177.757 552.317 OFFCURVE",
"223.872 553.994 CURVE",
"231.248 411.726 OFFCURVE",
"230.116 258.011 OFFCURVE",
"220.3 69 CURVE SMOOTH",
"218.093 26.51 OFFCURVE",
"252.478 -5.677 OFFCURVE",
"300.076 -5.677 CURVE SMOOTH",
"345.494 -5.677 OFFCURVE",
"377.805 24.21 OFFCURVE",
"380 68.25 CURVE SMOOTH"
);
}
);
width = 587;
},
{
anchors = (
{
name = bottom;
position = "{279, 0}";
},
{
name = top;
position = "{279, 730}";
}
);
layerId = "F9A96203-4E56-41C0-BC85-563659FEF099";
paths = (
{
closed = 1;
nodes = (
"326.789 263.596 OFFCURVE",
"327.818 445.059 OFFCURVE",
"319.39 625 CURVE",
"375.882 629.044 OFFCURVE",
"434.672 634.974 OFFCURVE",
"504.3 643.65 CURVE SMOOTH",
"523.532 646.046 OFFCURVE",
"536.704 659.731 OFFCURVE",
"536.704 677.316 CURVE SMOOTH",
"536.704 698.732 OFFCURVE",
"517.982 712.423 OFFCURVE",
"492.9 709.35 CURVE SMOOTH",
"334.799 689.976 OFFCURVE",
"231.68 684 OFFCURVE",
"55.5 684 CURVE SMOOTH",
"35.279 684 OFFCURVE",
"20.905 670.659 OFFCURVE",
"20.905 651.891 CURVE SMOOTH",
"20.905 632.358 OFFCURVE",
"36.357 618.243 OFFCURVE",
"57.95 618.05 CURVE SMOOTH",
"130.22 617.405 OFFCURVE",
"190.64 618.309 OFFCURVE",
"248.34 620.9 CURVE",
"258.433 478.816 OFFCURVE",
"257.736 302.316 OFFCURVE",
"246 29 CURVE SMOOTH",
"245.141 8.997 OFFCURVE",
"260.156 -5.897 OFFCURVE",
"281.182 -5.897 CURVE SMOOTH",
"300.932 -5.897 OFFCURVE",
"315.111 7.499 OFFCURVE",
"316 27 CURVE SMOOTH"
);
}
);
width = 557;
},
{
anchors = (
{
name = bottom;
position = "{279, 0}";
},
{
name = top;
position = "{279, 730}";
}
);
guideLines = (
{
position = "{0, -6}";
}
);
layerId = "9B6556BE-0D60-403F-880A-9E0B7B019CCB";
paths = (
{
closed = 1;
nodes = (
"293.936 131.886 OFFCURVE",
"296.88 261.596 OFFCURVE",
"296.88 383.733 CURVE SMOOTH",
"296.88 486.639 OFFCURVE",
"294.79 584.169 OFFCURVE",
"290.4 671.6 CURVE",
"369.4 675.3 OFFCURVE",
"442.7 680.7 OFFCURVE",
"516.3 689.1 CURVE SMOOTH",
"521.3 689.7 OFFCURVE",
"524.6 693.1 OFFCURVE",
"524.6 697.7 CURVE SMOOTH",
"524.6 703.2 OFFCURVE",
"520 707 OFFCURVE",
"514 706.3 CURVE SMOOTH",
"349.1 689.5 OFFCURVE",
"235.6 683.4 OFFCURVE",
"40.4 682.7 CURVE SMOOTH",
"34.4 682.7 OFFCURVE",
"30.1 679.2 OFFCURVE",
"30.1 674.4 CURVE SMOOTH",
"30.1 669.8 OFFCURVE",
"34.2 666.5 OFFCURVE",
"39.8 666.5 CURVE SMOOTH",
"125.5 666.5 OFFCURVE",
"201.3 667.9 OFFCURVE",
"271.4 670.8 CURVE",
"276.489 597.07 OFFCURVE",
"278.561 514.176 OFFCURVE",
"278.561 422.283 CURVE SMOOTH",
"278.561 299.308 OFFCURVE",
"274.851 160.215 OFFCURVE",
"269.7 5.4 CURVE SMOOTH",
"269.5 -2.3 OFFCURVE",
"273.4 -6 OFFCURVE",
"279 -6 CURVE SMOOTH",
"284.3 -6 OFFCURVE",
"288.2 -2.5 OFFCURVE",
"288.4 2.5 CURVE SMOOTH"
);
}
);
width = 555;
},
{
anchors = (
{
name = bottom;
position = "{301, 0}";
},
{
name = top;
position = "{279, 730}";
}
);
guideLines = (
{
position = "{0, -6}";
}
);
layerId = "53D8B3CD-CAC4-43E9-8418-D21F673F49BB";
paths = (
{
closed = 1;
nodes = (
"385.544 180.11 OFFCURVE",
"388.22 267.271 OFFCURVE",
"388.22 356.059 CURVE SMOOTH",
"388.22 421.007 OFFCURVE",
"386.788 486.826 OFFCURVE",
"384 563.8 CURVE",
"429.3 567.9 OFFCURVE",
"475.7 572.4 OFFCURVE",
"524.2 577.5 CURVE SMOOTH",
"561.4 581.4 OFFCURVE",
"586.8 607.9 OFFCURVE",
"586.8 642.7 CURVE SMOOTH",
"586.8 684.4 OFFCURVE",
"551.8 711.7 OFFCURVE",
"505.2 706.4 CURVE SMOOTH",
"340.3 687.6 OFFCURVE",
"222.7 681 OFFCURVE",
"70.8 682.1 CURVE SMOOTH",
"29.8 682.5 OFFCURVE",
"1 655.7 OFFCURVE",
"1 617.4 CURVE SMOOTH",
"1 579.7 OFFCURVE",
"28.7 552.2 OFFCURVE",
"66.9 552 CURVE SMOOTH",
"131.7 551.7 OFFCURVE",
"177.8 552.3 OFFCURVE",
"223.9 554 CURVE",
"227.048 492.64 OFFCURVE",
"228.634 429.16 OFFCURVE",
"228.634 361.644 CURVE SMOOTH",
"228.634 272.584 OFFCURVE",
"225.874 176.503 OFFCURVE",
"220.3 69 CURVE SMOOTH",
"218.1 26.5 OFFCURVE",
"252.5 -5.7 OFFCURVE",
"300.1 -5.7 CURVE SMOOTH",
"345.5 -5.7 OFFCURVE",
"377.8 24.2 OFFCURVE",
"380 68.3 CURVE SMOOTH"
);
}
);
width = 587;
},
{
anchors = (
{
name = bottom;
position = "{279, 0}";
},
{
name = top;
position = "{279, 730}";
}
);
layerId = "F9A96203-4E56-41C0-BC85-563659FEF099";
paths = (
{
closed = 1;
nodes = (
"322.019 158.871 OFFCURVE",
"324.995 273.626 OFFCURVE",
"324.995 380.527 CURVE SMOOTH",
"324.995 465.425 OFFCURVE",
"323.118 545.369 OFFCURVE",
"319.4 625 CURVE",
"375.9 629 OFFCURVE",
"434.7 635 OFFCURVE",
"504.3 643.6 CURVE SMOOTH",
"523.5 646 OFFCURVE",
"536.7 659.7 OFFCURVE",
"536.7 677.3 CURVE SMOOTH",
"536.7 698.7 OFFCURVE",
"518 712.4 OFFCURVE",
"492.9 709.3 CURVE SMOOTH",
"334.8 690 OFFCURVE",
"231.7 684 OFFCURVE",
"55.5 684 CURVE SMOOTH",
"35.3 684 OFFCURVE",
"20.9 670.7 OFFCURVE",
"20.9 651.9 CURVE SMOOTH",
"20.9 632.4 OFFCURVE",
"36.4 618.2 OFFCURVE",
"58 618.1 CURVE SMOOTH",
"130.2 617.4 OFFCURVE",
"190.6 618.3 OFFCURVE",
"248.3 620.9 CURVE",
"253.002 554.74 OFFCURVE",
"255.364 481.124 OFFCURVE",
"255.364 393.753 CURVE SMOOTH",
"255.364 293.465 OFFCURVE",
"252.253 175.055 OFFCURVE",
"246 29 CURVE SMOOTH",
"245.1 9 OFFCURVE",
"260.2 -5.9 OFFCURVE",
"281.2 -5.9 CURVE SMOOTH",
"300.9 -5.9 OFFCURVE",
"315.1 7.5 OFFCURVE",
"316 27 CURVE SMOOTH"
);
}
);
width = 557;
}
);
leftKerningGroup = T;
rightKerningGroup = T1;
unicode = 0054;
},
{
glyphname = A;
layers = (
{
anchors = (
{
name = top;
position = "{290, 730}";
}
);
layerId = "9B6556BE-0D60-403F-880A-9E0B7B019CCB";
paths = (
{
closed = 1;
nodes = (
"459.1 278.9 OFFCURVE",
"399.3 432.6 OFFCURVE",
"300.8 685.2 CURVE SMOOTH",
"298.8 690.2 OFFCURVE",
"294.8 693.2 OFFCURVE",
"290.2 693.2 CURVE SMOOTH",
"285.6 693.2 OFFCURVE",
"281.8 690.1 OFFCURVE",
"280.5 685.2 CURVE SMOOTH",
"218 454.8 OFFCURVE",
"190.6 363.2 OFFCURVE",
"147.1 238.8 CURVE",
"127 238.2 OFFCURVE",
"106.3 237.9 OFFCURVE",
"84.9 237.9 CURVE SMOOTH",
"78.6 237.9 OFFCURVE",
"74.2 234.2 OFFCURVE",
"74.2 228.6 CURVE SMOOTH",
"74.2 223.1 OFFCURVE",
"78.8 218.9 OFFCURVE",
"84.9 218.9 CURVE SMOOTH",
"102.1 218.9 OFFCURVE",
"120.6 219.3 OFFCURVE",
"140.4 220 CURVE",
"116.3 152.2 OFFCURVE",
"90.6 84.1 OFFCURVE",
"61.6 11.3 CURVE SMOOTH",
"58.5 3.4 OFFCURVE",
"62.7 -4.2 OFFCURVE",
"70.1 -4.2 CURVE SMOOTH",
"74.7 -4.2 OFFCURVE",
"78.6 -1 OFFCURVE",
"80.6 4.4 CURVE SMOOTH",
"108.5 77 OFFCURVE",
"134.4 148.8 OFFCURVE",
"159 220.8 CURVE",
"261.7 225.4 OFFCURVE",
"375.9 238.8 OFFCURVE",
"454 255.3 CURVE",
"484.1 185.7 OFFCURVE",
"519.1 107.4 OFFCURVE",
"564.1 8.4 CURVE SMOOTH",
"566.6 3 OFFCURVE",
"570.5 -0.1 OFFCURVE",
"574.9 -0.1 CURVE SMOOTH",
"582.2 -0.1 OFFCURVE",
"586.6 7.6 OFFCURVE",
"583.3 14.6 CURVE SMOOTH"
);
},
{
closed = 1;
nodes = (
"347.5 253.6 OFFCURVE",
"261 243.1 OFFCURVE",
"165.4 239.5 CURVE",
"206.6 361.6 OFFCURVE",
"244.2 485.3 OFFCURVE",
"292 655.9 CURVE",
"342.9 520.7 OFFCURVE",
"390.6 402.3 OFFCURVE",
"446.1 273.3 CURVE"
);
}
);
width = 614;
},
{
anchors = (
{
name = top;
position = "{360, 730}";
}
);
layerId = "53D8B3CD-CAC4-43E9-8418-D21F673F49BB";
paths = (
{
closed = 1;
nodes = (
"584.7 328.7 OFFCURVE",
"533.2 447.8 OFFCURVE",
"457.4 646.5 CURVE SMOOTH",
"441.2 689 OFFCURVE",
"402.9 715.8 OFFCURVE",
"358.8 715.8 CURVE SMOOTH",
"312.5 715.8 OFFCURVE",
"274.8 686.5 OFFCURVE",
"263 641.3 CURVE SMOOTH",
"228.5 509.3 OFFCURVE",
"195.5 403 OFFCURVE",
"152.5 285.5 CURVE",
"135.9 286.1 OFFCURVE",
"119.3 286.8 OFFCURVE",
"102.7 287.8 CURVE SMOOTH",
"60.9 290.1 OFFCURVE",
"30.8 262.9 OFFCURVE",
"30.8 222.8 CURVE SMOOTH",
"30.8 178.474 OFFCURVE",
"61.777 156.56 OFFCURVE",
"102.7 154.7 CURVE",
"95.1 135.2 OFFCURVE",
"86.6 113.4 OFFCURVE",
"75.4 85.1 CURVE SMOOTH",
"71.003 73.986 OFFCURVE",
"68.942 62.985 OFFCURVE",
"68.942 52.494 CURVE SMOOTH",
"68.942 10.502 OFFCURVE",
"101.953 -23.3 OFFCURVE",
"150.2 -23.3 CURVE SMOOTH",
"184.7 -23.3 OFFCURVE",
"212.9 -3.2 OFFCURVE",
"225.9 30.7 CURVE SMOOTH",
"243.1 75.7 OFFCURVE",
"257.6 115.4 OFFCURVE",
"270.5 152.7 CURVE",
"346.9 154.3 OFFCURVE",
"419.6 159.5 OFFCURVE",
"489.6 168.4 CURVE",
"502.5 136.7 OFFCURVE",
"517.1 101.4 OFFCURVE",
"541.7 41.8 CURVE SMOOTH",
"554.3 11.3 OFFCURVE",
"581 -6.5 OFFCURVE",
"613.9 -6.5 CURVE SMOOTH",
"664.315 -6.5 OFFCURVE",
"698.7 28.29 OFFCURVE",
"698.7 70.431 CURVE SMOOTH",
"698.7 82.372 OFFCURVE",
"695.939 94.903 OFFCURVE",
"690 107.4 CURVE SMOOTH"
);
},
{
closed = 1;
nodes = (
"396.7 289.3 OFFCURVE",
"354.3 286.7 OFFCURVE",
"312.7 285.3 CURVE",
"330 345.2 OFFCURVE",
"346.4 409.8 OFFCURVE",
"366.6 497.5 CURVE",
"392.4 421.9 OFFCURVE",
"415.4 357.9 OFFCURVE",
"440.3 293 CURVE"
);
}
);
width = 699;
},
{
anchors = (
{
name = top;
position = "{293, 730}";
}
);
layerId = "F9A96203-4E56-41C0-BC85-563659FEF099";
paths = (
{
closed = 1;
nodes = (
"492.2 263.6 OFFCURVE",
"420.7 434.6 OFFCURVE",
"325.8 682 CURVE SMOOTH",
"320.1 696.8 OFFCURVE",
"307.4 706 OFFCURVE",
"292.7 706 CURVE SMOOTH",
"276.4 706 OFFCURVE",
"262.7 694.9 OFFCURVE",
"258 677.8 CURVE SMOOTH",
"216.6 526.6 OFFCURVE",
"182.2 415.4 OFFCURVE",
"129.1 260.7 CURVE",
"116.4 260.3 OFFCURVE",
"102.9 260.1 OFFCURVE",
"87.7 260.1 CURVE SMOOTH",
"67.7 260.1 OFFCURVE",
"54 247.1 OFFCURVE",
"54 228 CURVE SMOOTH",
"54 208 OFFCURVE",
"68.8 193.1 OFFCURVE",
"88.7 193.1 CURVE SMOOTH",
"94.2 193.1 OFFCURVE",
"99.9 193.2 OFFCURVE",
"105.7 193.3 CURVE",
"90.3 148.8 OFFCURVE",
"72.7 98.6 OFFCURVE",
"53 41.8 CURVE SMOOTH",
"44.4 17.2 OFFCURVE",
"59.1 -4.4 OFFCURVE",
"84.5 -4.4 CURVE SMOOTH",
"99.5 -4.4 OFFCURVE",
"111.8 4.1 OFFCURVE",
"117.2 18 CURVE SMOOTH",
"140.8 79.7 OFFCURVE",
"162.2 138.5 OFFCURVE",
"182.1 196.2 CURVE",
"269.2 201 OFFCURVE",
"365.5 211.6 OFFCURVE",
"437 224.4 CURVE",
"463.7 162 OFFCURVE",
"492.7 96.7 OFFCURVE",
"525.8 23.8 CURVE SMOOTH",
"532.2 9.9 OFFCURVE",
"544.8 1.6 OFFCURVE",
"559.6 1.6 CURVE SMOOTH",
"580.4 1.6 OFFCURVE",
"593.592 15.445 OFFCURVE",
"593.592 33.529 CURVE SMOOTH",
"593.592 39.353 OFFCURVE",
"592.223 45.617 OFFCURVE",
"589.3 52 CURVE SMOOTH"
);
},
{
closed = 1;
nodes = (
"341.7 276.2 OFFCURVE",
"273.7 268.1 OFFCURVE",
"205 263.8 CURVE",
"234.3 352.7 OFFCURVE",
"261.6 441.8 OFFCURVE",
"298.4 572.7 CURVE",
"342.6 455.7 OFFCURVE",
"375.7 371.4 OFFCURVE",
"410.2 288.3 CURVE"
);
}
);
width = 614;
}
);
leftKerningGroup = A;
rightKerningGroup = A1;
unicode = 0041;
},
{
glyphname = B;
layers = (
{
layerId = "456AAD1A-9B1A-4197-8BD2-4742D361D2EB";
name = "#instance";
paths = (
{
closed = 1;
nodes = (
"399.592 -6 OFFCURVE",
"520 67.145 OFFCURVE",
"520 189 CURVE SMOOTH",
"520 280.804 OFFCURVE",
"450.408 343.436 OFFCURVE",
"329.572 360.386 CURVE",
"421.927 383.508 OFFCURVE",
"483 450.626 OFFCURVE",
"483 529 CURVE SMOOTH",
"483 644.887 OFFCURVE",
"349.226 710.973 OFFCURVE",
"137 700 CURVE SMOOTH",
"96.558 697.909 OFFCURVE",
"79.017 681.64 OFFCURVE",
"81 648 CURVE SMOOTH",
"93.471 436.404 OFFCURVE",
"93.795 277.448 OFFCURVE",
"82 68 CURVE SMOOTH",
"78.914 13.206 OFFCURVE",
"109.281 -6 OFFCURVE",
"199 -6 CURVE SMOOTH"
);
},
{
closed = 1;
nodes = (
"159.588 459.05 OFFCURVE",
"157.088 535.486 OFFCURVE",
"152 634 CURVE",
"326.306 642 OFFCURVE",
"414 604.847 OFFCURVE",
"414 523 CURVE SMOOTH",
"414 439.16 OFFCURVE",
"322.232 389.378 OFFCURVE",
"160.135 385.283 CURVE"
);
},
{
closed = 1;
nodes = (
"157.099 168.07 OFFCURVE",
"159.6 248.013 OFFCURVE",
"160.161 321.85 CURVE",
"358.023 319.11 OFFCURVE",
"450 278.856 OFFCURVE",
"450 195 CURVE SMOOTH",
"450 105.81 OFFCURVE",
"324.77 49.499 OFFCURVE",
"152 61 CURVE"
);
}
);
width = 570;
},
{
layerId = "9B6556BE-0D60-403F-880A-9E0B7B019CCB";
paths = (
{
closed = 1;
nodes = (
"364.116 -17.245 OFFCURVE",
"507.7 51.576 OFFCURVE",
"507.7 176.1 CURVE SMOOTH",
"507.7 273.962 OFFCURVE",
"406.974 348.755 OFFCURVE",
"262.672 359.118 CURVE",
"389.182 376.841 OFFCURVE",
"468.75 445.489 OFFCURVE",
"468.75 538.3 CURVE SMOOTH",
"468.75 655.314 OFFCURVE",
"342.232 712.355 OFFCURVE",
"111.1 700.4 CURVE SMOOTH",
"99.11 699.78 OFFCURVE",
"89.655 690.262 OFFCURVE",
"90.05 679.6 CURVE SMOOTH",
"99.965 412.036 OFFCURVE",
"99.118 210.216 OFFCURVE",
"90.45 34.2 CURVE SMOOTH",
"88.97 4.138 OFFCURVE",
"96.744 -4.8 OFFCURVE",
"130.05 -6.35 CURVE SMOOTH"
);
},
{
closed = 1;
nodes = (
"116.1 472.373 OFFCURVE",
"113.299 577.731 OFFCURVE",
"107.85 683.35 CURVE",
"333.996 693.75 OFFCURVE",
"450.1 644.052 OFFCURVE",
"450.1 536.85 CURVE SMOOTH",
"450.1 426.21 OFFCURVE",
"332.114 365.868 OFFCURVE",
"116.279 364.295 CURVE"
);
},
{
closed = 1;
nodes = (
"113.42 125.835 OFFCURVE",
"116.17 236.805 OFFCURVE",
"116.274 345.774 CURVE",
"334.836 363.908 OFFCURVE",
"488.95 293.494 OFFCURVE",
"488.95 175.5 CURVE SMOOTH",
"488.95 60.497 OFFCURVE",
"339.744 -3.6 OFFCURVE",
"108 11.85 CURVE"
);
}
);
width = 567;
},
{
layerId = "53D8B3CD-CAC4-43E9-8418-D21F673F49BB";
paths = (
{
closed = 1;
nodes = (
"431.156 -6.45 OFFCURVE",
"570.25 77.203 OFFCURVE",
"570.25 206.3 CURVE SMOOTH",
"570.25 283.651 OFFCURVE",
"510.091 351.459 OFFCURVE",
"424.449 370.639 CURVE",
"493.187 400.409 OFFCURVE",
"534.95 457.067 OFFCURVE",
"534.95 520.55 CURVE SMOOTH",
"534.95 640.65 OFFCURVE",
"415.05 705.75 OFFCURVE",
"193.85 705.75 CURVE SMOOTH",
"106.858 705.75 OFFCURVE",
"57.845 664.552 OFFCURVE",
"61.5 594.503 CURVE SMOOTH",
"67.778 474.189 OFFCURVE",
"67.586 287.523 OFFCURVE",
"60.75 107.7 CURVE SMOOTH",
"57.8 30.111 OFFCURVE",
"107.685 -6.45 OFFCURVE",
"216.5 -6.45 CURVE SMOOTH"
);
},
{
closed = 1;
nodes = (
"225.355 472.93 OFFCURVE",
"223.706 524.709 OFFCURVE",
"221.15 575.9 CURVE",
"307.095 584.799 OFFCURVE",
"373.8 555.653 OFFCURVE",
"373.8 509.2 CURVE SMOOTH",
"373.8 454.08 OFFCURVE",
"316.017 419.375 OFFCURVE",
"226.098 420.487 CURVE"
);
},
{
closed = 1;
nodes = (
"223.727 181.664 OFFCURVE",
"225.427 238.044 OFFCURVE",
"226.153 293.512 CURVE",
"332.365 301.291 OFFCURVE",
"408.15 267.245 OFFCURVE",
"408.15 211.75 CURVE SMOOTH",
"408.15 158.793 OFFCURVE",
"337.134 125.6 OFFCURVE",
"221.05 124.3 CURVE"
);
}
);
width = 601;
},
{
layerId = "F9A96203-4E56-41C0-BC85-563659FEF099";
paths = (
{
closed = 1;
nodes = (
"399.592 -6 OFFCURVE",
"520 67.145 OFFCURVE",
"520 189 CURVE SMOOTH",
"520 280.804 OFFCURVE",
"450.408 343.436 OFFCURVE",
"329.572 360.386 CURVE",
"421.927 383.508 OFFCURVE",
"483 450.626 OFFCURVE",
"483 529 CURVE SMOOTH",
"483 644.887 OFFCURVE",
"349.226 710.973 OFFCURVE",
"137 700 CURVE SMOOTH",
"96.558 697.909 OFFCURVE",
"79.017 681.64 OFFCURVE",
"81 648 CURVE SMOOTH",
"93.471 436.404 OFFCURVE",
"93.795 277.448 OFFCURVE",
"82 68 CURVE SMOOTH",
"78.914 13.206 OFFCURVE",
"109.281 -6 OFFCURVE",
"199 -6 CURVE SMOOTH"
);
},
{
closed = 1;
nodes = (
"159.588 459.05 OFFCURVE",
"157.088 535.486 OFFCURVE",
"152 634 CURVE",
"326.306 642 OFFCURVE",
"414 604.847 OFFCURVE",
"414 523 CURVE SMOOTH",
"414 439.16 OFFCURVE",
"322.232 389.378 OFFCURVE",
"160.135 385.283 CURVE"
);
},
{
closed = 1;
nodes = (
"157.099 168.07 OFFCURVE",
"159.6 248.013 OFFCURVE",
"160.161 321.85 CURVE",
"358.023 319.11 OFFCURVE",
"450 278.856 OFFCURVE",
"450 195 CURVE SMOOTH",
"450 105.81 OFFCURVE",
"324.77 49.499 OFFCURVE",
"152 61 CURVE"
);
}
);
width = 570;
},
{
layerId = "9B6556BE-0D60-403F-880A-9E0B7B019CCB";
paths = (
{
closed = 1;
nodes = (
"364.1 -17.2 OFFCURVE",
"507.7 51.6 OFFCURVE",
"507.7 176.1 CURVE SMOOTH",
"507.7 274 OFFCURVE",
"407 348.8 OFFCURVE",
"262.7 359.1 CURVE",
"389.2 376.8 OFFCURVE",
"468.8 445.5 OFFCURVE",
"468.8 538.3 CURVE SMOOTH",
"468.8 655.3 OFFCURVE",
"342.2 712.4 OFFCURVE",
"111.1 700.4 CURVE SMOOTH",
"99.1 699.8 OFFCURVE",
"89.7 690.3 OFFCURVE",
"90.1 679.6 CURVE SMOOTH",
"94.983 547.606 OFFCURVE",
"97.239 431.621 OFFCURVE",
"97.239 326.845 CURVE SMOOTH",
"97.239 219.201 OFFCURVE",
"94.858 123.388 OFFCURVE",
"90.5 34.2 CURVE SMOOTH",
"89 4.1 OFFCURVE",
"96.7 -4.8 OFFCURVE",
"130.1 -6.3 CURVE SMOOTH"
);
},
{
closed = 1;
nodes = (
"116.1 472.4 OFFCURVE",
"113.3 577.7 OFFCURVE",
"107.9 683.3 CURVE",
"334 693.7 OFFCURVE",
"450.1 644.1 OFFCURVE",
"450.1 536.8 CURVE SMOOTH",
"450.1 426.2 OFFCURVE",
"332.1 365.9 OFFCURVE",
"116.3 364.3 CURVE"
);
},
{
closed = 1;
nodes = (
"113.4 125.8 OFFCURVE",
"116.2 236.8 OFFCURVE",
"116.3 345.8 CURVE",
"334.8 363.9 OFFCURVE",
"489 293.5 OFFCURVE",
"489 175.5 CURVE SMOOTH",
"489 60.5 OFFCURVE",
"339.7 -3.6 OFFCURVE",
"108 11.9 CURVE"
);
}
);
width = 567;
},
{
layerId = "53D8B3CD-CAC4-43E9-8418-D21F673F49BB";
paths = (
{
closed = 1;
nodes = (
"431.2 -6.4 OFFCURVE",
"570.3 77.2 OFFCURVE",
"570.3 206.3 CURVE SMOOTH",
"570.3 283.7 OFFCURVE",
"510.1 351.5 OFFCURVE",
"424.4 370.6 CURVE",
"493.2 400.4 OFFCURVE",
"534.9 457.1 OFFCURVE",
"534.9 520.5 CURVE SMOOTH",
"534.9 640.7 OFFCURVE",
"415 705.7 OFFCURVE",
"193.8 705.7 CURVE SMOOTH",
"106.9 705.7 OFFCURVE",
"57.8 664.6 OFFCURVE",
"61.5 594.5 CURVE SMOOTH",
"64.531 536.629 OFFCURVE",
"66.057 463.392 OFFCURVE",
"66.057 382.949 CURVE SMOOTH",
"66.057 296.171 OFFCURVE",
"64.281 201.006 OFFCURVE",
"60.7 107.7 CURVE SMOOTH",
"57.8 30.1 OFFCURVE",
"107.7 -6.5 OFFCURVE",
"216.5 -6.4 CURVE SMOOTH"
);
},
{
closed = 1;
nodes = (
"225.4 472.9 OFFCURVE",
"223.7 524.7 OFFCURVE",
"221.1 575.9 CURVE",
"307.1 584.8 OFFCURVE",
"373.8 555.7 OFFCURVE",
"373.8 509.2 CURVE SMOOTH",
"373.8 454.1 OFFCURVE",
"316 419.4 OFFCURVE",
"226.1 420.5 CURVE"
);
},
{
closed = 1;
nodes = (
"223.7 181.7 OFFCURVE",
"225.4 238 OFFCURVE",
"226.2 293.5 CURVE",
"332.4 301.3 OFFCURVE",
"408.1 267.2 OFFCURVE",
"408.1 211.8 CURVE SMOOTH",
"408.1 158.8 OFFCURVE",
"337.1 125.6 OFFCURVE",
"221.1 124.3 CURVE"
);
}
);
width = 601;
},
{
layerId = "F9A96203-4E56-41C0-BC85-563659FEF099";
paths = (
{
closed = 1;
nodes = (
"399.6 -6 OFFCURVE",
"520 67.1 OFFCURVE",
"520 189 CURVE SMOOTH",
"520 280.8 OFFCURVE",
"450.4 343.4 OFFCURVE",
"329.6 360.4 CURVE",
"421.9 383.5 OFFCURVE",
"483 450.6 OFFCURVE",
"483 529 CURVE SMOOTH",
"483 644.9 OFFCURVE",
"349.2 711 OFFCURVE",
"137 700 CURVE SMOOTH",
"96.6 697.9 OFFCURVE",
"79 681.6 OFFCURVE",
"81 648 CURVE SMOOTH",
"87.417 539.37 OFFCURVE",
"90.619 444.603 OFFCURVE",
"90.619 349.762 CURVE SMOOTH",
"90.619 259.864 OFFCURVE",
"87.742 169.899 OFFCURVE",
"82 68 CURVE SMOOTH",
"78.9 13.2 OFFCURVE",
"109.3 -6 OFFCURVE",
"199 -6 CURVE SMOOTH"
);
},
{
closed = 1;
nodes = (
"159.6 459 OFFCURVE",
"157.1 535.5 OFFCURVE",
"152 634 CURVE",
"326.3 642 OFFCURVE",
"414 604.8 OFFCURVE",
"414 523 CURVE SMOOTH",
"414 439.2 OFFCURVE",
"322.2 389.4 OFFCURVE",
"160.1 385.3 CURVE"
);
},
{
closed = 1;
nodes = (
"157.1 168.1 OFFCURVE",
"159.6 248 OFFCURVE",
"160.2 321.8 CURVE",
"358 319.1 OFFCURVE",
"450 278.9 OFFCURVE",
"450 195 CURVE SMOOTH",
"450 105.8 OFFCURVE",
"324.8 49.5 OFFCURVE",
"152 61 CURVE"
);
}
);
width = 570;
}
);
leftKerningGroup = B;
unicode = 0042;
},
{
glyphname = C;
layers = (
{
anchors = (
{
name = bottom;
position = "{330, 0}";
},
{
name = top;
position = "{325, 730}";
}
);
layerId = "456AAD1A-9B1A-4197-8BD2-4742D361D2EB";
name = "#instance";
paths = (
{
closed = 1;
nodes = (
"417.738 -9.745 OFFCURVE",
"490.964 33.173 OFFCURVE",
"531.424 105.971 CURVE SMOOTH",
"534.386 111.301 OFFCURVE",
"529.709 117.604 OFFCURVE",
"522.792 117.604 CURVE SMOOTH",
"518.939 117.604 OFFCURVE",
"515.613 115.42 OFFCURVE",
"513.547 111.535 CURVE SMOOTH",
"478.688 45.987 OFFCURVE",
"412.133 6.932 OFFCURVE",
"335.285 6.932 CURVE SMOOTH",
"185.997 6.932 OFFCURVE",
"77.742 152.335 OFFCURVE",
"77.742 352.852 CURVE SMOOTH",
"77.742 551.902 OFFCURVE",
"181.907 692.52 OFFCURVE",
"331.955 692.52 CURVE SMOOTH",
"408.304 692.52 OFFCURVE",
"470.565 658.05 OFFCURVE",
"502.847 597.908 CURVE SMOOTH",
"504.631 594.583 OFFCURVE",
"507.243 592.483 OFFCURVE",
"510.785 592.483 CURVE SMOOTH",
"517.908 592.483 OFFCURVE",
"522.433 599.175 OFFCURVE",
"519.187 604.908 CURVE SMOOTH",
"480.409 673.387 OFFCURVE",
"415.673 709.8 OFFCURVE",
"332.708 709.8 CURVE SMOOTH",
"168.974 709.8 OFFCURVE",
"60 565.362 OFFCURVE",
"60 355.454 CURVE SMOOTH",
"60 143.578 OFFCURVE",
"175.03 -9.745 OFFCURVE",
"333.989 -9.745 CURVE"
);
}
);
width = 593;
},
{
anchors = (
{
name = bottom;
position = "{330, 0}";
},
{
name = top;
position = "{325, 730}";
}
);
layerId = "9B6556BE-0D60-403F-880A-9E0B7B019CCB";
paths = (
{
closed = 1;
nodes = (
"417.738 -9.745 OFFCURVE",
"490.964 33.173 OFFCURVE",
"531.424 105.971 CURVE SMOOTH",
"534.386 111.301 OFFCURVE",
"529.709 117.604 OFFCURVE",
"522.792 117.604 CURVE SMOOTH",
"518.939 117.604 OFFCURVE",
"515.613 115.42 OFFCURVE",
"513.547 111.535 CURVE SMOOTH",
"478.688 45.987 OFFCURVE",
"412.133 6.932 OFFCURVE",
"335.285 6.932 CURVE SMOOTH",
"185.997 6.932 OFFCURVE",
"77.742 152.335 OFFCURVE",
"77.742 352.852 CURVE SMOOTH",
"77.742 551.902 OFFCURVE",
"181.907 692.52 OFFCURVE",
"331.955 692.52 CURVE SMOOTH",
"408.304 692.52 OFFCURVE",
"470.565 658.05 OFFCURVE",
"502.847 597.908 CURVE SMOOTH",
"504.631 594.583 OFFCURVE",
"507.243 592.483 OFFCURVE",
"510.785 592.483 CURVE SMOOTH",
"517.908 592.483 OFFCURVE",
"522.433 599.175 OFFCURVE",
"519.187 604.908 CURVE SMOOTH",
"480.409 673.387 OFFCURVE",
"415.673 709.8 OFFCURVE",
"332.708 709.8 CURVE SMOOTH",
"168.974 709.8 OFFCURVE",
"60 565.362 OFFCURVE",
"60 355.454 CURVE SMOOTH",
"60 143.578 OFFCURVE",
"175.03 -9.745 OFFCURVE",
"333.989 -9.745 CURVE SMOOTH"
);
}
);
width = 593;
},
{
anchors = (
{
name = bottom;
position = "{335, 0}";
},
{
name = top;
position = "{341, 730}";
}
);
layerId = "53D8B3CD-CAC4-43E9-8418-D21F673F49BB";
paths = (
{
closed = 1;
nodes = (
"462.529 -10.069 OFFCURVE",
"555.572 40.717 OFFCURVE",
"582.656 117.756 CURVE SMOOTH",
"602.846 175.187 OFFCURVE",
"572.564 224.386 OFFCURVE",
"517.025 224.386 CURVE SMOOTH",
"492.95 224.386 OFFCURVE",
"469.945 213.901 OFFCURVE",
"453.121 195.262 CURVE SMOOTH",
"425.444 164.599 OFFCURVE",
"420.844 119.617 OFFCURVE",
"352.468 119.617 CURVE SMOOTH",
"257.261 119.617 OFFCURVE",
"192.414 216.91 OFFCURVE",
"192.414 359.752 CURVE SMOOTH",
"192.414 490.688 OFFCURVE",
"252.457 580.039 OFFCURVE",
"340.446 580.039 CURVE SMOOTH",
"379.616 580.039 OFFCURVE",
"414.564 562.677 OFFCURVE",
"436.158 532.49 CURVE SMOOTH",
"454.202 507.266 OFFCURVE",
"480.202 493.005 OFFCURVE",
"508.145 493.005 CURVE SMOOTH",
"572.85 493.005 OFFCURVE",
"600.608 556.116 OFFCURVE",
"561.436 614.169 CURVE SMOOTH",
"521.82 672.88 OFFCURVE",
"436.65 709.724 OFFCURVE",
"340.547 709.724 CURVE SMOOTH",
"156.094 709.724 OFFCURVE",
"30.328 564.835 OFFCURVE",
"30.328 352.335 CURVE SMOOTH",
"30.328 137.275 OFFCURVE",
"159.677 -10.069 OFFCURVE",
"348.473 -10.069 CURVE SMOOTH"
);
}
);
width = 619;
},
{
anchors = (
{
name = bottom;
position = "{330, 0}";
},
{
name = top;
position = "{322, 730}";
}
);
layerId = "F9A96203-4E56-41C0-BC85-563659FEF099";
paths = (
{
closed = 1;
nodes = (
"431 -10 OFFCURVE",
"510.044 38.131 OFFCURVE",
"535 113 CURVE SMOOTH",
"544.027 140.082 OFFCURVE",
"530.623 164.161 OFFCURVE",
"506.52 164.161 CURVE SMOOTH",
"492.614 164.161 OFFCURVE",
"480.138 155.168 OFFCURVE",
"473 140 CURVE SMOOTH",
"448.575 88.096 OFFCURVE",
"396.991 56 OFFCURVE",
"338 56 CURVE SMOOTH",
"212.16 56 OFFCURVE",
"120 184.517 OFFCURVE",
"120 360 CURVE SMOOTH",
"120 527.223 OFFCURVE",
"203.882 644 OFFCURVE",
"324 644 CURVE SMOOTH",
"384.004 644 OFFCURVE",
"440.541 612.646 OFFCURVE",
"464.632 566.01 CURVE SMOOTH",
"470.955 553.769 OFFCURVE",
"482.166 546.713 OFFCURVE",
"495.291 546.713 CURVE SMOOTH",
"524.195 546.713 OFFCURVE",
"539.012 574.73 OFFCURVE",
"524 601 CURVE SMOOTH",
"483.171 672.452 OFFCURVE",
"416.686 710 OFFCURVE",
"331 710 CURVE SMOOTH",
"163.442 710 OFFCURVE",
"50 563.858 OFFCURVE",
"50 348 CURVE SMOOTH",
"50 135.636 OFFCURVE",
"165.126 -10 OFFCURVE",
"333 -10 CURVE SMOOTH"
);
}
);
width = 588;
},
{
anchors = (
{
name = bottom;
position = "{330, 0}";
},
{
name = top;
position = "{325, 730}";
}
);
layerId = "9B6556BE-0D60-403F-880A-9E0B7B019CCB";
paths = (
{
closed = 1;
nodes = (
"417.7 -9.7 OFFCURVE",
"491 33.2 OFFCURVE",
"531.4 106 CURVE SMOOTH",
"534.4 111.3 OFFCURVE",
"529.7 117.6 OFFCURVE",
"522.8 117.6 CURVE SMOOTH",
"518.9 117.6 OFFCURVE",
"515.6 115.4 OFFCURVE",
"513.5 111.5 CURVE SMOOTH",
"478.7 46 OFFCURVE",
"412.1 6.9 OFFCURVE",
"335.3 6.9 CURVE SMOOTH",
"186 6.9 OFFCURVE",
"77.7 152.3 OFFCURVE",
"77.7 352.9 CURVE SMOOTH",
"77.7 551.9 OFFCURVE",
"181.9 692.5 OFFCURVE",
"332 692.5 CURVE SMOOTH",
"408.3 692.5 OFFCURVE",
"470.6 658 OFFCURVE",
"502.8 597.9 CURVE SMOOTH",
"504.6 594.6 OFFCURVE",
"507.2 592.5 OFFCURVE",
"510.8 592.5 CURVE SMOOTH",
"517.9 592.5 OFFCURVE",
"522.4 599.2 OFFCURVE",
"519.2 604.9 CURVE SMOOTH",
"480.4 673.4 OFFCURVE",
"415.7 709.8 OFFCURVE",
"332.7 709.8 CURVE SMOOTH",
"169 709.8 OFFCURVE",
"60 565.4 OFFCURVE",
"60 355.5 CURVE SMOOTH",
"60 143.6 OFFCURVE",
"175 -9.7 OFFCURVE",
"334 -9.7 CURVE SMOOTH"
);
}
);
width = 593;
},
{
anchors = (
{
name = bottom;
position = "{335, 0}";
},
{
name = top;
position = "{341, 730}";
}
);
layerId = "53D8B3CD-CAC4-43E9-8418-D21F673F49BB";
paths = (
{
closed = 1;
nodes = (
"462.5 -10.1 OFFCURVE",
"555.6 40.7 OFFCURVE",
"582.7 117.8 CURVE SMOOTH",
"586.937 129.9 OFFCURVE",
"588.939 141.635 OFFCURVE",
"588.939 152.623 CURVE SMOOTH",
"588.939 193.756 OFFCURVE",
"560.88 224.4 OFFCURVE",
"517 224.4 CURVE SMOOTH",
"493 224.4 OFFCURVE",
"469.9 213.9 OFFCURVE",
"453.1 195.3 CURVE SMOOTH",
"425.4 164.6 OFFCURVE",
"420.8 119.6 OFFCURVE",
"352.5 119.6 CURVE SMOOTH",
"257.3 119.6 OFFCURVE",
"192.4 216.9 OFFCURVE",
"192.4 359.8 CURVE SMOOTH",
"192.4 490.7 OFFCURVE",
"252.5 580 OFFCURVE",
"340.4 580 CURVE SMOOTH",
"379.6 580 OFFCURVE",
"414.6 562.7 OFFCURVE",
"436.2 532.5 CURVE SMOOTH",
"454.2 507.3 OFFCURVE",
"480.2 493 OFFCURVE",
"508.1 493 CURVE SMOOTH",
"552.482 493 OFFCURVE",
"579.461 522.601 OFFCURVE",
"579.461 559.922 CURVE SMOOTH",
"579.461 577.091 OFFCURVE",
"573.751 595.893 OFFCURVE",
"561.4 614.2 CURVE SMOOTH",
"521.8 672.9 OFFCURVE",
"436.6 709.7 OFFCURVE",
"340.5 709.7 CURVE SMOOTH",
"156.1 709.7 OFFCURVE",
"30.3 564.8 OFFCURVE",
"30.3 352.3 CURVE SMOOTH",
"30.3 137.3 OFFCURVE",
"159.7 -10.1 OFFCURVE",
"348.5 -10.1 CURVE SMOOTH"
);
}
);
width = 619;
},
{
anchors = (
{
name = bottom;
position = "{330, 0}";
},
{
name = top;
position = "{322, 730}";
}
);
layerId = "F9A96203-4E56-41C0-BC85-563659FEF099";
paths = (
{
closed = 1;
nodes = (
"431 -10 OFFCURVE",
"510 38.1 OFFCURVE",
"535 113 CURVE SMOOTH",
"544 140.1 OFFCURVE",
"530.6 164.2 OFFCURVE",
"506.5 164.2 CURVE SMOOTH",
"492.6 164.2 OFFCURVE",
"480.1 155.2 OFFCURVE",
"473 140 CURVE SMOOTH",
"448.6 88.1 OFFCURVE",
"397 56 OFFCURVE",
"338 56 CURVE SMOOTH",
"212.2 56 OFFCURVE",
"120 184.5 OFFCURVE",
"120 360 CURVE SMOOTH",
"120 527.2 OFFCURVE",
"203.9 644 OFFCURVE",
"324 644 CURVE SMOOTH",
"384 644 OFFCURVE",
"440.5 612.6 OFFCURVE",
"464.6 566 CURVE SMOOTH",
"471 553.8 OFFCURVE",
"482.2 546.7 OFFCURVE",
"495.3 546.7 CURVE SMOOTH",
"516.367 546.7 OFFCURVE",
"529.942 561.579 OFFCURVE",
"529.942 579.833 CURVE SMOOTH",
"529.942 586.619 OFFCURVE",
"528.065 593.872 OFFCURVE",
"524 601 CURVE SMOOTH",
"483.2 672.5 OFFCURVE",
"416.7 710 OFFCURVE",
"331 710 CURVE SMOOTH",
"163.4 710 OFFCURVE",
"50 563.9 OFFCURVE",
"50 348 CURVE SMOOTH",
"50 135.6 OFFCURVE",
"165.1 -10 OFFCURVE",
"333 -10 CURVE SMOOTH"
);
}
);
width = 588;
}
);
leftKerningGroup = C;
rightKerningGroup = C1;
unicode = 0043;
},
